<svg width="23" height="22" viewBox="0 0 23 22" fill="none" xmlns="http://www.w3.org/2000/svg">
<path d="M4.5 7.51464C4.5 3.9167 7.63401 1 11.5 1C15.366 1 18.5 3.9167 18.5 7.51464C18.5 11.0844 16.2658 15.2499 12.7801 16.7396C11.9675 17.0868 11.0325 17.0868 10.2199 16.7396C6.73416 15.2499 4.5 11.0844 4.5 7.51464Z" stroke="#263558" stroke-width="1.5"/>
<path d="M13.5 8C13.5 9.10457 12.6046 10 11.5 10C10.3954 10 9.5 9.10457 9.5 8C9.5 6.89543 10.3954 6 11.5 6C12.6046 6 13.5 6.89543 13.5 8Z" stroke="#263558" stroke-width="1.5"/>
<path d="M20.4605 14.5C21.1259 15.1025 21.5 15.7816 21.5 16.5C21.5 18.9853 17.0228 21 11.5 21C5.97715 21 1.5 18.9853 1.5 16.5C1.5 15.7816 1.87412 15.1025 2.53947 14.5" stroke="#263558" stroke-width="1.5" stroke-linecap="round"/>
</svg>
