<svg width="1299" height="200" viewBox="0 0 1299 200" fill="none" xmlns="http://www.w3.org/2000/svg">
<rect width="1299" height="200" rx="10" fill="#ED6033"/>
<ellipse cx="1024" cy="150.202" rx="61" ry="49.7976" fill="white" fill-opacity="0.1"/>
<ellipse cx="1020.5" cy="49.7976" rx="61.5" ry="49.7976" fill="white" fill-opacity="0.1"/>
<path opacity="0.1" d="M912 195.343C926.183 195.343 940.227 193.06 953.33 188.625C966.433 184.189 978.339 177.688 988.368 169.493C998.396 161.297 1006.35 151.567 1011.78 140.859C1017.21 130.151 1020 118.674 1020 107.084C1020 95.4937 1017.21 84.0168 1011.78 73.3087C1006.35 62.6006 998.396 52.871 988.368 44.6754C978.339 36.4798 966.433 29.9787 953.33 25.5432C940.227 21.1078 926.183 18.8249 912 18.8249L912 107.084L912 195.343Z" fill="white"/>
<rect opacity="0.1" x="178" y="19.0283" width="70.4454" height="178" transform="rotate(90 178 19.0283)" fill="white"/>
<path d="M64.604 91C64.1 90.184 63.5 89.308 62.804 88.372C62.132 87.412 61.388 86.464 60.572 85.528C59.78 84.568 58.952 83.656 58.088 82.792C57.224 81.904 56.36 81.124 55.496 80.452V91H49.88V66.052H55.496V75.484C56.96 73.948 58.424 72.352 59.888 70.696C61.376 69.016 62.756 67.468 64.028 66.052H70.688C68.984 68.068 67.268 70.012 65.54 71.884C63.836 73.756 62.036 75.64 60.14 77.536C62.132 79.192 64.052 81.16 65.9 83.44C67.772 85.72 69.56 88.24 71.264 91H64.604ZM71.788 81.676C71.788 79.996 72.04 78.532 72.544 77.284C73.072 76.012 73.756 74.956 74.596 74.116C75.436 73.276 76.396 72.64 77.476 72.208C78.58 71.776 79.708 71.56 80.86 71.56C83.548 71.56 85.672 72.388 87.232 74.044C88.792 75.676 89.572 78.088 89.572 81.28C89.572 81.592 89.56 81.94 89.536 82.324C89.512 82.684 89.488 83.008 89.464 83.296H77.296C77.416 84.4 77.932 85.276 78.844 85.924C79.756 86.572 80.98 86.896 82.516 86.896C83.5 86.896 84.46 86.812 85.396 86.644C86.356 86.452 87.136 86.224 87.736 85.96L88.456 90.316C88.168 90.46 87.784 90.604 87.304 90.748C86.824 90.892 86.284 91.012 85.684 91.108C85.108 91.228 84.484 91.324 83.812 91.396C83.14 91.468 82.468 91.504 81.796 91.504C80.092 91.504 78.604 91.252 77.332 90.748C76.084 90.244 75.04 89.56 74.2 88.696C73.384 87.808 72.772 86.764 72.364 85.564C71.98 84.364 71.788 83.068 71.788 81.676ZM84.388 79.624C84.364 79.168 84.28 78.724 84.136 78.292C84.016 77.86 83.812 77.476 83.524 77.14C83.26 76.804 82.912 76.528 82.48 76.312C82.072 76.096 81.556 75.988 80.932 75.988C80.332 75.988 79.816 76.096 79.384 76.312C78.952 76.504 78.592 76.768 78.304 77.104C78.016 77.44 77.788 77.836 77.62 78.292C77.476 78.724 77.368 79.168 77.296 79.624H84.388ZM93.7114 72.712C94.6234 72.448 95.7994 72.208 97.2394 71.992C98.6794 71.752 100.191 71.632 101.775 71.632C103.383 71.632 104.715 71.848 105.771 72.28C106.851 72.688 107.703 73.276 108.327 74.044C108.951 74.812 109.395 75.724 109.659 76.78C109.923 77.836 110.055 79.012 110.055 80.308V91H104.691V80.956C104.691 79.228 104.463 78.004 104.007 77.284C103.551 76.564 102.699 76.204 101.451 76.204C101.067 76.204 100.659 76.228 100.227 76.276C99.7954 76.3 99.4114 76.336 99.0754 76.384V91H93.7114V72.712ZM114.011 81.676C114.011 79.996 114.263 78.532 114.767 77.284C115.295 76.012 115.979 74.956 116.819 74.116C117.659 73.276 118.619 72.64 119.699 72.208C120.803 71.776 121.931 71.56 123.083 71.56C125.771 71.56 127.895 72.388 129.455 74.044C131.015 75.676 131.795 78.088 131.795 81.28C131.795 81.592 131.783 81.94 131.759 82.324C131.735 82.684 131.711 83.008 131.687 83.296H119.519C119.639 84.4 120.155 85.276 121.067 85.924C121.979 86.572 123.203 86.896 124.739 86.896C125.723 86.896 126.683 86.812 127.619 86.644C128.579 86.452 129.359 86.224 129.959 85.96L130.679 90.316C130.391 90.46 130.007 90.604 129.527 90.748C129.047 90.892 128.507 91.012 127.907 91.108C127.331 91.228 126.707 91.324 126.035 91.396C125.363 91.468 124.691 91.504 124.019 91.504C122.315 91.504 120.827 91.252 119.555 90.748C118.307 90.244 117.263 89.56 116.423 88.696C115.607 87.808 114.995 86.764 114.587 85.564C114.203 84.364 114.011 83.068 114.011 81.676ZM126.611 79.624C126.587 79.168 126.503 78.724 126.359 78.292C126.239 77.86 126.035 77.476 125.747 77.14C125.483 76.804 125.135 76.528 124.703 76.312C124.295 76.096 123.779 75.988 123.155 75.988C122.555 75.988 122.039 76.096 121.607 76.312C121.175 76.504 120.815 76.768 120.527 77.104C120.239 77.44 120.011 77.836 119.843 78.292C119.699 78.724 119.591 79.168 119.519 79.624H126.611ZM146.338 80.956C146.338 79.228 146.11 78.004 145.654 77.284C145.222 76.564 144.466 76.204 143.386 76.204C143.05 76.204 142.702 76.228 142.342 76.276C141.982 76.3 141.634 76.336 141.298 76.384V91H135.934V72.712C136.39 72.592 136.918 72.472 137.518 72.352C138.142 72.208 138.79 72.088 139.462 71.992C140.158 71.872 140.866 71.788 141.586 71.74C142.306 71.668 143.014 71.632 143.71 71.632C145.078 71.632 146.182 71.812 147.022 72.172C147.886 72.508 148.594 72.916 149.146 73.396C149.914 72.844 150.79 72.412 151.774 72.1C152.782 71.788 153.706 71.632 154.546 71.632C156.058 71.632 157.294 71.848 158.254 72.28C159.238 72.688 160.018 73.276 160.594 74.044C161.17 74.812 161.566 75.724 161.782 76.78C161.998 77.836 162.106 79.012 162.106 80.308V91H156.742V80.956C156.742 79.228 156.514 78.004 156.058 77.284C155.626 76.564 154.87 76.204 153.79 76.204C153.502 76.204 153.094 76.276 152.566 76.42C152.062 76.564 151.642 76.744 151.306 76.96C151.474 77.512 151.582 78.1 151.63 78.724C151.678 79.324 151.702 79.972 151.702 80.668V91H146.338V80.956ZM174.213 87.256C174.741 87.256 175.245 87.244 175.725 87.22C176.205 87.196 176.589 87.16 176.877 87.112V83.044C176.661 82.996 176.337 82.948 175.905 82.9C175.473 82.852 175.077 82.828 174.717 82.828C174.213 82.828 173.733 82.864 173.277 82.936C172.845 82.984 172.461 83.092 172.125 83.26C171.789 83.428 171.525 83.656 171.333 83.944C171.141 84.232 171.045 84.592 171.045 85.024C171.045 85.864 171.321 86.452 171.873 86.788C172.449 87.1 173.229 87.256 174.213 87.256ZM173.781 71.56C175.365 71.56 176.685 71.74 177.741 72.1C178.797 72.46 179.637 72.976 180.261 73.648C180.909 74.32 181.365 75.136 181.629 76.096C181.893 77.056 182.025 78.124 182.025 79.3V90.46C181.257 90.628 180.189 90.82 178.821 91.036C177.453 91.276 175.797 91.396 173.853 91.396C172.629 91.396 171.513 91.288 170.505 91.072C169.521 90.856 168.669 90.508 167.949 90.028C167.229 89.524 166.677 88.876 166.293 88.084C165.909 87.292 165.717 86.32 165.717 85.168C165.717 84.064 165.933 83.128 166.365 82.36C166.821 81.592 167.421 80.98 168.165 80.524C168.909 80.068 169.761 79.744 170.721 79.552C171.681 79.336 172.677 79.228 173.709 79.228C174.405 79.228 175.017 79.264 175.545 79.336C176.097 79.384 176.541 79.456 176.877 79.552V79.048C176.877 78.136 176.601 77.404 176.049 76.852C175.497 76.3 174.537 76.024 173.169 76.024C172.257 76.024 171.357 76.096 170.469 76.24C169.581 76.36 168.813 76.54 168.165 76.78L167.481 72.46C167.793 72.364 168.177 72.268 168.633 72.172C169.113 72.052 169.629 71.956 170.181 71.884C170.733 71.788 171.309 71.716 171.909 71.668C172.533 71.596 173.157 71.56 173.781 71.56ZM203.372 65.764C207.092 65.764 209.948 66.424 211.94 67.744C213.932 69.04 214.928 71.176 214.928 74.152C214.928 77.152 213.92 79.324 211.904 80.668C209.888 81.988 207.008 82.648 203.264 82.648H201.5V91H195.884V66.412C197.108 66.172 198.404 66.004 199.772 65.908C201.14 65.812 202.34 65.764 203.372 65.764ZM203.732 70.552C203.324 70.552 202.916 70.564 202.508 70.588C202.124 70.612 201.788 70.636 201.5 70.66V77.86H203.264C205.208 77.86 206.672 77.596 207.656 77.068C208.64 76.54 209.132 75.556 209.132 74.116C209.132 73.42 209 72.844 208.736 72.388C208.496 71.932 208.136 71.572 207.656 71.308C207.2 71.02 206.636 70.828 205.964 70.732C205.292 70.612 204.548 70.552 203.732 70.552ZM218.692 91V63.928L224.056 63.064V72.136C224.416 72.016 224.872 71.908 225.424 71.812C226 71.692 226.552 71.632 227.08 71.632C228.616 71.632 229.888 71.848 230.896 72.28C231.928 72.688 232.744 73.276 233.344 74.044C233.968 74.812 234.4 75.724 234.64 76.78C234.904 77.836 235.036 79.012 235.036 80.308V91H229.672V80.956C229.672 79.228 229.444 78.004 228.988 77.284C228.556 76.564 227.74 76.204 226.54 76.204C226.06 76.204 225.604 76.252 225.172 76.348C224.764 76.42 224.392 76.504 224.056 76.6V91H218.692ZM247.127 87.256C247.655 87.256 248.159 87.244 248.639 87.22C249.119 87.196 249.503 87.16 249.791 87.112V83.044C249.575 82.996 249.251 82.948 248.819 82.9C248.387 82.852 247.991 82.828 247.631 82.828C247.127 82.828 246.647 82.864 246.191 82.936C245.759 82.984 245.375 83.092 245.039 83.26C244.703 83.428 244.439 83.656 244.247 83.944C244.055 84.232 243.959 84.592 243.959 85.024C243.959 85.864 244.235 86.452 244.787 86.788C245.363 87.1 246.143 87.256 247.127 87.256ZM246.695 71.56C248.279 71.56 249.599 71.74 250.655 72.1C251.711 72.46 252.551 72.976 253.175 73.648C253.823 74.32 254.279 75.136 254.543 76.096C254.807 77.056 254.939 78.124 254.939 79.3V90.46C254.171 90.628 253.103 90.82 251.735 91.036C250.367 91.276 248.711 91.396 246.767 91.396C245.543 91.396 244.427 91.288 243.419 91.072C242.435 90.856 241.583 90.508 240.863 90.028C240.143 89.524 239.591 88.876 239.207 88.084C238.823 87.292 238.631 86.32 238.631 85.168C238.631 84.064 238.847 83.128 239.279 82.36C239.735 81.592 240.335 80.98 241.079 80.524C241.823 80.068 242.675 79.744 243.635 79.552C244.595 79.336 245.591 79.228 246.623 79.228C247.319 79.228 247.931 79.264 248.459 79.336C249.011 79.384 249.455 79.456 249.791 79.552V79.048C249.791 78.136 249.515 77.404 248.963 76.852C248.411 76.3 247.451 76.024 246.083 76.024C245.171 76.024 244.271 76.096 243.383 76.24C242.495 76.36 241.727 76.54 241.079 76.78L240.395 72.46C240.707 72.364 241.091 72.268 241.547 72.172C242.027 72.052 242.543 71.956 243.095 71.884C243.647 71.788 244.223 71.716 244.823 71.668C245.447 71.596 246.071 71.56 246.695 71.56ZM271.202 76.816C270.722 76.696 270.158 76.576 269.51 76.456C268.862 76.312 268.166 76.24 267.422 76.24C267.086 76.24 266.678 76.276 266.198 76.348C265.742 76.396 265.394 76.456 265.154 76.528V91H259.79V73.072C260.75 72.736 261.878 72.424 263.174 72.136C264.494 71.824 265.958 71.668 267.566 71.668C267.854 71.668 268.202 71.692 268.61 71.74C269.018 71.764 269.426 71.812 269.834 71.884C270.242 71.932 270.65 72.004 271.058 72.1C271.466 72.172 271.814 72.268 272.102 72.388L271.202 76.816ZM285.381 80.956C285.381 79.228 285.153 78.004 284.697 77.284C284.265 76.564 283.509 76.204 282.429 76.204C282.093 76.204 281.745 76.228 281.385 76.276C281.025 76.3 280.677 76.336 280.341 76.384V91H274.977V72.712C275.433 72.592 275.961 72.472 276.561 72.352C277.185 72.208 277.833 72.088 278.505 71.992C279.201 71.872 279.909 71.788 280.629 71.74C281.349 71.668 282.057 71.632 282.753 71.632C284.121 71.632 285.225 71.812 286.065 72.172C286.929 72.508 287.637 72.916 288.189 73.396C288.957 72.844 289.833 72.412 290.817 72.1C291.825 71.788 292.749 71.632 293.589 71.632C295.101 71.632 296.337 71.848 297.297 72.28C298.281 72.688 299.061 73.276 299.637 74.044C300.213 74.812 300.609 75.724 300.825 76.78C301.041 77.836 301.149 79.012 301.149 80.308V91H295.785V80.956C295.785 79.228 295.557 78.004 295.101 77.284C294.669 76.564 293.913 76.204 292.833 76.204C292.545 76.204 292.137 76.276 291.609 76.42C291.105 76.564 290.685 76.744 290.349 76.96C290.517 77.512 290.625 78.1 290.673 78.724C290.721 79.324 290.745 79.972 290.745 80.668V91H285.381V80.956ZM313.256 87.256C313.784 87.256 314.288 87.244 314.768 87.22C315.248 87.196 315.632 87.16 315.92 87.112V83.044C315.704 82.996 315.38 82.948 314.948 82.9C314.516 82.852 314.12 82.828 313.76 82.828C313.256 82.828 312.776 82.864 312.32 82.936C311.888 82.984 311.504 83.092 311.168 83.26C310.832 83.428 310.568 83.656 310.376 83.944C310.184 84.232 310.088 84.592 310.088 85.024C310.088 85.864 310.364 86.452 310.916 86.788C311.492 87.1 312.272 87.256 313.256 87.256ZM312.824 71.56C314.408 71.56 315.728 71.74 316.784 72.1C317.84 72.46 318.68 72.976 319.304 73.648C319.952 74.32 320.408 75.136 320.672 76.096C320.936 77.056 321.068 78.124 321.068 79.3V90.46C320.3 90.628 319.232 90.82 317.864 91.036C316.496 91.276 314.84 91.396 312.896 91.396C311.672 91.396 310.556 91.288 309.548 91.072C308.564 90.856 307.712 90.508 306.992 90.028C306.272 89.524 305.72 88.876 305.336 88.084C304.952 87.292 304.76 86.32 304.76 85.168C304.76 84.064 304.976 83.128 305.408 82.36C305.864 81.592 306.464 80.98 307.208 80.524C307.952 80.068 308.804 79.744 309.764 79.552C310.724 79.336 311.72 79.228 312.752 79.228C313.448 79.228 314.06 79.264 314.588 79.336C315.14 79.384 315.584 79.456 315.92 79.552V79.048C315.92 78.136 315.644 77.404 315.092 76.852C314.54 76.3 313.58 76.024 312.212 76.024C311.3 76.024 310.4 76.096 309.512 76.24C308.624 76.36 307.856 76.54 307.208 76.78L306.524 72.46C306.836 72.364 307.22 72.268 307.676 72.172C308.156 72.052 308.672 71.956 309.224 71.884C309.776 71.788 310.352 71.716 310.952 71.668C311.576 71.596 312.2 71.56 312.824 71.56ZM325.018 81.532C325.018 80.164 325.234 78.88 325.666 77.68C326.122 76.456 326.77 75.4 327.61 74.512C328.45 73.6 329.47 72.88 330.67 72.352C331.87 71.824 333.238 71.56 334.774 71.56C335.782 71.56 336.706 71.656 337.546 71.848C338.386 72.016 339.202 72.268 339.994 72.604L338.878 76.888C338.374 76.696 337.822 76.528 337.222 76.384C336.622 76.24 335.95 76.168 335.206 76.168C333.622 76.168 332.434 76.66 331.642 77.644C330.874 78.628 330.49 79.924 330.49 81.532C330.49 83.236 330.85 84.556 331.57 85.492C332.314 86.428 333.598 86.896 335.422 86.896C336.07 86.896 336.766 86.836 337.51 86.716C338.254 86.596 338.938 86.404 339.562 86.14L340.318 90.532C339.694 90.796 338.914 91.024 337.978 91.216C337.042 91.408 336.01 91.504 334.882 91.504C333.154 91.504 331.666 91.252 330.418 90.748C329.17 90.22 328.138 89.512 327.322 88.624C326.53 87.736 325.942 86.692 325.558 85.492C325.198 84.268 325.018 82.948 325.018 81.532ZM361.012 72.064C359.932 75.712 358.804 79.132 357.628 82.324C356.452 85.516 355.168 88.612 353.776 91.612C353.272 92.692 352.768 93.604 352.264 94.348C351.76 95.116 351.208 95.74 350.608 96.22C350.008 96.724 349.324 97.084 348.556 97.3C347.812 97.54 346.936 97.66 345.928 97.66C345.088 97.66 344.308 97.576 343.588 97.408C342.892 97.264 342.316 97.096 341.86 96.904L342.796 92.62C343.348 92.812 343.84 92.944 344.272 93.016C344.704 93.088 345.16 93.124 345.64 93.124C346.6 93.124 347.332 92.86 347.836 92.332C348.364 91.828 348.808 91.12 349.168 90.208C347.944 87.808 346.72 85.12 345.496 82.144C344.272 79.144 343.12 75.784 342.04 72.064H347.728C347.968 73 348.244 74.02 348.556 75.124C348.892 76.204 349.24 77.308 349.6 78.436C349.96 79.54 350.32 80.62 350.68 81.676C351.064 82.732 351.424 83.692 351.76 84.556C352.072 83.692 352.396 82.732 352.732 81.676C353.068 80.62 353.392 79.54 353.704 78.436C354.04 77.308 354.352 76.204 354.64 75.124C354.952 74.02 355.228 73 355.468 72.064H361.012ZM379.52 66.052C379.952 66.844 380.444 67.828 380.996 69.004C381.572 70.156 382.16 71.416 382.76 72.784C383.384 74.128 383.996 75.508 384.596 76.924C385.196 78.34 385.76 79.672 386.288 80.92C386.816 79.672 387.38 78.34 387.98 76.924C388.58 75.508 389.18 74.128 389.78 72.784C390.404 71.416 390.992 70.156 391.544 69.004C392.12 67.828 392.624 66.844 393.056 66.052H398.168C398.408 67.708 398.624 69.568 398.816 71.632C399.032 73.672 399.212 75.808 399.356 78.04C399.524 80.248 399.668 82.468 399.788 84.7C399.932 86.932 400.052 89.032 400.148 91H394.676C394.604 88.576 394.508 85.936 394.388 83.08C394.268 80.224 394.088 77.344 393.848 74.44C393.416 75.448 392.936 76.564 392.408 77.788C391.88 79.012 391.352 80.236 390.824 81.46C390.32 82.684 389.828 83.86 389.348 84.988C388.868 86.092 388.46 87.04 388.124 87.832H384.2C383.864 87.04 383.456 86.092 382.976 84.988C382.496 83.86 381.992 82.684 381.464 81.46C380.96 80.236 380.444 79.012 379.916 77.788C379.388 76.564 378.908 75.448 378.476 74.44C378.236 77.344 378.056 80.224 377.936 83.08C377.816 85.936 377.72 88.576 377.648 91H372.176C372.272 89.032 372.38 86.932 372.5 84.7C372.644 82.468 372.788 80.248 372.932 78.04C373.1 75.808 373.28 73.672 373.472 71.632C373.688 69.568 373.916 67.708 374.156 66.052H379.52ZM412.08 87.256C412.608 87.256 413.112 87.244 413.592 87.22C414.072 87.196 414.456 87.16 414.744 87.112V83.044C414.528 82.996 414.204 82.948 413.772 82.9C413.34 82.852 412.944 82.828 412.584 82.828C412.08 82.828 411.6 82.864 411.144 82.936C410.712 82.984 410.328 83.092 409.992 83.26C409.656 83.428 409.392 83.656 409.2 83.944C409.008 84.232 408.912 84.592 408.912 85.024C408.912 85.864 409.188 86.452 409.74 86.788C410.316 87.1 411.096 87.256 412.08 87.256ZM411.648 71.56C413.232 71.56 414.552 71.74 415.608 72.1C416.664 72.46 417.504 72.976 418.128 73.648C418.776 74.32 419.232 75.136 419.496 76.096C419.76 77.056 419.892 78.124 419.892 79.3V90.46C419.124 90.628 418.056 90.82 416.688 91.036C415.32 91.276 413.664 91.396 411.72 91.396C410.496 91.396 409.38 91.288 408.372 91.072C407.388 90.856 406.536 90.508 405.816 90.028C405.096 89.524 404.544 88.876 404.16 88.084C403.776 87.292 403.584 86.32 403.584 85.168C403.584 84.064 403.8 83.128 404.232 82.36C404.688 81.592 405.288 80.98 406.032 80.524C406.776 80.068 407.628 79.744 408.588 79.552C409.548 79.336 410.544 79.228 411.576 79.228C412.272 79.228 412.884 79.264 413.412 79.336C413.964 79.384 414.408 79.456 414.744 79.552V79.048C414.744 78.136 414.468 77.404 413.916 76.852C413.364 76.3 412.404 76.024 411.036 76.024C410.124 76.024 409.224 76.096 408.336 76.24C407.448 76.36 406.68 76.54 406.032 76.78L405.348 72.46C405.66 72.364 406.044 72.268 406.5 72.172C406.98 72.052 407.496 71.956 408.048 71.884C408.6 71.788 409.176 71.716 409.776 71.668C410.4 71.596 411.024 71.56 411.648 71.56ZM424.743 72.712C425.655 72.448 426.831 72.208 428.271 71.992C429.711 71.752 431.223 71.632 432.807 71.632C434.415 71.632 435.747 71.848 436.803 72.28C437.883 72.688 438.735 73.276 439.359 74.044C439.983 74.812 440.427 75.724 440.691 76.78C440.955 77.836 441.087 79.012 441.087 80.308V91H435.723V80.956C435.723 79.228 435.495 78.004 435.039 77.284C434.583 76.564 433.731 76.204 432.483 76.204C432.099 76.204 431.691 76.228 431.259 76.276C430.827 76.3 430.443 76.336 430.107 76.384V91H424.743V72.712ZM453.178 87.256C453.706 87.256 454.21 87.244 454.69 87.22C455.17 87.196 455.554 87.16 455.842 87.112V83.044C455.626 82.996 455.302 82.948 454.87 82.9C454.438 82.852 454.042 82.828 453.682 82.828C453.178 82.828 452.698 82.864 452.242 82.936C451.81 82.984 451.426 83.092 451.09 83.26C450.754 83.428 450.49 83.656 450.298 83.944C450.106 84.232 450.01 84.592 450.01 85.024C450.01 85.864 450.286 86.452 450.838 86.788C451.414 87.1 452.194 87.256 453.178 87.256ZM452.746 71.56C454.33 71.56 455.65 71.74 456.706 72.1C457.762 72.46 458.602 72.976 459.226 73.648C459.874 74.32 460.33 75.136 460.594 76.096C460.858 77.056 460.99 78.124 460.99 79.3V90.46C460.222 90.628 459.154 90.82 457.786 91.036C456.418 91.276 454.762 91.396 452.818 91.396C451.594 91.396 450.478 91.288 449.47 91.072C448.486 90.856 447.634 90.508 446.914 90.028C446.194 89.524 445.642 88.876 445.258 88.084C444.874 87.292 444.682 86.32 444.682 85.168C444.682 84.064 444.898 83.128 445.33 82.36C445.786 81.592 446.386 80.98 447.13 80.524C447.874 80.068 448.726 79.744 449.686 79.552C450.646 79.336 451.642 79.228 452.674 79.228C453.37 79.228 453.982 79.264 454.51 79.336C455.062 79.384 455.506 79.456 455.842 79.552V79.048C455.842 78.136 455.566 77.404 455.014 76.852C454.462 76.3 453.502 76.024 452.134 76.024C451.222 76.024 450.322 76.096 449.434 76.24C448.546 76.36 447.778 76.54 447.13 76.78L446.446 72.46C446.758 72.364 447.142 72.268 447.598 72.172C448.078 72.052 448.594 71.956 449.146 71.884C449.698 71.788 450.274 71.716 450.874 71.668C451.498 71.596 452.122 71.56 452.746 71.56ZM470.412 80.92C470.412 83.92 471.624 85.42 474.048 85.42C474.6 85.42 475.116 85.348 475.596 85.204C476.076 85.06 476.484 84.892 476.82 84.7V76.132C476.556 76.084 476.244 76.048 475.884 76.024C475.524 75.976 475.104 75.952 474.624 75.952C473.208 75.952 472.152 76.42 471.456 77.356C470.76 78.292 470.412 79.48 470.412 80.92ZM482.184 88.624C482.184 91.72 481.392 94.012 479.808 95.5C478.248 97.012 475.824 97.768 472.536 97.768C471.384 97.768 470.232 97.66 469.08 97.444C467.928 97.252 466.86 96.988 465.876 96.652L466.812 92.152C467.652 92.488 468.528 92.752 469.44 92.944C470.376 93.136 471.432 93.232 472.608 93.232C474.144 93.232 475.224 92.896 475.848 92.224C476.496 91.552 476.82 90.688 476.82 89.632V88.948C476.244 89.212 475.644 89.416 475.02 89.56C474.42 89.68 473.76 89.74 473.04 89.74C470.424 89.74 468.42 88.972 467.028 87.436C465.636 85.876 464.94 83.704 464.94 80.92C464.94 79.528 465.156 78.268 465.588 77.14C466.02 75.988 466.644 75.004 467.46 74.188C468.3 73.372 469.32 72.748 470.52 72.316C471.72 71.86 473.076 71.632 474.588 71.632C475.236 71.632 475.896 71.668 476.568 71.74C477.264 71.788 477.948 71.86 478.62 71.956C479.292 72.052 479.928 72.172 480.528 72.316C481.152 72.436 481.704 72.568 482.184 72.712V88.624ZM497.619 80.956C497.619 79.228 497.391 78.004 496.935 77.284C496.503 76.564 495.747 76.204 494.667 76.204C494.331 76.204 493.983 76.228 493.623 76.276C493.263 76.3 492.915 76.336 492.579 76.384V91H487.215V72.712C487.671 72.592 488.199 72.472 488.799 72.352C489.423 72.208 490.071 72.088 490.743 71.992C491.439 71.872 492.147 71.788 492.867 71.74C493.587 71.668 494.295 71.632 494.991 71.632C496.359 71.632 497.463 71.812 498.303 72.172C499.167 72.508 499.875 72.916 500.427 73.396C501.195 72.844 502.071 72.412 503.055 72.1C504.063 71.788 504.987 71.632 505.827 71.632C507.339 71.632 508.575 71.848 509.535 72.28C510.519 72.688 511.299 73.276 511.875 74.044C512.451 74.812 512.847 75.724 513.063 76.78C513.279 77.836 513.387 79.012 513.387 80.308V91H508.023V80.956C508.023 79.228 507.795 78.004 507.339 77.284C506.907 76.564 506.151 76.204 505.071 76.204C504.783 76.204 504.375 76.276 503.847 76.42C503.343 76.564 502.923 76.744 502.587 76.96C502.755 77.512 502.863 78.1 502.911 78.724C502.959 79.324 502.983 79.972 502.983 80.668V91H497.619V80.956ZM517.358 81.676C517.358 79.996 517.61 78.532 518.114 77.284C518.642 76.012 519.326 74.956 520.166 74.116C521.006 73.276 521.966 72.64 523.046 72.208C524.15 71.776 525.278 71.56 526.43 71.56C529.118 71.56 531.242 72.388 532.802 74.044C534.362 75.676 535.142 78.088 535.142 81.28C535.142 81.592 535.13 81.94 535.106 82.324C535.082 82.684 535.058 83.008 535.034 83.296H522.866C522.986 84.4 523.502 85.276 524.414 85.924C525.326 86.572 526.55 86.896 528.086 86.896C529.07 86.896 530.03 86.812 530.966 86.644C531.926 86.452 532.706 86.224 533.306 85.96L534.026 90.316C533.738 90.46 533.354 90.604 532.874 90.748C532.394 90.892 531.854 91.012 531.254 91.108C530.678 91.228 530.054 91.324 529.382 91.396C528.71 91.468 528.038 91.504 527.366 91.504C525.662 91.504 524.174 91.252 522.902 90.748C521.654 90.244 520.61 89.56 519.77 88.696C518.954 87.808 518.342 86.764 517.934 85.564C517.55 84.364 517.358 83.068 517.358 81.676ZM529.958 79.624C529.934 79.168 529.85 78.724 529.706 78.292C529.586 77.86 529.382 77.476 529.094 77.14C528.83 76.804 528.482 76.528 528.05 76.312C527.642 76.096 527.126 75.988 526.502 75.988C525.902 75.988 525.386 76.096 524.954 76.312C524.522 76.504 524.162 76.768 523.874 77.104C523.586 77.44 523.358 77.836 523.19 78.292C523.046 78.724 522.938 79.168 522.866 79.624H529.958ZM539.282 72.712C540.194 72.448 541.37 72.208 542.81 71.992C544.25 71.752 545.762 71.632 547.346 71.632C548.954 71.632 550.286 71.848 551.342 72.28C552.422 72.688 553.274 73.276 553.898 74.044C554.522 74.812 554.966 75.724 555.23 76.78C555.494 77.836 555.626 79.012 555.626 80.308V91H550.262V80.956C550.262 79.228 550.034 78.004 549.578 77.284C549.122 76.564 548.27 76.204 547.022 76.204C546.638 76.204 546.23 76.228 545.798 76.276C545.366 76.3 544.982 76.336 544.646 76.384V91H539.282V72.712ZM560.301 67.348L565.665 66.484V72.064H572.109V76.528H565.665V83.188C565.665 84.316 565.857 85.216 566.241 85.888C566.649 86.56 567.453 86.896 568.653 86.896C569.229 86.896 569.817 86.848 570.417 86.752C571.041 86.632 571.605 86.476 572.109 86.284L572.865 90.46C572.217 90.724 571.497 90.952 570.705 91.144C569.913 91.336 568.941 91.432 567.789 91.432C566.325 91.432 565.113 91.24 564.153 90.856C563.193 90.448 562.425 89.896 561.849 89.2C561.273 88.48 560.865 87.616 560.625 86.608C560.409 85.6 560.301 84.484 560.301 83.26V67.348ZM592.289 86.716C593.081 86.716 593.729 86.656 594.233 86.536C594.761 86.392 595.181 86.212 595.493 85.996C595.805 85.756 596.021 85.48 596.141 85.168C596.261 84.856 596.321 84.508 596.321 84.124C596.321 83.308 595.937 82.636 595.169 82.108C594.401 81.556 593.081 80.968 591.209 80.344C590.393 80.056 589.577 79.732 588.761 79.372C587.945 78.988 587.213 78.52 586.565 77.968C585.917 77.392 585.389 76.708 584.981 75.916C584.573 75.1 584.369 74.116 584.369 72.964C584.369 71.812 584.585 70.78 585.017 69.868C585.449 68.932 586.061 68.14 586.853 67.492C587.645 66.844 588.605 66.352 589.733 66.016C590.861 65.656 592.133 65.476 593.549 65.476C595.229 65.476 596.681 65.656 597.905 66.016C599.129 66.376 600.137 66.772 600.929 67.204L599.309 71.632C598.613 71.272 597.833 70.96 596.969 70.696C596.129 70.408 595.109 70.264 593.909 70.264C592.565 70.264 591.593 70.456 590.993 70.84C590.417 71.2 590.129 71.764 590.129 72.532C590.129 72.988 590.237 73.372 590.453 73.684C590.669 73.996 590.969 74.284 591.353 74.548C591.761 74.788 592.217 75.016 592.721 75.232C593.249 75.424 593.825 75.628 594.449 75.844C595.745 76.324 596.873 76.804 597.833 77.284C598.793 77.74 599.585 78.28 600.209 78.904C600.857 79.528 601.337 80.26 601.649 81.1C601.961 81.94 602.117 82.96 602.117 84.16C602.117 86.488 601.301 88.3 599.669 89.596C598.037 90.868 595.577 91.504 592.289 91.504C591.185 91.504 590.189 91.432 589.301 91.288C588.413 91.168 587.621 91.012 586.925 90.82C586.253 90.628 585.665 90.424 585.161 90.208C584.681 89.992 584.273 89.788 583.937 89.596L585.521 85.132C586.265 85.54 587.177 85.912 588.257 86.248C589.361 86.56 590.705 86.716 592.289 86.716ZM622.328 72.064C621.248 75.712 620.12 79.132 618.944 82.324C617.768 85.516 616.484 88.612 615.092 91.612C614.588 92.692 614.084 93.604 613.58 94.348C613.076 95.116 612.524 95.74 611.924 96.22C611.324 96.724 610.64 97.084 609.872 97.3C609.128 97.54 608.252 97.66 607.244 97.66C606.404 97.66 605.624 97.576 604.904 97.408C604.208 97.264 603.632 97.096 603.176 96.904L604.112 92.62C604.664 92.812 605.156 92.944 605.588 93.016C606.02 93.088 606.476 93.124 606.956 93.124C607.916 93.124 608.648 92.86 609.152 92.332C609.68 91.828 610.124 91.12 610.484 90.208C609.26 87.808 608.036 85.12 606.812 82.144C605.588 79.144 604.436 75.784 603.356 72.064H609.044C609.284 73 609.56 74.02 609.872 75.124C610.208 76.204 610.556 77.308 610.916 78.436C611.276 79.54 611.636 80.62 611.996 81.676C612.38 82.732 612.74 83.692 613.076 84.556C613.388 83.692 613.712 82.732 614.048 81.676C614.384 80.62 614.708 79.54 615.02 78.436C615.356 77.308 615.668 76.204 615.956 75.124C616.268 74.02 616.544 73 616.784 72.064H622.328ZM630.64 87.148C631.624 87.148 632.32 87.052 632.728 86.86C633.136 86.668 633.34 86.296 633.34 85.744C633.34 85.312 633.076 84.94 632.548 84.628C632.02 84.292 631.216 83.92 630.136 83.512C629.296 83.2 628.528 82.876 627.832 82.54C627.16 82.204 626.584 81.808 626.104 81.352C625.624 80.872 625.252 80.308 624.988 79.66C624.724 79.012 624.592 78.232 624.592 77.32C624.592 75.544 625.252 74.14 626.572 73.108C627.892 72.076 629.704 71.56 632.008 71.56C633.16 71.56 634.264 71.668 635.32 71.884C636.376 72.076 637.216 72.292 637.84 72.532L636.904 76.708C636.28 76.492 635.596 76.3 634.852 76.132C634.132 75.964 633.316 75.88 632.404 75.88C630.724 75.88 629.884 76.348 629.884 77.284C629.884 77.5 629.92 77.692 629.992 77.86C630.064 78.028 630.208 78.196 630.424 78.364C630.64 78.508 630.928 78.676 631.288 78.868C631.672 79.036 632.152 79.228 632.728 79.444C633.904 79.876 634.876 80.308 635.644 80.74C636.412 81.148 637.012 81.604 637.444 82.108C637.9 82.588 638.212 83.128 638.38 83.728C638.572 84.328 638.668 85.024 638.668 85.816C638.668 87.688 637.96 89.104 636.544 90.064C635.152 91.024 633.172 91.504 630.604 91.504C628.924 91.504 627.52 91.36 626.392 91.072C625.288 90.784 624.52 90.544 624.088 90.352L624.988 85.996C625.9 86.356 626.836 86.644 627.796 86.86C628.756 87.052 629.704 87.148 630.64 87.148ZM642.496 67.348L647.86 66.484V72.064H654.304V76.528H647.86V83.188C647.86 84.316 648.052 85.216 648.436 85.888C648.844 86.56 649.648 86.896 650.848 86.896C651.424 86.896 652.012 86.848 652.612 86.752C653.236 86.632 653.8 86.476 654.304 86.284L655.06 90.46C654.412 90.724 653.692 90.952 652.9 91.144C652.108 91.336 651.136 91.432 649.984 91.432C648.52 91.432 647.308 91.24 646.348 90.856C645.388 90.448 644.62 89.896 644.044 89.2C643.468 88.48 643.06 87.616 642.82 86.608C642.604 85.6 642.496 84.484 642.496 83.26V67.348ZM657.069 81.676C657.069 79.996 657.321 78.532 657.825 77.284C658.353 76.012 659.037 74.956 659.877 74.116C660.717 73.276 661.677 72.64 662.757 72.208C663.861 71.776 664.989 71.56 666.141 71.56C668.829 71.56 670.953 72.388 672.513 74.044C674.073 75.676 674.853 78.088 674.853 81.28C674.853 81.592 674.841 81.94 674.817 82.324C674.793 82.684 674.769 83.008 674.745 83.296H662.577C662.697 84.4 663.213 85.276 664.125 85.924C665.037 86.572 666.261 86.896 667.797 86.896C668.781 86.896 669.741 86.812 670.677 86.644C671.637 86.452 672.417 86.224 673.017 85.96L673.737 90.316C673.449 90.46 673.065 90.604 672.585 90.748C672.105 90.892 671.565 91.012 670.965 91.108C670.389 91.228 669.765 91.324 669.093 91.396C668.421 91.468 667.749 91.504 667.077 91.504C665.373 91.504 663.885 91.252 662.613 90.748C661.365 90.244 660.321 89.56 659.481 88.696C658.665 87.808 658.053 86.764 657.645 85.564C657.261 84.364 657.069 83.068 657.069 81.676ZM669.669 79.624C669.645 79.168 669.561 78.724 669.417 78.292C669.297 77.86 669.093 77.476 668.805 77.14C668.541 76.804 668.193 76.528 667.761 76.312C667.353 76.096 666.837 75.988 666.213 75.988C665.613 75.988 665.097 76.096 664.665 76.312C664.233 76.504 663.873 76.768 663.585 77.104C663.297 77.44 663.069 77.836 662.901 78.292C662.757 78.724 662.649 79.168 662.577 79.624H669.669ZM689.397 80.956C689.397 79.228 689.169 78.004 688.713 77.284C688.281 76.564 687.525 76.204 686.445 76.204C686.109 76.204 685.761 76.228 685.401 76.276C685.041 76.3 684.693 76.336 684.357 76.384V91H678.993V72.712C679.449 72.592 679.977 72.472 680.577 72.352C681.201 72.208 681.849 72.088 682.521 71.992C683.217 71.872 683.925 71.788 684.645 71.74C685.365 71.668 686.073 71.632 686.769 71.632C688.137 71.632 689.241 71.812 690.081 72.172C690.945 72.508 691.653 72.916 692.205 73.396C692.973 72.844 693.849 72.412 694.833 72.1C695.841 71.788 696.765 71.632 697.605 71.632C699.117 71.632 700.353 71.848 701.313 72.28C702.297 72.688 703.077 73.276 703.653 74.044C704.229 74.812 704.625 75.724 704.841 76.78C705.057 77.836 705.165 79.012 705.165 80.308V91H699.801V80.956C699.801 79.228 699.573 78.004 699.117 77.284C698.685 76.564 697.929 76.204 696.849 76.204C696.561 76.204 696.153 76.276 695.625 76.42C695.121 76.564 694.701 76.744 694.365 76.96C694.533 77.512 694.641 78.1 694.689 78.724C694.737 79.324 694.761 79.972 694.761 80.668V91H689.397V80.956Z" fill="white"/>
<path opacity="0.8" d="M52.1 132.52C52.228 132.68 52.388 132.892 52.58 133.156C52.78 133.412 52.984 133.7 53.192 134.02C53.4 134.332 53.604 134.66 53.804 135.004C54.012 135.348 54.188 135.68 54.332 136H53.06C52.9 135.696 52.724 135.388 52.532 135.076C52.348 134.764 52.16 134.468 51.968 134.188C51.776 133.9 51.584 133.632 51.392 133.384C51.208 133.136 51.04 132.92 50.888 132.736C50.784 132.744 50.676 132.748 50.564 132.748C50.46 132.748 50.352 132.748 50.24 132.748H49.196V136H48.032V127.804C48.36 127.724 48.724 127.672 49.124 127.648C49.532 127.616 49.904 127.6 50.24 127.6C51.408 127.6 52.296 127.82 52.904 128.26C53.52 128.7 53.828 129.356 53.828 130.228C53.828 130.78 53.68 131.252 53.384 131.644C53.096 132.036 52.668 132.328 52.1 132.52ZM50.336 128.62C49.84 128.62 49.46 128.632 49.196 128.656V131.788H50.024C50.424 131.788 50.784 131.768 51.104 131.728C51.424 131.688 51.692 131.612 51.908 131.5C52.132 131.388 52.304 131.232 52.424 131.032C52.544 130.824 52.604 130.552 52.604 130.216C52.604 129.904 52.544 129.644 52.424 129.436C52.304 129.228 52.14 129.064 51.932 128.944C51.732 128.824 51.492 128.74 51.212 128.692C50.94 128.644 50.648 128.62 50.336 128.62ZM55.1589 132.892C55.1589 132.34 55.2389 131.86 55.3989 131.452C55.5589 131.036 55.7709 130.692 56.0349 130.42C56.2989 130.148 56.6029 129.944 56.9469 129.808C57.2909 129.672 57.6429 129.604 58.0029 129.604C58.8429 129.604 59.4869 129.868 59.9349 130.396C60.3829 130.916 60.6069 131.712 60.6069 132.784C60.6069 132.832 60.6069 132.896 60.6069 132.976C60.6069 133.048 60.6029 133.116 60.5949 133.18H56.3229C56.3709 133.828 56.5589 134.32 56.8869 134.656C57.2149 134.992 57.7269 135.16 58.4229 135.16C58.8149 135.16 59.1429 135.128 59.4069 135.064C59.6789 134.992 59.8829 134.924 60.0189 134.86L60.1749 135.796C60.0389 135.868 59.7989 135.944 59.4549 136.024C59.1189 136.104 58.7349 136.144 58.3029 136.144C57.7589 136.144 57.2869 136.064 56.8869 135.904C56.4949 135.736 56.1709 135.508 55.9149 135.22C55.6589 134.932 55.4669 134.592 55.3389 134.2C55.2189 133.8 55.1589 133.364 55.1589 132.892ZM59.4429 132.28C59.4509 131.776 59.3229 131.364 59.0589 131.044C58.8029 130.716 58.4469 130.552 57.9909 130.552C57.7349 130.552 57.5069 130.604 57.3069 130.708C57.1149 130.804 56.9509 130.932 56.8149 131.092C56.6789 131.252 56.5709 131.436 56.4909 131.644C56.4189 131.852 56.3709 132.064 56.3469 132.28H59.4429ZM64.322 135.196C64.586 135.196 64.818 135.192 65.018 135.184C65.226 135.168 65.398 135.144 65.534 135.112V133.252C65.454 133.212 65.322 133.18 65.138 133.156C64.962 133.124 64.746 133.108 64.49 133.108C64.322 133.108 64.142 133.12 63.95 133.144C63.766 133.168 63.594 133.22 63.434 133.3C63.282 133.372 63.154 133.476 63.05 133.612C62.946 133.74 62.894 133.912 62.894 134.128C62.894 134.528 63.022 134.808 63.278 134.968C63.534 135.12 63.882 135.196 64.322 135.196ZM64.226 129.604C64.674 129.604 65.05 129.664 65.354 129.784C65.666 129.896 65.914 130.06 66.098 130.276C66.29 130.484 66.426 130.736 66.506 131.032C66.586 131.32 66.626 131.64 66.626 131.992V135.892C66.53 135.908 66.394 135.932 66.218 135.964C66.05 135.988 65.858 136.012 65.642 136.036C65.426 136.06 65.19 136.08 64.934 136.096C64.686 136.12 64.438 136.132 64.19 136.132C63.838 136.132 63.514 136.096 63.218 136.024C62.922 135.952 62.666 135.84 62.45 135.688C62.234 135.528 62.066 135.32 61.946 135.064C61.826 134.808 61.766 134.5 61.766 134.14C61.766 133.796 61.834 133.5 61.97 133.252C62.114 133.004 62.306 132.804 62.546 132.652C62.786 132.5 63.066 132.388 63.386 132.316C63.706 132.244 64.042 132.208 64.394 132.208C64.506 132.208 64.622 132.216 64.742 132.232C64.862 132.24 64.974 132.256 65.078 132.28C65.19 132.296 65.286 132.312 65.366 132.328C65.446 132.344 65.502 132.356 65.534 132.364V132.052C65.534 131.868 65.514 131.688 65.474 131.512C65.434 131.328 65.362 131.168 65.258 131.032C65.154 130.888 65.01 130.776 64.826 130.696C64.65 130.608 64.418 130.564 64.13 130.564C63.762 130.564 63.438 130.592 63.158 130.648C62.886 130.696 62.682 130.748 62.546 130.804L62.414 129.88C62.558 129.816 62.798 129.756 63.134 129.7C63.47 129.636 63.834 129.604 64.226 129.604ZM72.5115 131.08C72.3755 130.968 72.1795 130.86 71.9235 130.756C71.6675 130.652 71.3875 130.6 71.0835 130.6C70.7635 130.6 70.4875 130.66 70.2555 130.78C70.0315 130.892 69.8475 131.052 69.7035 131.26C69.5595 131.46 69.4555 131.7 69.3915 131.98C69.3275 132.26 69.2955 132.56 69.2955 132.88C69.2955 133.608 69.4755 134.172 69.8355 134.572C70.1955 134.964 70.6755 135.16 71.2755 135.16C71.5795 135.16 71.8315 135.148 72.0315 135.124C72.2395 135.092 72.3995 135.06 72.5115 135.028V131.08ZM72.5115 126.88L73.6275 126.688V135.82C73.3715 135.892 73.0435 135.964 72.6435 136.036C72.2435 136.108 71.7835 136.144 71.2635 136.144C70.7835 136.144 70.3515 136.068 69.9675 135.916C69.5835 135.764 69.2555 135.548 68.9835 135.268C68.7115 134.988 68.4995 134.648 68.3475 134.248C68.2035 133.84 68.1315 133.384 68.1315 132.88C68.1315 132.4 68.1915 131.96 68.3115 131.56C68.4395 131.16 68.6235 130.816 68.8635 130.528C69.1035 130.24 69.3955 130.016 69.7395 129.856C70.0915 129.696 70.4915 129.616 70.9395 129.616C71.2995 129.616 71.6155 129.664 71.8875 129.76C72.1675 129.856 72.3755 129.948 72.5115 130.036V126.88ZM79.3673 129.76H81.7313V130.696H79.3673V133.576C79.3673 133.888 79.3913 134.148 79.4393 134.356C79.4873 134.556 79.5593 134.716 79.6553 134.836C79.7513 134.948 79.8713 135.028 80.0153 135.076C80.1593 135.124 80.3273 135.148 80.5193 135.148C80.8553 135.148 81.1233 135.112 81.3233 135.04C81.5313 134.96 81.6753 134.904 81.7553 134.872L81.9713 135.796C81.8593 135.852 81.6633 135.92 81.3833 136C81.1033 136.088 80.7833 136.132 80.4233 136.132C79.9993 136.132 79.6473 136.08 79.3673 135.976C79.0953 135.864 78.8753 135.7 78.7073 135.484C78.5393 135.268 78.4193 135.004 78.3473 134.692C78.2833 134.372 78.2513 134.004 78.2513 133.588V128.02L79.3673 127.828V129.76ZM83.1514 136V126.88L84.2674 126.688V129.88C84.4754 129.8 84.6954 129.74 84.9274 129.7C85.1674 129.652 85.4034 129.628 85.6354 129.628C86.1314 129.628 86.5434 129.7 86.8714 129.844C87.1994 129.98 87.4594 130.176 87.6514 130.432C87.8514 130.68 87.9914 130.98 88.0714 131.332C88.1514 131.684 88.1914 132.072 88.1914 132.496V136H87.0754V132.736C87.0754 132.352 87.0474 132.024 86.9914 131.752C86.9434 131.48 86.8594 131.26 86.7394 131.092C86.6194 130.924 86.4594 130.804 86.2594 130.732C86.0594 130.652 85.8114 130.612 85.5154 130.612C85.3954 130.612 85.2714 130.62 85.1434 130.636C85.0154 130.652 84.8914 130.672 84.7714 130.696C84.6594 130.712 84.5554 130.732 84.4594 130.756C84.3714 130.78 84.3074 130.8 84.2674 130.816V136H83.1514ZM89.6589 132.892C89.6589 132.34 89.7389 131.86 89.8989 131.452C90.0589 131.036 90.2709 130.692 90.5349 130.42C90.7989 130.148 91.1029 129.944 91.4469 129.808C91.7909 129.672 92.1429 129.604 92.5029 129.604C93.3429 129.604 93.9869 129.868 94.4349 130.396C94.8829 130.916 95.1069 131.712 95.1069 132.784C95.1069 132.832 95.1069 132.896 95.1069 132.976C95.1069 133.048 95.1029 133.116 95.0949 133.18H90.8229C90.8709 133.828 91.0589 134.32 91.3869 134.656C91.7149 134.992 92.2269 135.16 92.9229 135.16C93.3149 135.16 93.6429 135.128 93.9069 135.064C94.1789 134.992 94.3829 134.924 94.5189 134.86L94.6749 135.796C94.5389 135.868 94.2989 135.944 93.9549 136.024C93.6189 136.104 93.2349 136.144 92.8029 136.144C92.2589 136.144 91.7869 136.064 91.3869 135.904C90.9949 135.736 90.6709 135.508 90.4149 135.22C90.1589 134.932 89.9669 134.592 89.8389 134.2C89.7189 133.8 89.6589 133.364 89.6589 132.892ZM93.9429 132.28C93.9509 131.776 93.8229 131.364 93.5589 131.044C93.3029 130.716 92.9469 130.552 92.4909 130.552C92.2349 130.552 92.0069 130.604 91.8069 130.708C91.6149 130.804 91.4509 130.932 91.3149 131.092C91.1789 131.252 91.0709 131.436 90.9909 131.644C90.9189 131.852 90.8709 132.064 90.8469 132.28H93.9429ZM100.939 135.196C101.395 135.196 101.731 135.136 101.947 135.016C102.171 134.896 102.283 134.704 102.283 134.44C102.283 134.168 102.175 133.952 101.959 133.792C101.743 133.632 101.387 133.452 100.891 133.252C100.651 133.156 100.419 133.06 100.195 132.964C99.9793 132.86 99.7913 132.74 99.6313 132.604C99.4713 132.468 99.3433 132.304 99.2473 132.112C99.1513 131.92 99.1033 131.684 99.1033 131.404C99.1033 130.852 99.3073 130.416 99.7153 130.096C100.123 129.768 100.679 129.604 101.383 129.604C101.559 129.604 101.735 129.616 101.911 129.64C102.087 129.656 102.251 129.68 102.403 129.712C102.555 129.736 102.687 129.764 102.799 129.796C102.919 129.828 103.011 129.856 103.075 129.88L102.871 130.84C102.751 130.776 102.563 130.712 102.307 130.648C102.051 130.576 101.743 130.54 101.383 130.54C101.071 130.54 100.799 130.604 100.567 130.732C100.335 130.852 100.219 131.044 100.219 131.308C100.219 131.444 100.243 131.564 100.291 131.668C100.347 131.772 100.427 131.868 100.531 131.956C100.643 132.036 100.779 132.112 100.939 132.184C101.099 132.256 101.291 132.332 101.515 132.412C101.811 132.524 102.075 132.636 102.307 132.748C102.539 132.852 102.735 132.976 102.895 133.12C103.063 133.264 103.191 133.44 103.279 133.648C103.367 133.848 103.411 134.096 103.411 134.392C103.411 134.968 103.195 135.404 102.763 135.7C102.339 135.996 101.731 136.144 100.939 136.144C100.387 136.144 99.9553 136.096 99.6433 136C99.3313 135.912 99.1193 135.844 99.0073 135.796L99.2113 134.836C99.3393 134.884 99.5433 134.956 99.8233 135.052C100.103 135.148 100.475 135.196 100.939 135.196ZM104.111 137.164C104.199 137.204 104.311 137.24 104.447 137.272C104.591 137.312 104.731 137.332 104.867 137.332C105.307 137.332 105.651 137.232 105.899 137.032C106.147 136.84 106.371 136.524 106.571 136.084C106.067 135.124 105.595 134.108 105.155 133.036C104.723 131.956 104.363 130.864 104.075 129.76H105.275C105.363 130.12 105.467 130.508 105.587 130.924C105.715 131.34 105.855 131.768 106.007 132.208C106.159 132.648 106.323 133.088 106.499 133.528C106.675 133.968 106.859 134.392 107.051 134.8C107.355 133.96 107.619 133.128 107.843 132.304C108.067 131.48 108.279 130.632 108.479 129.76H109.631C109.343 130.936 109.023 132.068 108.671 133.156C108.319 134.236 107.939 135.248 107.531 136.192C107.371 136.552 107.203 136.86 107.027 137.116C106.859 137.38 106.671 137.596 106.463 137.764C106.255 137.932 106.019 138.056 105.755 138.136C105.499 138.216 105.207 138.256 104.879 138.256C104.791 138.256 104.699 138.248 104.603 138.232C104.507 138.224 104.411 138.208 104.315 138.184C104.227 138.168 104.143 138.148 104.063 138.124C103.991 138.1 103.939 138.08 103.907 138.064L104.111 137.164ZM112.26 135.196C112.716 135.196 113.052 135.136 113.268 135.016C113.492 134.896 113.604 134.704 113.604 134.44C113.604 134.168 113.496 133.952 113.28 133.792C113.064 133.632 112.708 133.452 112.212 133.252C111.972 133.156 111.74 133.06 111.516 132.964C111.3 132.86 111.112 132.74 110.952 132.604C110.792 132.468 110.664 132.304 110.568 132.112C110.472 131.92 110.424 131.684 110.424 131.404C110.424 130.852 110.628 130.416 111.036 130.096C111.444 129.768 112 129.604 112.704 129.604C112.88 129.604 113.056 129.616 113.232 129.64C113.408 129.656 113.572 129.68 113.724 129.712C113.876 129.736 114.008 129.764 114.12 129.796C114.24 129.828 114.332 129.856 114.396 129.88L114.192 130.84C114.072 130.776 113.884 130.712 113.628 130.648C113.372 130.576 113.064 130.54 112.704 130.54C112.392 130.54 112.12 130.604 111.888 130.732C111.656 130.852 111.54 131.044 111.54 131.308C111.54 131.444 111.564 131.564 111.612 131.668C111.668 131.772 111.748 131.868 111.852 131.956C111.964 132.036 112.1 132.112 112.26 132.184C112.42 132.256 112.612 132.332 112.836 132.412C113.132 132.524 113.396 132.636 113.628 132.748C113.86 132.852 114.056 132.976 114.216 133.12C114.384 133.264 114.512 133.44 114.6 133.648C114.688 133.848 114.732 134.096 114.732 134.392C114.732 134.968 114.516 135.404 114.084 135.7C113.66 135.996 113.052 136.144 112.26 136.144C111.708 136.144 111.276 136.096 110.964 136C110.652 135.912 110.44 135.844 110.328 135.796L110.532 134.836C110.66 134.884 110.864 134.956 111.144 135.052C111.424 135.148 111.796 135.196 112.26 135.196ZM117.207 129.76H119.571V130.696H117.207V133.576C117.207 133.888 117.231 134.148 117.279 134.356C117.327 134.556 117.399 134.716 117.495 134.836C117.591 134.948 117.711 135.028 117.855 135.076C117.999 135.124 118.167 135.148 118.359 135.148C118.695 135.148 118.963 135.112 119.163 135.04C119.371 134.96 119.515 134.904 119.595 134.872L119.811 135.796C119.699 135.852 119.503 135.92 119.223 136C118.943 136.088 118.623 136.132 118.263 136.132C117.839 136.132 117.487 136.08 117.207 135.976C116.935 135.864 116.715 135.7 116.547 135.484C116.379 135.268 116.259 135.004 116.187 134.692C116.123 134.372 116.091 134.004 116.091 133.588V128.02L117.207 127.828V129.76ZM120.526 132.892C120.526 132.34 120.606 131.86 120.766 131.452C120.926 131.036 121.138 130.692 121.402 130.42C121.666 130.148 121.97 129.944 122.314 129.808C122.658 129.672 123.01 129.604 123.37 129.604C124.21 129.604 124.854 129.868 125.302 130.396C125.75 130.916 125.974 131.712 125.974 132.784C125.974 132.832 125.974 132.896 125.974 132.976C125.974 133.048 125.97 133.116 125.962 133.18H121.69C121.738 133.828 121.926 134.32 122.254 134.656C122.582 134.992 123.094 135.16 123.79 135.16C124.182 135.16 124.51 135.128 124.774 135.064C125.046 134.992 125.25 134.924 125.386 134.86L125.542 135.796C125.406 135.868 125.166 135.944 124.822 136.024C124.486 136.104 124.102 136.144 123.67 136.144C123.126 136.144 122.654 136.064 122.254 135.904C121.862 135.736 121.538 135.508 121.282 135.22C121.026 134.932 120.834 134.592 120.706 134.2C120.586 133.8 120.526 133.364 120.526 132.892ZM124.81 132.28C124.818 131.776 124.69 131.364 124.426 131.044C124.17 130.716 123.814 130.552 123.358 130.552C123.102 130.552 122.874 130.604 122.674 130.708C122.482 130.804 122.318 130.932 122.182 131.092C122.046 131.252 121.938 131.436 121.858 131.644C121.786 131.852 121.738 132.064 121.714 132.28H124.81ZM127.577 129.94C127.833 129.876 128.169 129.808 128.585 129.736C129.009 129.664 129.497 129.628 130.049 129.628C130.449 129.628 130.785 129.684 131.057 129.796C131.329 129.9 131.557 130.056 131.741 130.264C131.797 130.224 131.885 130.168 132.005 130.096C132.125 130.024 132.273 129.956 132.449 129.892C132.625 129.82 132.821 129.76 133.037 129.712C133.253 129.656 133.485 129.628 133.733 129.628C134.213 129.628 134.605 129.7 134.909 129.844C135.213 129.98 135.449 130.176 135.617 130.432C135.793 130.688 135.909 130.992 135.965 131.344C136.029 131.696 136.061 132.08 136.061 132.496V136H134.945V132.736C134.945 132.368 134.925 132.052 134.885 131.788C134.853 131.524 134.785 131.304 134.681 131.128C134.585 130.952 134.449 130.824 134.273 130.744C134.105 130.656 133.885 130.612 133.613 130.612C133.237 130.612 132.925 130.664 132.677 130.768C132.437 130.864 132.273 130.952 132.185 131.032C132.249 131.24 132.297 131.468 132.329 131.716C132.361 131.964 132.377 132.224 132.377 132.496V136H131.261V132.736C131.261 132.368 131.241 132.052 131.201 131.788C131.161 131.524 131.089 131.304 130.985 131.128C130.889 130.952 130.753 130.824 130.577 130.744C130.409 130.656 130.193 130.612 129.929 130.612C129.817 130.612 129.697 130.616 129.569 130.624C129.441 130.632 129.317 130.644 129.197 130.66C129.085 130.668 128.981 130.68 128.885 130.696C128.789 130.712 128.725 130.724 128.693 130.732V136H127.577V129.94ZM140.69 129.94C140.946 129.876 141.282 129.808 141.698 129.736C142.122 129.664 142.61 129.628 143.162 129.628C143.562 129.628 143.898 129.684 144.17 129.796C144.442 129.9 144.67 130.056 144.854 130.264C144.91 130.224 144.998 130.168 145.118 130.096C145.238 130.024 145.386 129.956 145.562 129.892C145.738 129.82 145.934 129.76 146.15 129.712C146.366 129.656 146.598 129.628 146.846 129.628C147.326 129.628 147.718 129.7 148.022 129.844C148.326 129.98 148.562 130.176 148.73 130.432C148.906 130.688 149.022 130.992 149.078 131.344C149.142 131.696 149.174 132.08 149.174 132.496V136H148.058V132.736C148.058 132.368 148.038 132.052 147.998 131.788C147.966 131.524 147.898 131.304 147.794 131.128C147.698 130.952 147.562 130.824 147.386 130.744C147.218 130.656 146.998 130.612 146.726 130.612C146.35 130.612 146.038 130.664 145.79 130.768C145.55 130.864 145.386 130.952 145.298 131.032C145.362 131.24 145.41 131.468 145.442 131.716C145.474 131.964 145.49 132.224 145.49 132.496V136H144.374V132.736C144.374 132.368 144.354 132.052 144.314 131.788C144.274 131.524 144.202 131.304 144.098 131.128C144.002 130.952 143.866 130.824 143.69 130.744C143.522 130.656 143.306 130.612 143.042 130.612C142.93 130.612 142.81 130.616 142.682 130.624C142.554 130.632 142.43 130.644 142.31 130.66C142.198 130.668 142.094 130.68 141.998 130.696C141.902 130.712 141.838 130.724 141.806 130.732V136H140.69V129.94ZM153.138 135.196C153.402 135.196 153.634 135.192 153.834 135.184C154.042 135.168 154.214 135.144 154.35 135.112V133.252C154.27 133.212 154.138 133.18 153.954 133.156C153.778 133.124 153.562 133.108 153.306 133.108C153.138 133.108 152.958 133.12 152.766 133.144C152.582 133.168 152.41 133.22 152.25 133.3C152.098 133.372 151.97 133.476 151.866 133.612C151.762 133.74 151.71 133.912 151.71 134.128C151.71 134.528 151.838 134.808 152.094 134.968C152.35 135.12 152.698 135.196 153.138 135.196ZM153.042 129.604C153.49 129.604 153.866 129.664 154.17 129.784C154.482 129.896 154.73 130.06 154.914 130.276C155.106 130.484 155.242 130.736 155.322 131.032C155.402 131.32 155.442 131.64 155.442 131.992V135.892C155.346 135.908 155.21 135.932 155.034 135.964C154.866 135.988 154.674 136.012 154.458 136.036C154.242 136.06 154.006 136.08 153.75 136.096C153.502 136.12 153.254 136.132 153.006 136.132C152.654 136.132 152.33 136.096 152.034 136.024C151.738 135.952 151.482 135.84 151.266 135.688C151.05 135.528 150.882 135.32 150.762 135.064C150.642 134.808 150.582 134.5 150.582 134.14C150.582 133.796 150.65 133.5 150.786 133.252C150.93 133.004 151.122 132.804 151.362 132.652C151.602 132.5 151.882 132.388 152.202 132.316C152.522 132.244 152.858 132.208 153.21 132.208C153.322 132.208 153.438 132.216 153.558 132.232C153.678 132.24 153.79 132.256 153.894 132.28C154.006 132.296 154.102 132.312 154.182 132.328C154.262 132.344 154.318 132.356 154.35 132.364V132.052C154.35 131.868 154.33 131.688 154.29 131.512C154.25 131.328 154.178 131.168 154.074 131.032C153.97 130.888 153.826 130.776 153.642 130.696C153.466 130.608 153.234 130.564 152.946 130.564C152.578 130.564 152.254 130.592 151.974 130.648C151.702 130.696 151.498 130.748 151.362 130.804L151.23 129.88C151.374 129.816 151.614 129.756 151.95 129.7C152.286 129.636 152.65 129.604 153.042 129.604ZM157.296 129.94C157.552 129.876 157.892 129.808 158.316 129.736C158.74 129.664 159.228 129.628 159.78 129.628C160.276 129.628 160.688 129.7 161.016 129.844C161.344 129.98 161.604 130.176 161.796 130.432C161.996 130.68 162.136 130.98 162.216 131.332C162.296 131.684 162.336 132.072 162.336 132.496V136H161.22V132.736C161.22 132.352 161.192 132.024 161.136 131.752C161.088 131.48 161.004 131.26 160.884 131.092C160.764 130.924 160.604 130.804 160.404 130.732C160.204 130.652 159.956 130.612 159.66 130.612C159.54 130.612 159.416 130.616 159.288 130.624C159.16 130.632 159.036 130.644 158.916 130.66C158.804 130.668 158.7 130.68 158.604 130.696C158.516 130.712 158.452 130.724 158.412 130.732V136H157.296V129.94ZM169.155 135.82C168.899 135.884 168.559 135.952 168.135 136.024C167.719 136.096 167.235 136.132 166.683 136.132C166.203 136.132 165.799 136.064 165.471 135.928C165.143 135.784 164.879 135.584 164.679 135.328C164.479 135.072 164.335 134.772 164.247 134.428C164.159 134.076 164.115 133.688 164.115 133.264V129.76H165.231V133.024C165.231 133.784 165.351 134.328 165.591 134.656C165.831 134.984 166.235 135.148 166.803 135.148C166.923 135.148 167.047 135.144 167.175 135.136C167.303 135.128 167.423 135.12 167.535 135.112C167.647 135.096 167.747 135.084 167.835 135.076C167.931 135.06 167.999 135.044 168.039 135.028V129.76H169.155V135.82ZM173.189 135.196C173.453 135.196 173.685 135.192 173.885 135.184C174.093 135.168 174.265 135.144 174.401 135.112V133.252C174.321 133.212 174.189 133.18 174.005 133.156C173.829 133.124 173.613 133.108 173.357 133.108C173.189 133.108 173.009 133.12 172.817 133.144C172.633 133.168 172.461 133.22 172.301 133.3C172.149 133.372 172.021 133.476 171.917 133.612C171.813 133.74 171.761 133.912 171.761 134.128C171.761 134.528 171.889 134.808 172.145 134.968C172.401 135.12 172.749 135.196 173.189 135.196ZM173.093 129.604C173.541 129.604 173.917 129.664 174.221 129.784C174.533 129.896 174.781 130.06 174.965 130.276C175.157 130.484 175.293 130.736 175.373 131.032C175.453 131.32 175.493 131.64 175.493 131.992V135.892C175.397 135.908 175.261 135.932 175.085 135.964C174.917 135.988 174.725 136.012 174.509 136.036C174.293 136.06 174.057 136.08 173.801 136.096C173.553 136.12 173.305 136.132 173.057 136.132C172.705 136.132 172.381 136.096 172.085 136.024C171.789 135.952 171.533 135.84 171.317 135.688C171.101 135.528 170.933 135.32 170.813 135.064C170.693 134.808 170.633 134.5 170.633 134.14C170.633 133.796 170.701 133.5 170.837 133.252C170.981 133.004 171.173 132.804 171.413 132.652C171.653 132.5 171.933 132.388 172.253 132.316C172.573 132.244 172.909 132.208 173.261 132.208C173.373 132.208 173.489 132.216 173.609 132.232C173.729 132.24 173.841 132.256 173.945 132.28C174.057 132.296 174.153 132.312 174.233 132.328C174.313 132.344 174.369 132.356 174.401 132.364V132.052C174.401 131.868 174.381 131.688 174.341 131.512C174.301 131.328 174.229 131.168 174.125 131.032C174.021 130.888 173.877 130.776 173.693 130.696C173.517 130.608 173.285 130.564 172.997 130.564C172.629 130.564 172.305 130.592 172.025 130.648C171.753 130.696 171.549 130.748 171.413 130.804L171.281 129.88C171.425 129.816 171.665 129.756 172.001 129.7C172.337 129.636 172.701 129.604 173.093 129.604ZM179.219 136.12C178.531 136.104 178.043 135.956 177.755 135.676C177.467 135.396 177.323 134.96 177.323 134.368V126.88L178.439 126.688V134.188C178.439 134.372 178.455 134.524 178.487 134.644C178.519 134.764 178.571 134.86 178.643 134.932C178.715 135.004 178.811 135.06 178.931 135.1C179.051 135.132 179.199 135.16 179.375 135.184L179.219 136.12ZM184.521 130.036C184.657 129.948 184.861 129.856 185.133 129.76C185.413 129.664 185.733 129.616 186.093 129.616C186.541 129.616 186.937 129.696 187.281 129.856C187.633 130.016 187.929 130.24 188.169 130.528C188.409 130.816 188.589 131.16 188.709 131.56C188.837 131.96 188.901 132.4 188.901 132.88C188.901 133.384 188.825 133.84 188.673 134.248C188.529 134.648 188.321 134.988 188.049 135.268C187.777 135.548 187.449 135.764 187.065 135.916C186.681 136.068 186.249 136.144 185.769 136.144C185.249 136.144 184.789 136.108 184.389 136.036C183.989 135.964 183.661 135.892 183.405 135.82V126.88L184.521 126.688V130.036ZM184.521 135.028C184.633 135.06 184.789 135.092 184.989 135.124C185.197 135.148 185.453 135.16 185.757 135.16C186.357 135.16 186.837 134.964 187.197 134.572C187.557 134.172 187.737 133.608 187.737 132.88C187.737 132.56 187.705 132.26 187.641 131.98C187.577 131.7 187.473 131.46 187.329 131.26C187.185 131.052 186.997 130.892 186.765 130.78C186.541 130.66 186.269 130.6 185.949 130.6C185.645 130.6 185.365 130.652 185.109 130.756C184.853 130.86 184.657 130.968 184.521 131.08V135.028ZM189.587 137.164C189.675 137.204 189.787 137.24 189.923 137.272C190.067 137.312 190.207 137.332 190.343 137.332C190.783 137.332 191.127 137.232 191.375 137.032C191.623 136.84 191.847 136.524 192.047 136.084C191.543 135.124 191.071 134.108 190.631 133.036C190.199 131.956 189.839 130.864 189.551 129.76H190.751C190.839 130.12 190.943 130.508 191.063 130.924C191.191 131.34 191.331 131.768 191.483 132.208C191.635 132.648 191.799 133.088 191.975 133.528C192.151 133.968 192.335 134.392 192.527 134.8C192.831 133.96 193.095 133.128 193.319 132.304C193.543 131.48 193.755 130.632 193.955 129.76H195.107C194.819 130.936 194.499 132.068 194.147 133.156C193.795 134.236 193.415 135.248 193.007 136.192C192.847 136.552 192.679 136.86 192.503 137.116C192.335 137.38 192.147 137.596 191.939 137.764C191.731 137.932 191.495 138.056 191.231 138.136C190.975 138.216 190.683 138.256 190.355 138.256C190.267 138.256 190.175 138.248 190.079 138.232C189.983 138.224 189.887 138.208 189.791 138.184C189.703 138.168 189.619 138.148 189.539 138.124C189.467 138.1 189.415 138.08 189.383 138.064L189.587 137.164ZM203.094 131.08C202.958 130.968 202.762 130.86 202.506 130.756C202.25 130.652 201.97 130.6 201.666 130.6C201.346 130.6 201.07 130.66 200.838 130.78C200.614 130.892 200.43 131.052 200.286 131.26C200.142 131.46 200.038 131.7 199.974 131.98C199.91 132.26 199.878 132.56 199.878 132.88C199.878 133.608 200.058 134.172 200.418 134.572C200.778 134.964 201.258 135.16 201.858 135.16C202.162 135.16 202.414 135.148 202.614 135.124C202.822 135.092 202.982 135.06 203.094 135.028V131.08ZM203.094 126.88L204.21 126.688V135.82C203.954 135.892 203.626 135.964 203.226 136.036C202.826 136.108 202.366 136.144 201.846 136.144C201.366 136.144 200.934 136.068 200.55 135.916C200.166 135.764 199.838 135.548 199.566 135.268C199.294 134.988 199.082 134.648 198.93 134.248C198.786 133.84 198.714 133.384 198.714 132.88C198.714 132.4 198.774 131.96 198.894 131.56C199.022 131.16 199.206 130.816 199.446 130.528C199.686 130.24 199.978 130.016 200.322 129.856C200.674 129.696 201.074 129.616 201.522 129.616C201.882 129.616 202.198 129.664 202.47 129.76C202.75 129.856 202.958 129.948 203.094 130.036V126.88ZM211.636 132.88C211.636 133.376 211.564 133.824 211.42 134.224C211.276 134.624 211.072 134.968 210.808 135.256C210.552 135.544 210.244 135.768 209.884 135.928C209.524 136.08 209.132 136.156 208.708 136.156C208.284 136.156 207.892 136.08 207.532 135.928C207.172 135.768 206.86 135.544 206.596 135.256C206.34 134.968 206.14 134.624 205.996 134.224C205.852 133.824 205.78 133.376 205.78 132.88C205.78 132.392 205.852 131.948 205.996 131.548C206.14 131.14 206.34 130.792 206.596 130.504C206.86 130.216 207.172 129.996 207.532 129.844C207.892 129.684 208.284 129.604 208.708 129.604C209.132 129.604 209.524 129.684 209.884 129.844C210.244 129.996 210.552 130.216 210.808 130.504C211.072 130.792 211.276 131.14 211.42 131.548C211.564 131.948 211.636 132.392 211.636 132.88ZM210.472 132.88C210.472 132.176 210.312 131.62 209.992 131.212C209.68 130.796 209.252 130.588 208.708 130.588C208.164 130.588 207.732 130.796 207.412 131.212C207.1 131.62 206.944 132.176 206.944 132.88C206.944 133.584 207.1 134.144 207.412 134.56C207.732 134.968 208.164 135.172 208.708 135.172C209.252 135.172 209.68 134.968 209.992 134.56C210.312 134.144 210.472 133.584 210.472 132.88ZM218.154 136C217.93 135.424 217.69 134.768 217.434 134.032C217.186 133.288 216.958 132.516 216.75 131.716C216.542 132.516 216.314 133.288 216.066 134.032C215.818 134.768 215.582 135.424 215.358 136H214.386C214.018 135.176 213.658 134.236 213.306 133.18C212.954 132.124 212.622 130.984 212.31 129.76H213.51C213.59 130.136 213.686 130.544 213.798 130.984C213.91 131.424 214.026 131.864 214.146 132.304C214.274 132.744 214.406 133.168 214.542 133.576C214.678 133.984 214.806 134.34 214.926 134.644C215.062 134.268 215.194 133.872 215.322 133.456C215.458 133.032 215.586 132.608 215.706 132.184C215.826 131.752 215.938 131.332 216.042 130.924C216.154 130.508 216.25 130.12 216.33 129.76H217.254C217.326 130.12 217.414 130.508 217.518 130.924C217.622 131.332 217.734 131.752 217.854 132.184C217.974 132.608 218.098 133.032 218.226 133.456C218.362 133.872 218.498 134.268 218.634 134.644C218.754 134.34 218.878 133.984 219.006 133.576C219.142 133.168 219.274 132.744 219.402 132.304C219.53 131.864 219.65 131.424 219.762 130.984C219.874 130.544 219.97 130.136 220.05 129.76H221.202C220.89 130.984 220.558 132.124 220.206 133.18C219.854 134.236 219.494 135.176 219.126 136H218.154ZM222.382 129.94C222.638 129.876 222.978 129.808 223.402 129.736C223.826 129.664 224.314 129.628 224.866 129.628C225.362 129.628 225.774 129.7 226.102 129.844C226.43 129.98 226.69 130.176 226.882 130.432C227.082 130.68 227.222 130.98 227.302 131.332C227.382 131.684 227.422 132.072 227.422 132.496V136H226.306V132.736C226.306 132.352 226.278 132.024 226.222 131.752C226.174 131.48 226.09 131.26 225.97 131.092C225.85 130.924 225.69 130.804 225.49 130.732C225.29 130.652 225.042 130.612 224.746 130.612C224.626 130.612 224.502 130.616 224.374 130.624C224.246 130.632 224.122 130.644 224.002 130.66C223.89 130.668 223.786 130.68 223.69 130.696C223.602 130.712 223.538 130.724 223.498 130.732V136H222.382V129.94ZM231.145 136.12C230.457 136.104 229.969 135.956 229.681 135.676C229.393 135.396 229.249 134.96 229.249 134.368V126.88L230.365 126.688V134.188C230.365 134.372 230.381 134.524 230.413 134.644C230.445 134.764 230.497 134.86 230.569 134.932C230.641 135.004 230.737 135.06 230.857 135.1C230.977 135.132 231.125 135.16 231.301 135.184L231.145 136.12ZM238.062 132.88C238.062 133.376 237.99 133.824 237.846 134.224C237.702 134.624 237.498 134.968 237.234 135.256C236.978 135.544 236.67 135.768 236.31 135.928C235.95 136.08 235.558 136.156 235.134 136.156C234.71 136.156 234.318 136.08 233.958 135.928C233.598 135.768 233.286 135.544 233.022 135.256C232.766 134.968 232.566 134.624 232.422 134.224C232.278 133.824 232.206 133.376 232.206 132.88C232.206 132.392 232.278 131.948 232.422 131.548C232.566 131.14 232.766 130.792 233.022 130.504C233.286 130.216 233.598 129.996 233.958 129.844C234.318 129.684 234.71 129.604 235.134 129.604C235.558 129.604 235.95 129.684 236.31 129.844C236.67 129.996 236.978 130.216 237.234 130.504C237.498 130.792 237.702 131.14 237.846 131.548C237.99 131.948 238.062 132.392 238.062 132.88ZM236.898 132.88C236.898 132.176 236.738 131.62 236.418 131.212C236.106 130.796 235.678 130.588 235.134 130.588C234.59 130.588 234.158 130.796 233.838 131.212C233.526 131.62 233.37 132.176 233.37 132.88C233.37 133.584 233.526 134.144 233.838 134.56C234.158 134.968 234.59 135.172 235.134 135.172C235.678 135.172 236.106 134.968 236.418 134.56C236.738 134.144 236.898 133.584 236.898 132.88ZM241.744 135.196C242.008 135.196 242.24 135.192 242.44 135.184C242.648 135.168 242.82 135.144 242.956 135.112V133.252C242.876 133.212 242.744 133.18 242.56 133.156C242.384 133.124 242.168 133.108 241.912 133.108C241.744 133.108 241.564 133.12 241.372 133.144C241.188 133.168 241.016 133.22 240.856 133.3C240.704 133.372 240.576 133.476 240.472 133.612C240.368 133.74 240.316 133.912 240.316 134.128C240.316 134.528 240.444 134.808 240.7 134.968C240.956 135.12 241.304 135.196 241.744 135.196ZM241.648 129.604C242.096 129.604 242.472 129.664 242.776 129.784C243.088 129.896 243.336 130.06 243.52 130.276C243.712 130.484 243.848 130.736 243.928 131.032C244.008 131.32 244.048 131.64 244.048 131.992V135.892C243.952 135.908 243.816 135.932 243.64 135.964C243.472 135.988 243.28 136.012 243.064 136.036C242.848 136.06 242.612 136.08 242.356 136.096C242.108 136.12 241.86 136.132 241.612 136.132C241.26 136.132 240.936 136.096 240.64 136.024C240.344 135.952 240.088 135.84 239.872 135.688C239.656 135.528 239.488 135.32 239.368 135.064C239.248 134.808 239.188 134.5 239.188 134.14C239.188 133.796 239.256 133.5 239.392 133.252C239.536 133.004 239.728 132.804 239.968 132.652C240.208 132.5 240.488 132.388 240.808 132.316C241.128 132.244 241.464 132.208 241.816 132.208C241.928 132.208 242.044 132.216 242.164 132.232C242.284 132.24 242.396 132.256 242.5 132.28C242.612 132.296 242.708 132.312 242.788 132.328C242.868 132.344 242.924 132.356 242.956 132.364V132.052C242.956 131.868 242.936 131.688 242.896 131.512C242.856 131.328 242.784 131.168 242.68 131.032C242.576 130.888 242.432 130.776 242.248 130.696C242.072 130.608 241.84 130.564 241.552 130.564C241.184 130.564 240.86 130.592 240.58 130.648C240.308 130.696 240.104 130.748 239.968 130.804L239.836 129.88C239.98 129.816 240.22 129.756 240.556 129.7C240.892 129.636 241.256 129.604 241.648 129.604ZM249.933 131.08C249.797 130.968 249.601 130.86 249.345 130.756C249.089 130.652 248.809 130.6 248.505 130.6C248.185 130.6 247.909 130.66 247.677 130.78C247.453 130.892 247.269 131.052 247.125 131.26C246.981 131.46 246.877 131.7 246.813 131.98C246.749 132.26 246.717 132.56 246.717 132.88C246.717 133.608 246.897 134.172 247.257 134.572C247.617 134.964 248.097 135.16 248.697 135.16C249.001 135.16 249.253 135.148 249.453 135.124C249.661 135.092 249.821 135.06 249.933 135.028V131.08ZM249.933 126.88L251.049 126.688V135.82C250.793 135.892 250.465 135.964 250.065 136.036C249.665 136.108 249.205 136.144 248.685 136.144C248.205 136.144 247.773 136.068 247.389 135.916C247.005 135.764 246.677 135.548 246.405 135.268C246.133 134.988 245.921 134.648 245.769 134.248C245.625 133.84 245.553 133.384 245.553 132.88C245.553 132.4 245.613 131.96 245.733 131.56C245.861 131.16 246.045 130.816 246.285 130.528C246.525 130.24 246.817 130.016 247.161 129.856C247.513 129.696 247.913 129.616 248.361 129.616C248.721 129.616 249.037 129.664 249.309 129.76C249.589 129.856 249.797 129.948 249.933 130.036V126.88ZM254.084 136H252.968V129.76H254.084V136ZM253.52 128.632C253.32 128.632 253.148 128.568 253.004 128.44C252.868 128.304 252.8 128.124 252.8 127.9C252.8 127.676 252.868 127.5 253.004 127.372C253.148 127.236 253.32 127.168 253.52 127.168C253.72 127.168 253.888 127.236 254.024 127.372C254.168 127.5 254.24 127.676 254.24 127.9C254.24 128.124 254.168 128.304 254.024 128.44C253.888 128.568 253.72 128.632 253.52 128.632ZM256.003 129.94C256.259 129.876 256.599 129.808 257.023 129.736C257.447 129.664 257.935 129.628 258.487 129.628C258.983 129.628 259.395 129.7 259.723 129.844C260.051 129.98 260.311 130.176 260.503 130.432C260.703 130.68 260.843 130.98 260.923 131.332C261.003 131.684 261.043 132.072 261.043 132.496V136H259.927V132.736C259.927 132.352 259.899 132.024 259.843 131.752C259.795 131.48 259.711 131.26 259.591 131.092C259.471 130.924 259.311 130.804 259.111 130.732C258.911 130.652 258.663 130.612 258.367 130.612C258.247 130.612 258.123 130.616 257.995 130.624C257.867 130.632 257.743 130.644 257.623 130.66C257.511 130.668 257.407 130.68 257.311 130.696C257.223 130.712 257.159 130.724 257.119 130.732V136H256.003V129.94ZM266.806 135.376C266.71 135.44 266.522 135.524 266.242 135.628C265.97 135.724 265.65 135.772 265.282 135.772C264.906 135.772 264.55 135.712 264.214 135.592C263.886 135.472 263.598 135.288 263.35 135.04C263.102 134.784 262.906 134.468 262.762 134.092C262.618 133.716 262.546 133.268 262.546 132.748C262.546 132.292 262.614 131.876 262.75 131.5C262.886 131.116 263.082 130.788 263.338 130.516C263.602 130.236 263.922 130.02 264.298 129.868C264.674 129.708 265.098 129.628 265.57 129.628C266.09 129.628 266.542 129.668 266.926 129.748C267.318 129.82 267.646 129.888 267.91 129.952V135.52C267.91 136.48 267.662 137.176 267.166 137.608C266.67 138.04 265.918 138.256 264.91 138.256C264.518 138.256 264.146 138.224 263.794 138.16C263.45 138.096 263.15 138.02 262.894 137.932L263.098 136.96C263.322 137.048 263.594 137.124 263.914 137.188C264.242 137.26 264.582 137.296 264.934 137.296C265.598 137.296 266.074 137.164 266.362 136.9C266.658 136.636 266.806 136.216 266.806 135.64V135.376ZM266.794 130.744C266.682 130.712 266.53 130.684 266.338 130.66C266.154 130.628 265.902 130.612 265.582 130.612C264.982 130.612 264.518 130.808 264.19 131.2C263.87 131.592 263.71 132.112 263.71 132.76C263.71 133.12 263.754 133.428 263.842 133.684C263.938 133.94 264.062 134.152 264.214 134.32C264.374 134.488 264.554 134.612 264.754 134.692C264.962 134.772 265.174 134.812 265.39 134.812C265.686 134.812 265.958 134.772 266.206 134.692C266.454 134.604 266.65 134.504 266.794 134.392V130.744ZM273.652 129.76H276.016V130.696H273.652V133.576C273.652 133.888 273.676 134.148 273.724 134.356C273.772 134.556 273.844 134.716 273.94 134.836C274.036 134.948 274.156 135.028 274.3 135.076C274.444 135.124 274.612 135.148 274.804 135.148C275.14 135.148 275.408 135.112 275.608 135.04C275.816 134.96 275.96 134.904 276.04 134.872L276.256 135.796C276.144 135.852 275.948 135.92 275.668 136C275.388 136.088 275.068 136.132 274.708 136.132C274.284 136.132 273.932 136.08 273.652 135.976C273.38 135.864 273.16 135.7 272.992 135.484C272.824 135.268 272.704 135.004 272.632 134.692C272.568 134.372 272.536 134.004 272.536 133.588V128.02L273.652 127.828V129.76ZM277.437 136V126.88L278.553 126.688V129.88C278.761 129.8 278.981 129.74 279.213 129.7C279.453 129.652 279.689 129.628 279.921 129.628C280.417 129.628 280.829 129.7 281.157 129.844C281.485 129.98 281.745 130.176 281.937 130.432C282.137 130.68 282.277 130.98 282.357 131.332C282.437 131.684 282.477 132.072 282.477 132.496V136H281.361V132.736C281.361 132.352 281.333 132.024 281.277 131.752C281.229 131.48 281.145 131.26 281.025 131.092C280.905 130.924 280.745 130.804 280.545 130.732C280.345 130.652 280.097 130.612 279.801 130.612C279.681 130.612 279.557 130.62 279.429 130.636C279.301 130.652 279.177 130.672 279.057 130.696C278.945 130.712 278.841 130.732 278.745 130.756C278.657 130.78 278.593 130.8 278.553 130.816V136H277.437ZM283.944 132.892C283.944 132.34 284.024 131.86 284.184 131.452C284.344 131.036 284.556 130.692 284.82 130.42C285.084 130.148 285.388 129.944 285.732 129.808C286.076 129.672 286.428 129.604 286.788 129.604C287.628 129.604 288.272 129.868 288.72 130.396C289.168 130.916 289.392 131.712 289.392 132.784C289.392 132.832 289.392 132.896 289.392 132.976C289.392 133.048 289.388 133.116 289.38 133.18H285.108C285.156 133.828 285.344 134.32 285.672 134.656C286 134.992 286.512 135.16 287.208 135.16C287.6 135.16 287.928 135.128 288.192 135.064C288.464 134.992 288.668 134.924 288.804 134.86L288.96 135.796C288.824 135.868 288.584 135.944 288.24 136.024C287.904 136.104 287.52 136.144 287.088 136.144C286.544 136.144 286.072 136.064 285.672 135.904C285.28 135.736 284.956 135.508 284.7 135.22C284.444 134.932 284.252 134.592 284.124 134.2C284.004 133.8 283.944 133.364 283.944 132.892ZM288.228 132.28C288.236 131.776 288.108 131.364 287.844 131.044C287.588 130.716 287.232 130.552 286.776 130.552C286.52 130.552 286.292 130.604 286.092 130.708C285.9 130.804 285.736 130.932 285.6 131.092C285.464 131.252 285.356 131.436 285.276 131.644C285.204 131.852 285.156 132.064 285.132 132.28H288.228ZM296.053 127.6C297.221 127.6 298.117 127.824 298.741 128.272C299.373 128.712 299.689 129.372 299.689 130.252C299.689 130.732 299.601 131.144 299.424 131.488C299.257 131.824 299.009 132.1 298.681 132.316C298.361 132.524 297.969 132.676 297.505 132.772C297.041 132.868 296.517 132.916 295.933 132.916H295.009V136H293.845V127.804C294.173 127.724 294.537 127.672 294.937 127.648C295.345 127.616 295.717 127.6 296.053 127.6ZM296.149 128.62C295.653 128.62 295.273 128.632 295.009 128.656V131.92H295.885C296.285 131.92 296.645 131.896 296.965 131.848C297.285 131.792 297.553 131.704 297.769 131.584C297.993 131.456 298.165 131.284 298.285 131.068C298.405 130.852 298.465 130.576 298.465 130.24C298.465 129.92 298.401 129.656 298.273 129.448C298.153 129.24 297.985 129.076 297.769 128.956C297.561 128.828 297.317 128.74 297.037 128.692C296.757 128.644 296.461 128.62 296.149 128.62ZM307.973 131.836C307.973 132.556 307.861 133.184 307.637 133.72C307.413 134.248 307.097 134.688 306.689 135.04C306.281 135.384 305.793 135.644 305.225 135.82C304.657 135.988 304.033 136.072 303.353 136.072C303.017 136.072 302.645 136.056 302.237 136.024C301.837 136 301.473 135.948 301.145 135.868V127.804C301.473 127.724 301.837 127.672 302.237 127.648C302.645 127.616 303.017 127.6 303.353 127.6C304.033 127.6 304.657 127.688 305.225 127.864C305.793 128.032 306.281 128.292 306.689 128.644C307.097 128.988 307.413 129.428 307.637 129.964C307.861 130.492 307.973 131.116 307.973 131.836ZM303.449 135.052C304.553 135.052 305.377 134.772 305.921 134.212C306.465 133.644 306.737 132.852 306.737 131.836C306.737 130.82 306.465 130.032 305.921 129.472C305.377 128.904 304.553 128.62 303.449 128.62C303.121 128.62 302.865 128.624 302.681 128.632C302.505 128.64 302.381 128.648 302.309 128.656V135.016C302.381 135.024 302.505 135.032 302.681 135.04C302.865 135.048 303.121 135.052 303.449 135.052ZM309.7 136V127.684H314.716V128.68H310.864V131.188H314.284V132.172H310.864V136H309.7Z" fill="#F5F7FF"/>
<rect x="332" y="120" width="92" height="24" rx="12" fill="white"/>
<path opacity="0.8" d="M347.304 135.222C347.407 135.231 347.523 135.241 347.654 135.25C347.794 135.25 347.957 135.25 348.144 135.25C349.236 135.25 350.043 134.975 350.566 134.424C351.098 133.873 351.364 133.113 351.364 132.142C351.364 131.125 351.112 130.355 350.608 129.832C350.104 129.309 349.306 129.048 348.214 129.048C348.065 129.048 347.911 129.053 347.752 129.062C347.593 129.062 347.444 129.071 347.304 129.09V135.222ZM353.618 132.142C353.618 132.982 353.487 133.715 353.226 134.34C352.965 134.965 352.591 135.483 352.106 135.894C351.63 136.305 351.047 136.613 350.356 136.818C349.665 137.023 348.891 137.126 348.032 137.126C347.64 137.126 347.183 137.107 346.66 137.07C346.137 137.042 345.624 136.977 345.12 136.874V127.424C345.624 127.331 346.147 127.27 346.688 127.242C347.239 127.205 347.71 127.186 348.102 127.186C348.933 127.186 349.684 127.279 350.356 127.466C351.037 127.653 351.621 127.947 352.106 128.348C352.591 128.749 352.965 129.263 353.226 129.888C353.487 130.513 353.618 131.265 353.618 132.142ZM362.19 133.304C362.19 133.883 362.106 134.415 361.938 134.9C361.77 135.376 361.528 135.787 361.21 136.132C360.893 136.468 360.51 136.729 360.062 136.916C359.624 137.103 359.129 137.196 358.578 137.196C358.037 137.196 357.542 137.103 357.094 136.916C356.656 136.729 356.278 136.468 355.96 136.132C355.643 135.787 355.396 135.376 355.218 134.9C355.041 134.415 354.952 133.883 354.952 133.304C354.952 132.725 355.041 132.198 355.218 131.722C355.405 131.246 355.657 130.84 355.974 130.504C356.301 130.168 356.684 129.907 357.122 129.72C357.57 129.533 358.056 129.44 358.578 129.44C359.11 129.44 359.596 129.533 360.034 129.72C360.482 129.907 360.865 130.168 361.182 130.504C361.5 130.84 361.747 131.246 361.924 131.722C362.102 132.198 362.19 132.725 362.19 133.304ZM360.062 133.304C360.062 132.66 359.932 132.156 359.67 131.792C359.418 131.419 359.054 131.232 358.578 131.232C358.102 131.232 357.734 131.419 357.472 131.792C357.211 132.156 357.08 132.66 357.08 133.304C357.08 133.948 357.211 134.461 357.472 134.844C357.734 135.217 358.102 135.404 358.578 135.404C359.054 135.404 359.418 135.217 359.67 134.844C359.932 134.461 360.062 133.948 360.062 133.304ZM368.122 132.772C367.935 133.481 367.735 134.186 367.52 134.886C367.315 135.586 367.095 136.291 366.862 137H365.238C365.07 136.608 364.888 136.141 364.692 135.6C364.496 135.059 364.291 134.471 364.076 133.836C363.871 133.192 363.656 132.515 363.432 131.806C363.217 131.087 363.007 130.364 362.802 129.636H365C365.075 129.972 365.154 130.341 365.238 130.742C365.331 131.134 365.425 131.54 365.518 131.96C365.621 132.38 365.723 132.805 365.826 133.234C365.938 133.654 366.05 134.06 366.162 134.452C366.283 134.041 366.4 133.621 366.512 133.192C366.633 132.763 366.745 132.343 366.848 131.932C366.96 131.512 367.063 131.111 367.156 130.728C367.259 130.336 367.347 129.972 367.422 129.636H368.934C369.009 129.972 369.093 130.336 369.186 130.728C369.279 131.111 369.377 131.512 369.48 131.932C369.583 132.343 369.69 132.763 369.802 133.192C369.914 133.621 370.031 134.041 370.152 134.452C370.264 134.06 370.376 133.654 370.488 133.234C370.6 132.805 370.703 132.38 370.796 131.96C370.899 131.54 370.992 131.134 371.076 130.742C371.169 130.341 371.253 129.972 371.328 129.636H373.498C373.293 130.364 373.078 131.087 372.854 131.806C372.639 132.515 372.425 133.192 372.21 133.836C372.005 134.471 371.799 135.059 371.594 135.6C371.398 136.141 371.216 136.608 371.048 137H369.424C369.191 136.291 368.962 135.586 368.738 134.886C368.514 134.186 368.309 133.481 368.122 132.772ZM374.621 129.888C374.975 129.785 375.433 129.692 375.993 129.608C376.553 129.515 377.141 129.468 377.757 129.468C378.382 129.468 378.9 129.552 379.311 129.72C379.731 129.879 380.062 130.107 380.305 130.406C380.547 130.705 380.72 131.059 380.823 131.47C380.925 131.881 380.977 132.338 380.977 132.842V137H378.891V133.094C378.891 132.422 378.802 131.946 378.625 131.666C378.447 131.386 378.116 131.246 377.631 131.246C377.481 131.246 377.323 131.255 377.155 131.274C376.987 131.283 376.837 131.297 376.707 131.316V137H374.621V129.888ZM385.805 137.14C385.198 137.131 384.703 137.065 384.321 136.944C383.947 136.823 383.649 136.655 383.425 136.44C383.21 136.216 383.061 135.95 382.977 135.642C382.902 135.325 382.865 134.97 382.865 134.578V126.472L384.951 126.136V134.158C384.951 134.345 384.965 134.513 384.993 134.662C385.021 134.811 385.072 134.937 385.147 135.04C385.231 135.143 385.347 135.227 385.497 135.292C385.646 135.357 385.847 135.399 386.099 135.418L385.805 137.14ZM394.182 133.304C394.182 133.883 394.098 134.415 393.93 134.9C393.762 135.376 393.52 135.787 393.202 136.132C392.885 136.468 392.502 136.729 392.054 136.916C391.616 137.103 391.121 137.196 390.57 137.196C390.029 137.196 389.534 137.103 389.086 136.916C388.648 136.729 388.27 136.468 387.952 136.132C387.635 135.787 387.388 135.376 387.21 134.9C387.033 134.415 386.944 133.883 386.944 133.304C386.944 132.725 387.033 132.198 387.21 131.722C387.397 131.246 387.649 130.84 387.966 130.504C388.293 130.168 388.676 129.907 389.114 129.72C389.562 129.533 390.048 129.44 390.57 129.44C391.102 129.44 391.588 129.533 392.026 129.72C392.474 129.907 392.857 130.168 393.174 130.504C393.492 130.84 393.739 131.246 393.916 131.722C394.094 132.198 394.182 132.725 394.182 133.304ZM392.054 133.304C392.054 132.66 391.924 132.156 391.662 131.792C391.41 131.419 391.046 131.232 390.57 131.232C390.094 131.232 389.726 131.419 389.464 131.792C389.203 132.156 389.072 132.66 389.072 133.304C389.072 133.948 389.203 134.461 389.464 134.844C389.726 135.217 390.094 135.404 390.57 135.404C391.046 135.404 391.41 135.217 391.662 134.844C391.924 134.461 392.054 133.948 392.054 133.304ZM398.612 135.544C398.818 135.544 399.014 135.539 399.2 135.53C399.387 135.521 399.536 135.507 399.648 135.488V133.906C399.564 133.887 399.438 133.869 399.27 133.85C399.102 133.831 398.948 133.822 398.808 133.822C398.612 133.822 398.426 133.836 398.248 133.864C398.08 133.883 397.931 133.925 397.8 133.99C397.67 134.055 397.567 134.144 397.492 134.256C397.418 134.368 397.38 134.508 397.38 134.676C397.38 135.003 397.488 135.231 397.702 135.362C397.926 135.483 398.23 135.544 398.612 135.544ZM398.444 129.44C399.06 129.44 399.574 129.51 399.984 129.65C400.395 129.79 400.722 129.991 400.964 130.252C401.216 130.513 401.394 130.831 401.496 131.204C401.599 131.577 401.65 131.993 401.65 132.45V136.79C401.352 136.855 400.936 136.93 400.404 137.014C399.872 137.107 399.228 137.154 398.472 137.154C397.996 137.154 397.562 137.112 397.17 137.028C396.788 136.944 396.456 136.809 396.176 136.622C395.896 136.426 395.682 136.174 395.532 135.866C395.383 135.558 395.308 135.18 395.308 134.732C395.308 134.303 395.392 133.939 395.56 133.64C395.738 133.341 395.971 133.103 396.26 132.926C396.55 132.749 396.881 132.623 397.254 132.548C397.628 132.464 398.015 132.422 398.416 132.422C398.687 132.422 398.925 132.436 399.13 132.464C399.345 132.483 399.518 132.511 399.648 132.548V132.352C399.648 131.997 399.541 131.713 399.326 131.498C399.112 131.283 398.738 131.176 398.206 131.176C397.852 131.176 397.502 131.204 397.156 131.26C396.811 131.307 396.512 131.377 396.26 131.47L395.994 129.79C396.116 129.753 396.265 129.715 396.442 129.678C396.629 129.631 396.83 129.594 397.044 129.566C397.259 129.529 397.483 129.501 397.716 129.482C397.959 129.454 398.202 129.44 398.444 129.44ZM405.315 133.262C405.315 133.906 405.459 134.424 405.749 134.816C406.038 135.208 406.467 135.404 407.037 135.404C407.223 135.404 407.396 135.399 407.555 135.39C407.713 135.371 407.844 135.353 407.947 135.334V131.54C407.816 131.456 407.643 131.386 407.429 131.33C407.223 131.274 407.013 131.246 406.799 131.246C405.809 131.246 405.315 131.918 405.315 133.262ZM410.033 136.762C409.846 136.818 409.631 136.874 409.389 136.93C409.146 136.977 408.889 137.019 408.619 137.056C408.357 137.093 408.087 137.121 407.807 137.14C407.536 137.168 407.275 137.182 407.023 137.182C406.416 137.182 405.875 137.093 405.399 136.916C404.923 136.739 404.521 136.487 404.195 136.16C403.868 135.824 403.616 135.423 403.439 134.956C403.271 134.48 403.187 133.948 403.187 133.36C403.187 132.763 403.261 132.226 403.411 131.75C403.56 131.265 403.775 130.854 404.055 130.518C404.335 130.182 404.675 129.925 405.077 129.748C405.487 129.571 405.954 129.482 406.477 129.482C406.766 129.482 407.023 129.51 407.247 129.566C407.48 129.622 407.713 129.701 407.947 129.804V126.472L410.033 126.136V136.762Z" fill="#ED6033"/>
<path d="M1172.02 114.936L1163.65 123.307" stroke="white" stroke-width="1.22112" stroke-linecap="round" stroke-linejoin="round"/>
<path d="M1172.02 123.114V114.936H1163.84" stroke="white" stroke-width="1.22112" stroke-linecap="round" stroke-linejoin="round"/>
<path d="M1080.98 108.007V98.5091H1082.71V106.65H1086.92V108.007H1080.98ZM1091.37 108.17C1090.7 108.17 1090.09 108.025 1089.57 107.735C1089.04 107.446 1088.63 107.039 1088.33 106.514C1088.04 105.99 1087.89 105.384 1087.89 104.696C1087.89 104 1088.03 103.38 1088.32 102.837C1088.62 102.295 1089.03 101.874 1089.54 101.575C1090.07 101.268 1090.68 101.114 1091.39 101.114C1092.05 101.114 1092.63 101.259 1093.14 101.548C1093.64 101.838 1094.04 102.236 1094.32 102.742C1094.61 103.24 1094.75 103.796 1094.75 104.411C1094.75 104.511 1094.75 104.615 1094.74 104.723C1094.74 104.832 1094.73 104.945 1094.73 105.062H1089.61C1089.65 105.587 1089.83 105.999 1090.15 106.297C1090.49 106.596 1090.89 106.745 1091.36 106.745C1091.71 106.745 1092.01 106.668 1092.24 106.514C1092.49 106.351 1092.67 106.143 1092.78 105.89H1094.55C1094.42 106.315 1094.21 106.704 1093.91 107.057C1093.62 107.401 1093.26 107.672 1092.83 107.871C1092.4 108.07 1091.92 108.17 1091.37 108.17ZM1091.39 102.525C1090.96 102.525 1090.59 102.647 1090.26 102.892C1089.94 103.127 1089.73 103.489 1089.64 103.977H1092.99C1092.96 103.534 1092.8 103.181 1092.5 102.919C1092.2 102.656 1091.83 102.525 1091.39 102.525ZM1098.53 108.17C1097.95 108.17 1097.48 108.079 1097.11 107.898C1096.74 107.708 1096.46 107.459 1096.28 107.152C1096.1 106.844 1096.01 106.505 1096.01 106.134C1096.01 105.51 1096.25 105.004 1096.74 104.615C1097.23 104.226 1097.96 104.031 1098.94 104.031H1100.65V103.868C1100.65 103.407 1100.52 103.068 1100.26 102.851C1099.99 102.634 1099.67 102.525 1099.28 102.525C1098.93 102.525 1098.62 102.611 1098.36 102.783C1098.09 102.946 1097.93 103.19 1097.87 103.516H1096.17C1096.22 103.027 1096.38 102.602 1096.66 102.24C1096.95 101.878 1097.32 101.603 1097.77 101.413C1098.23 101.214 1098.73 101.114 1099.29 101.114C1100.25 101.114 1101.01 101.354 1101.56 101.833C1102.11 102.313 1102.39 102.991 1102.39 103.868V108.007H1100.91L1100.74 106.921C1100.55 107.283 1100.27 107.582 1099.9 107.817C1099.55 108.052 1099.09 108.17 1098.53 108.17ZM1098.93 106.813C1099.42 106.813 1099.81 106.65 1100.08 106.324C1100.36 105.999 1100.54 105.596 1100.61 105.117H1099.13C1098.67 105.117 1098.34 105.203 1098.14 105.375C1097.94 105.537 1097.84 105.741 1097.84 105.985C1097.84 106.247 1097.94 106.451 1098.14 106.596C1098.34 106.74 1098.6 106.813 1098.93 106.813ZM1104.04 108.007V101.277H1105.59L1105.75 102.539C1106 102.105 1106.33 101.761 1106.74 101.508C1107.17 101.245 1107.67 101.114 1108.24 101.114V102.946H1107.75C1107.37 102.946 1107.03 103.005 1106.73 103.122C1106.43 103.24 1106.2 103.443 1106.02 103.733C1105.86 104.022 1105.78 104.425 1105.78 104.94V108.007H1104.04ZM1109.42 108.007V101.277H1110.96L1111.09 102.417C1111.3 102.019 1111.6 101.702 1111.99 101.467C1112.39 101.232 1112.85 101.114 1113.39 101.114C1114.22 101.114 1114.86 101.376 1115.33 101.901C1115.79 102.426 1116.02 103.195 1116.02 104.208V108.007H1114.28V104.37C1114.28 103.792 1114.16 103.348 1113.93 103.041C1113.69 102.733 1113.33 102.58 1112.83 102.58C1112.34 102.58 1111.94 102.751 1111.62 103.095C1111.31 103.439 1111.16 103.918 1111.16 104.533V108.007H1109.42ZM1080.94 123.007V116.277H1082.47L1082.62 117.186C1082.84 116.86 1083.12 116.603 1083.47 116.413C1083.83 116.214 1084.25 116.114 1084.72 116.114C1085.76 116.114 1086.5 116.517 1086.93 117.322C1087.18 116.951 1087.5 116.657 1087.91 116.44C1088.33 116.223 1088.78 116.114 1089.27 116.114C1090.14 116.114 1090.82 116.376 1091.29 116.901C1091.76 117.426 1091.99 118.195 1091.99 119.208V123.007H1090.26V119.37C1090.26 118.792 1090.14 118.348 1089.92 118.041C1089.7 117.733 1089.36 117.58 1088.9 117.58C1088.43 117.58 1088.05 117.751 1087.76 118.095C1087.48 118.439 1087.34 118.918 1087.34 119.533V123.007H1085.6V119.37C1085.6 118.792 1085.49 118.348 1085.26 118.041C1085.04 117.733 1084.69 117.58 1084.22 117.58C1083.76 117.58 1083.38 117.751 1083.09 118.095C1082.81 118.439 1082.67 118.918 1082.67 119.533V123.007H1080.94ZM1096.87 123.17C1096.22 123.17 1095.63 123.02 1095.11 122.722C1094.59 122.423 1094.18 122.012 1093.87 121.487C1093.57 120.953 1093.43 120.338 1093.43 119.642C1093.43 118.945 1093.58 118.335 1093.89 117.81C1094.19 117.276 1094.61 116.86 1095.12 116.562C1095.65 116.263 1096.23 116.114 1096.89 116.114C1097.53 116.114 1098.11 116.263 1098.62 116.562C1099.15 116.86 1099.56 117.276 1099.86 117.81C1100.16 118.335 1100.32 118.945 1100.32 119.642C1100.32 120.338 1100.16 120.953 1099.86 121.487C1099.56 122.012 1099.15 122.423 1098.62 122.722C1098.1 123.02 1097.51 123.17 1096.87 123.17ZM1096.87 121.663C1097.32 121.663 1097.72 121.496 1098.05 121.161C1098.39 120.818 1098.55 120.311 1098.55 119.642C1098.55 118.972 1098.39 118.47 1098.05 118.136C1097.72 117.792 1097.33 117.62 1096.89 117.62C1096.42 117.62 1096.03 117.792 1095.69 118.136C1095.37 118.47 1095.2 118.972 1095.2 119.642C1095.2 120.311 1095.37 120.818 1095.69 121.161C1096.03 121.496 1096.42 121.663 1096.87 121.663ZM1101.87 123.007V116.277H1103.42L1103.58 117.539C1103.82 117.105 1104.15 116.761 1104.57 116.508C1105 116.245 1105.49 116.114 1106.06 116.114V117.946H1105.57C1105.19 117.946 1104.86 118.005 1104.56 118.122C1104.26 118.24 1104.02 118.443 1103.85 118.733C1103.69 119.022 1103.61 119.425 1103.61 119.94V123.007H1101.87ZM1110.4 123.17C1109.72 123.17 1109.12 123.025 1108.6 122.735C1108.07 122.446 1107.66 122.039 1107.36 121.514C1107.06 120.99 1106.91 120.384 1106.91 119.696C1106.91 119 1107.06 118.38 1107.35 117.837C1107.65 117.295 1108.05 116.874 1108.57 116.575C1109.09 116.268 1109.71 116.114 1110.41 116.114C1111.07 116.114 1111.66 116.259 1112.16 116.548C1112.67 116.838 1113.06 117.236 1113.35 117.742C1113.63 118.24 1113.78 118.796 1113.78 119.411C1113.78 119.511 1113.77 119.615 1113.77 119.723C1113.77 119.832 1113.76 119.945 1113.75 120.062H1108.64C1108.67 120.587 1108.85 120.999 1109.18 121.297C1109.51 121.596 1109.92 121.745 1110.39 121.745C1110.74 121.745 1111.03 121.668 1111.27 121.514C1111.51 121.351 1111.69 121.143 1111.81 120.89H1113.58C1113.45 121.315 1113.24 121.704 1112.94 122.057C1112.65 122.401 1112.29 122.672 1111.85 122.871C1111.43 123.07 1110.94 123.17 1110.4 123.17ZM1110.41 117.525C1109.99 117.525 1109.61 117.647 1109.29 117.892C1108.96 118.127 1108.75 118.489 1108.66 118.977H1112.02C1111.99 118.534 1111.83 118.181 1111.53 117.919C1111.23 117.656 1110.86 117.525 1110.41 117.525ZM1118.47 123.007V116.277H1120.01L1120.14 117.417C1120.35 117.019 1120.65 116.702 1121.04 116.467C1121.44 116.232 1121.9 116.114 1122.43 116.114C1123.27 116.114 1123.91 116.376 1124.38 116.901C1124.84 117.426 1125.07 118.195 1125.07 119.208V123.007H1123.33V119.37C1123.33 118.792 1123.21 118.348 1122.98 118.041C1122.74 117.733 1122.38 117.58 1121.88 117.58C1121.39 117.58 1120.99 117.751 1120.67 118.095C1120.36 118.439 1120.21 118.918 1120.21 119.533V123.007H1118.47ZM1129.96 123.17C1129.31 123.17 1128.72 123.02 1128.19 122.722C1127.68 122.423 1127.27 122.012 1126.96 121.487C1126.66 120.953 1126.51 120.338 1126.51 119.642C1126.51 118.945 1126.66 118.335 1126.97 117.81C1127.28 117.276 1127.69 116.86 1128.21 116.562C1128.73 116.263 1129.32 116.114 1129.97 116.114C1130.61 116.114 1131.19 116.263 1131.71 116.562C1132.23 116.86 1132.64 117.276 1132.94 117.81C1133.25 118.335 1133.4 118.945 1133.4 119.642C1133.4 120.338 1133.25 120.953 1132.94 121.487C1132.64 122.012 1132.23 122.423 1131.71 122.722C1131.18 123.02 1130.6 123.17 1129.96 123.17ZM1129.96 121.663C1130.41 121.663 1130.8 121.496 1131.14 121.161C1131.47 120.818 1131.64 120.311 1131.64 119.642C1131.64 118.972 1131.47 118.47 1131.14 118.136C1130.8 117.792 1130.41 117.62 1129.97 117.62C1129.51 117.62 1129.11 117.792 1128.78 118.136C1128.45 118.47 1128.29 118.972 1128.29 119.642C1128.29 120.311 1128.45 120.818 1128.78 121.161C1129.11 121.496 1129.5 121.663 1129.96 121.663ZM1136.03 123.007L1134.07 116.277H1135.79L1136.96 121.121L1138.31 116.277H1140.24L1141.6 121.121L1142.78 116.277H1144.5L1142.52 123.007H1140.71L1139.28 117.973L1137.84 123.007H1136.03Z" fill="white"/>
<rect x="1064.51" y="64.1453" width="168.761" height="75.7094" rx="8.9888" stroke="white" stroke-width="1.0176"/>
</svg>
