<svg width="17" height="17" viewBox="0 0 17 17" fill="none" xmlns="http://www.w3.org/2000/svg">
<path fill-rule="evenodd" clip-rule="evenodd" d="M3.47674 10.3605C3.47674 10.0522 3.72662 9.80234 4.03488 9.80234H9.98835C10.2966 9.80234 10.5465 10.0522 10.5465 10.3605C10.5465 10.6687 10.2966 10.9186 9.98835 10.9186H4.03488C3.72662 10.9186 3.47674 10.6687 3.47674 10.3605Z" fill="#777D94"/>
<path fill-rule="evenodd" clip-rule="evenodd" d="M3.47674 12.9651C3.47674 12.6569 3.72662 12.407 4.03488 12.407H8.12789C8.43614 12.407 8.68603 12.6569 8.68603 12.9651C8.68603 13.2734 8.43614 13.5233 8.12789 13.5233H4.03488C3.72662 13.5233 3.47674 13.2734 3.47674 12.9651Z" fill="#777D94"/>
<path fill-rule="evenodd" clip-rule="evenodd" d="M8.68603 1.67895C8.3434 1.62073 7.87634 1.61631 7.03378 1.61631C5.60742 1.61631 4.59357 1.61749 3.8249 1.72036C3.07187 1.82115 2.63918 2.01019 2.32467 2.32471C2.00972 2.63965 1.82095 3.07101 1.72028 3.81973C1.61746 4.5845 1.61628 5.59262 1.61628 7.01165V9.98839C1.61628 11.4074 1.61746 12.4155 1.72028 13.1803C1.82095 13.929 2.00972 14.3604 2.32467 14.6753C2.63961 14.9903 3.07098 15.1791 3.81969 15.2797C4.58447 15.3825 5.59259 15.3837 7.01161 15.3837H9.98835C11.4074 15.3837 12.4155 15.3825 13.1803 15.2797C13.929 15.1791 14.3603 14.9903 14.6753 14.6753C14.9902 14.3604 15.179 13.929 15.2797 13.1803C15.3825 12.4155 15.3837 11.4074 15.3837 9.98839V9.6631C15.3837 8.52003 15.3757 7.97815 15.2543 7.56979H12.9251C12.0821 7.56981 11.3932 7.56982 10.8493 7.4967C10.2808 7.42026 9.78786 7.25484 9.39442 6.8614C9.00097 6.46795 8.83556 5.97505 8.75912 5.40653C8.68599 4.86263 8.68601 4.17372 8.68603 3.33068V1.67895ZM9.8023 2.2559V3.29073C9.8023 4.18354 9.80349 4.79699 9.86544 5.25779C9.92523 5.70253 10.0323 5.9206 10.1837 6.07207C10.3352 6.22354 10.5533 6.33058 10.998 6.39037C11.4588 6.45233 12.0723 6.45351 12.9651 6.45351H14.4679C14.2473 6.23952 13.9647 5.98313 13.5976 5.65278L10.6516 3.00133C10.2904 2.67624 10.0215 2.43627 9.8023 2.2559ZM7.14218 0.500019C8.17258 0.499743 8.83829 0.499565 9.45099 0.734681C10.0637 0.969795 10.5563 1.41337 11.3184 2.09966C11.3447 2.12335 11.3714 2.14734 11.3983 2.17161L14.3444 4.82306C14.3758 4.85128 14.4067 4.87915 14.4373 4.90668C15.3182 5.69897 15.8878 6.2113 16.1942 6.89925C16.5006 7.5872 16.5003 8.35331 16.5 9.53806C16.5 9.57923 16.5 9.62091 16.5 9.6631V10.0304C16.5 11.398 16.5 12.4813 16.386 13.329C16.2687 14.2015 16.0215 14.9077 15.4646 15.4647C14.9077 16.0216 14.2015 16.2687 13.329 16.386C12.4812 16.5 11.398 16.5 10.0303 16.5H6.96963C5.602 16.5 4.51874 16.5 3.67095 16.386C2.79845 16.2687 2.09226 16.0216 1.53534 15.4647C0.978421 14.9077 0.731265 14.2015 0.613961 13.329C0.499979 12.4813 0.499988 11.398 0.5 10.0304V6.96967C0.499988 5.60203 0.499979 4.51877 0.613961 3.67099C0.731265 2.79849 0.978421 2.0923 1.53534 1.53538C2.0927 0.978024 2.80125 0.731137 3.67683 0.613954C4.52814 0.500017 5.61679 0.500026 6.9919 0.500037L7.03378 0.500038C7.07036 0.500038 7.10649 0.500028 7.14218 0.500019Z" fill="#777D94"/>
</svg>
