<svg width="10" height="10" viewBox="0 0 13 14" fill="white" xmlns="http://www.w3.org/2000/svg">
<path d="M2.19995 1.84995C2.19995 1.57039 2.19995 1.4306 2.24562 1.32034C2.30652 1.17332 2.42332 1.05652 2.57034 0.995623C2.6806 0.949951 2.82039 0.949951 3.09995 0.949951H8.49995C8.77952 0.949951 8.9193 0.949951 9.02956 0.995623C9.17658 1.05652 9.29338 1.17332 9.35428 1.32034C9.39995 1.4306 9.39995 1.57039 9.39995 1.84995C9.39995 2.12952 9.39995 2.2693 9.35428 2.37956C9.29338 2.52658 9.17658 2.64338 9.02956 2.70428C8.9193 2.74995 8.77952 2.74995 8.49995 2.74995H3.09995C2.82039 2.74995 2.6806 2.74995 2.57034 2.70428C2.42332 2.64338 2.30652 2.52658 2.24562 2.37956C2.19995 2.2693 2.19995 2.12952 2.19995 1.84995Z" stroke="#1C274C"/>
<path d="M1.30005 10.5499H6.10005" stroke="#1C274C" stroke-linecap="round"/>
<path d="M1.30005 5.75H10.3" stroke="#1C274C" stroke-linecap="round"/>
<path d="M6.1 12.95H3.97416C3.63149 12.95 3.46016 12.95 3.29774 12.9277C2.81597 12.8616 2.36565 12.6507 2.00643 12.3229C1.88532 12.2124 1.77563 12.0808 1.55627 11.8175C1.19684 11.3862 1 10.8425 1 10.2811V6.3035C1 5.57442 1.33142 4.88487 1.90073 4.42941L3.34261 3.27591C3.66813 3.0155 3.83089 2.88529 4.02373 2.81765C4.21657 2.75 4.42501 2.75 4.84187 2.75H6.78562C7.20628 2.75 7.41661 2.75 7.61094 2.8188C7.80527 2.8876 7.96874 3.01994 8.2957 3.28461L9.71008 4.42959C10.273 4.88526 10.6 5.57075 10.6 6.29497V7.25" stroke="#1C274C" stroke-linecap="round"/>
<path d="M5.79998 6.94995V9.34995M4.59998 8.14995L6.99998 8.14995" stroke="#1C274C" stroke-linecap="round"/>
<path d="M8.66356 9.81359C8.66356 9.81359 9.25888 9.93999 9.93448 10.6156C10.6101 11.2912 10.7364 11.8864 10.7364 11.8864M11.3582 9.19174C11.9306 9.76413 11.9492 10.6736 11.3997 11.2231L10.0731 12.5497C9.52359 13.0992 8.61411 13.0807 8.04172 12.5083C7.46932 11.9359 7.45076 11.0264 8.00026 10.4769L9.32687 9.15028C9.87637 8.60078 10.7858 8.61934 11.3582 9.19174Z" stroke="#1C274C"/>
</svg>
