<svg width="8" height="8" viewBox="0 0 12 13" fill="white" xmlns="http://www.w3.org/2000/svg">
<path d="M4.93429 11.9372C2.87091 11.051 1.31177 7.33308 1.31177 5.14096C1.31177 2.83557 3.18938 0.949951 5.48497 0.949951H6.18161C8.4772 0.949951 10.3548 2.83557 10.3548 5.14096C10.3548 7.39305 8.70277 11.2642 6.55315 12.0038" stroke="#263558" stroke-miterlimit="10" stroke-linecap="round"/>
<path d="M1.35827 5.85388L1.31182 6.82001C1.13932 6.82001 1 6.95994 1 7.13317C1 7.51296 1.18577 7.87276 1.50423 8.08598L2.10799 8.49908" stroke="#263558" stroke-miterlimit="10" stroke-linecap="round"/>
<path d="M10.3084 5.85388L10.3549 6.82001C10.5274 6.82001 10.6667 6.95994 10.6667 7.13317C10.6667 7.51296 10.4809 7.87276 10.1625 8.08598L9.55872 8.49908" stroke="#263558" stroke-miterlimit="10" stroke-linecap="round"/>
<path d="M2.45959 6.04042L3.50787 4.90105C3.68037 4.71449 3.79315 4.48795 3.83296 4.23476L4.01873 3.16868C4.05854 2.9488 4.33719 2.88884 4.46325 3.06207L4.90114 3.66174C5.13999 3.98823 5.51816 4.17479 5.91624 4.17479H7.69433C8.49049 4.17479 9.14068 4.82776 9.14068 5.62732V6.04042" stroke="#263558" stroke-miterlimit="10" stroke-linecap="round"/>
<path d="M4.21119 11.5041C4.21119 11.5041 3.70695 10.7578 4.20455 9.85168C4.80831 8.74562 5.25283 7.93274 5.83668 7.93274" stroke="#263558" stroke-miterlimit="10" stroke-linecap="round"/>
<path d="M7.46207 11.4974C7.46207 11.4974 7.95967 10.7578 7.46207 9.85168C6.85832 8.74562 6.3939 7.93274 5.82996 7.93274" stroke="#263558" stroke-miterlimit="10" stroke-linecap="round"/>
<path d="M4.91441 6.54688C4.91441 6.82688 4.73528 7.06021 4.26422 7.06021C3.80643 7.06021 3.61401 6.83354 3.61401 6.54688" stroke="#263558" stroke-miterlimit="10" stroke-linecap="round"/>
<path d="M8.05258 6.54688C8.05258 6.82688 7.87345 7.06021 7.40239 7.06021C6.9446 7.06021 6.7522 6.83354 6.7522 6.54688" stroke="#263558" stroke-miterlimit="10" stroke-linecap="round"/>
</svg>
