<svg width="13" height="13" viewBox="0 0 13 13" fill="white" xmlns="http://www.w3.org/2000/svg">
<path d="M10.873 12.4212V6.3877" stroke="#263558" stroke-width="1.1" stroke-linecap="round"/>
<path d="M10.6687 12.4487H4.09705C2.99248 12.4487 2.09705 11.5532 2.09705 10.4487V6.3877" stroke="#263558" stroke-width="1.1" stroke-linecap="round"/>
<path d="M8.96852 1.45117H4.00148C3.34173 1.45117 3.01186 1.45117 2.74676 1.61501C2.48167 1.77885 2.33415 2.07389 2.0391 2.66399L2.0391 2.66399L1.49081 4.04998C1.16652 4.86974 0.889315 6.01359 1.71602 6.31974C1.83468 6.36369 1.96301 6.38769 2.09696 6.38769C2.70282 6.38769 3.19396 5.89655 3.19396 5.29069C3.19396 5.89655 3.68511 6.38769 4.29097 6.38769C4.89683 6.38769 5.38797 5.89655 5.38797 5.29069C5.38797 5.89655 5.87912 6.38769 6.48498 6.38769C7.09084 6.38769 7.58198 5.89655 7.58198 5.29069C7.58198 5.89655 8.07313 6.38769 8.67899 6.38769C9.28485 6.38769 9.77599 5.89655 9.77599 5.29069C9.77599 5.89655 10.2671 6.38769 10.873 6.38769C11.0069 6.38769 11.1353 6.36368 11.254 6.31973C12.0807 6.01357 11.8035 4.86974 11.4792 4.04998L10.9309 2.66399C10.6359 2.07389 10.4883 1.77885 10.2232 1.61501C9.95814 1.45117 9.62827 1.45117 8.96852 1.45117Z" stroke="#263558" stroke-width="1.1" stroke-linejoin="round"/>
<path d="M5.11377 12.147V10.5015C5.11377 9.98887 5.11377 9.73255 5.224 9.54163C5.29621 9.41655 5.40007 9.31269 5.52515 9.24048C5.71607 9.13025 5.97239 9.13025 6.48503 9.13025C6.99766 9.13025 7.25398 9.13025 7.4449 9.24048C7.56998 9.31269 7.67384 9.41655 7.74605 9.54163C7.85628 9.73255 7.85628 9.98887 7.85628 10.5015V12.147" stroke="#263558" stroke-width="1.1" stroke-linecap="round"/>
</svg>
