<svg width="1" height="1" viewBox="0 0 14 14" fill="white" xmlns="http://www.w3.org/2000/svg">
<path d="M10.5067 3.44321C10.5067 3.44321 10.2471 4.78992 8.7434 6.29359C7.23974 7.79726 5.89326 8.05661 5.89326 8.05661M12.0445 9.59442C10.7705 10.8684 8.70501 10.8684 7.43106 9.59442L4.35546 6.51882C3.08151 5.24486 3.08151 3.17937 4.35546 1.90542C5.62942 0.631462 7.6949 0.631462 8.96886 1.90542L12.0445 4.98102C13.3184 6.25497 13.3184 8.32046 12.0445 9.59442Z" stroke="#263558"/>
<path d="M8.49994 3.64987L7.59995 2.74988" stroke="white" stroke-linecap="round"/>
<path d="M3.83811 5.83081C2.21581 6.18035 1 7.6232 1 9.35001C1 11.3382 2.61176 12.95 4.59997 12.95C6.33462 12.95 7.78272 11.7231 8.12387 10.0898" stroke="#263558"/>
</svg>
