<svg width="14" height="16" viewBox="0 0 14 16" fill="none" xmlns="http://www.w3.org/2000/svg">
<path fill-rule="evenodd" clip-rule="evenodd" d="M7.01173 0C5.05947 0 3.47684 1.58262 3.47684 3.53488C3.47684 5.48715 5.05947 7.06977 7.01173 7.06977C8.96399 7.06977 10.5466 5.48715 10.5466 3.53488C10.5466 1.58262 8.96399 0 7.01173 0ZM4.59312 3.53488C4.59312 2.19913 5.67597 1.11628 7.01173 1.11628C8.34749 1.11628 9.43033 2.19913 9.43033 3.53488C9.43033 4.87064 8.34749 5.95349 7.01173 5.95349C5.67597 5.95349 4.59312 4.87064 4.59312 3.53488Z" fill="#1C274C"/>
<path fill-rule="evenodd" clip-rule="evenodd" d="M7.01173 8.18605C5.29002 8.18605 3.70376 8.5774 2.52834 9.23858C1.37041 9.88991 0.5001 10.8771 0.5001 12.093L0.500051 12.1689C0.49921 13.0335 0.498155 14.1187 1.44999 14.8938C1.91843 15.2753 2.57376 15.5465 3.45914 15.7257C4.34699 15.9054 5.50417 16 7.01173 16C8.51928 16 9.67646 15.9054 10.5643 15.7257C11.4497 15.5465 12.105 15.2753 12.5735 14.8938C13.5253 14.1187 13.5242 13.0335 13.5234 12.1689L13.5234 12.093C13.5234 10.8771 12.653 9.88991 11.4951 9.23858C10.3197 8.5774 8.73344 8.18605 7.01173 8.18605ZM1.61638 12.093C1.61638 11.4595 2.0788 10.7722 3.07561 10.2115C4.05493 9.66063 5.44542 9.30233 7.01173 9.30233C8.57804 9.30233 9.96853 9.66063 10.9478 10.2115C11.9447 10.7722 12.4071 11.4595 12.4071 12.093C12.4071 13.0663 12.3771 13.6141 11.8686 14.0282C11.5928 14.2528 11.1319 14.4719 10.3429 14.6316C9.5563 14.7909 8.48092 14.8837 7.01173 14.8837C5.54254 14.8837 4.46716 14.7909 3.6806 14.6316C2.89156 14.4719 2.43061 14.2528 2.15486 14.0282C1.64638 13.6141 1.61638 13.0663 1.61638 12.093Z" fill="#1C274C"/>
</svg>
