<svg width="14" height="14" viewBox="0 0 14 14" fill="white" xmlns="http://www.w3.org/2000/svg">
<path d="M1 3.47627C1 2.28535 1 1.68989 1.36997 1.31992C1.73994 0.949951 2.3354 0.949951 3.52632 0.949951C4.71723 0.949951 5.31269 0.949951 5.68266 1.31992C6.05263 1.68989 6.05263 2.28535 6.05263 3.47627V10.4236C6.05263 11.6146 6.05263 12.21 5.68266 12.58C5.31269 12.95 4.71723 12.95 3.52632 12.95C2.3354 12.95 1.73994 12.95 1.36997 12.58C1 12.21 1 11.6146 1 10.4236V3.47627Z" stroke="#1C274C"/>
<path d="M7.94739 9.16059C7.94739 7.96968 7.94739 7.37422 8.31736 7.00425C8.68733 6.63428 9.28279 6.63428 10.4737 6.63428C11.6646 6.63428 12.2601 6.63428 12.63 7.00425C13 7.37422 13 7.96968 13 9.16059V10.4238C13 11.6147 13 12.2101 12.63 12.5801C12.2601 12.9501 11.6646 12.9501 10.4737 12.9501C9.28279 12.9501 8.68733 12.9501 8.31736 12.5801C7.94739 12.2101 7.94739 11.6147 7.94739 10.4238V9.16059Z" stroke="#1C274C"/>
<path d="M7.94739 2.84469C7.94739 2.25613 7.94739 1.96185 8.04354 1.72972C8.17174 1.42021 8.41765 1.17431 8.72716 1.0461C8.95929 0.949951 9.25357 0.949951 9.84212 0.949951H11.1053C11.6938 0.949951 11.9881 0.949951 12.2203 1.0461C12.5298 1.17431 12.7757 1.42021 12.9039 1.72972C13 1.96185 13 2.25613 13 2.84469C13 3.43325 13 3.72752 12.9039 3.95966C12.7757 4.26917 12.5298 4.51507 12.2203 4.64327C11.9881 4.73943 11.6938 4.73943 11.1053 4.73943H9.84212C9.25357 4.73943 8.95929 4.73943 8.72716 4.64327C8.41765 4.51507 8.17174 4.26917 8.04354 3.95966C7.94739 3.72752 7.94739 3.43325 7.94739 2.84469Z" stroke="#1C274C"/>
</svg>
