<svg width="14" height="13" viewBox="0 0 14 13" fill="none" xmlns="http://www.w3.org/2000/svg">
<g clip-path="url(#clip0_4592_1509)">
<path d="M9.60363 1.11377H4.57127C3.95804 1.11377 3.65142 1.11377 3.40413 1.19982C2.9352 1.36298 2.56703 1.74199 2.40854 2.22473C2.32495 2.47931 2.32495 2.79496 2.32495 3.42626V10.8368C2.32495 11.2909 2.84618 11.5319 3.1759 11.2302C3.36962 11.0529 3.66153 11.0529 3.85525 11.2302L4.11089 11.4641C4.45039 11.7748 4.96201 11.7748 5.30151 11.4641C5.64102 11.1534 6.15263 11.1534 6.49214 11.4641C6.83164 11.7748 7.34326 11.7748 7.68276 11.4641C8.02227 11.1534 8.53388 11.1534 8.87339 11.4641C9.21289 11.7748 9.72451 11.7748 10.064 11.4641L10.3197 11.2302C10.5134 11.0529 10.8053 11.0529 10.999 11.2302C11.3287 11.5319 11.85 11.2909 11.85 10.8368V3.42626C11.85 2.79496 11.85 2.47931 11.7664 2.22473C11.6079 1.74199 11.2397 1.36298 10.7708 1.19982C10.5235 1.11377 10.2169 1.11377 9.60363 1.11377Z" stroke="#55291B"/>
<path d="M6.24219 5.88086L9.90521 5.88086" stroke="#55291B" stroke-linecap="round"/>
<path d="M4.26953 5.88086H4.5513" stroke="#55291B" stroke-linecap="round"/>
<path d="M4.26953 4.0459H4.5513" stroke="#55291B" stroke-linecap="round"/>
<path d="M4.26953 7.71631H4.5513" stroke="#55291B" stroke-linecap="round"/>
<path d="M6.24219 4.0459H9.90521" stroke="#55291B" stroke-linecap="round"/>
<path d="M6.24219 7.71631H9.90521" stroke="#55291B" stroke-linecap="round"/>
</g>
<defs>
<clipPath id="clip0_4592_1509">
<rect width="13.525" height="12.5833" fill="white" transform="translate(0.324951 0.11377)"/>
</clipPath>
</defs>
</svg>
