<svg width="13" height="14" viewBox="0 0 13 14" fill="none" xmlns="http://www.w3.org/2000/svg">
<path d="M2.19995 2.30527C2.19995 2.02571 2.19995 1.88593 2.24562 1.77566C2.30652 1.62865 2.42332 1.51184 2.57034 1.45095C2.6806 1.40527 2.82039 1.40527 3.09995 1.40527H8.49995C8.77952 1.40527 8.9193 1.40527 9.02956 1.45095C9.17658 1.51184 9.29338 1.62865 9.35428 1.77566C9.39995 1.88593 9.39995 2.02571 9.39995 2.30527C9.39995 2.58484 9.39995 2.72462 9.35428 2.83488C9.29338 2.9819 9.17658 3.0987 9.02956 3.1596C8.9193 3.20527 8.77952 3.20527 8.49995 3.20527H3.09995C2.82039 3.20527 2.6806 3.20527 2.57034 3.1596C2.42332 3.0987 2.30652 2.9819 2.24562 2.83488C2.19995 2.72462 2.19995 2.58484 2.19995 2.30527Z" stroke="#55291B"/>
<path d="M1.30005 11.0054H6.10005" stroke="#55291B" stroke-linecap="round"/>
<path d="M1.30005 6.20508H10.3" stroke="#55291B" stroke-linecap="round"/>
<path d="M6.1 13.4051H3.97416C3.63149 13.4051 3.46016 13.4051 3.29774 13.3828C2.81597 13.3167 2.36565 13.1057 2.00643 12.778C1.88532 12.6675 1.77563 12.5358 1.55627 12.2726C1.19684 11.8413 1 11.2976 1 10.7362V6.75858C1 6.0295 1.33142 5.33995 1.90073 4.88449L3.34261 3.73099C3.66813 3.47058 3.83089 3.34037 4.02373 3.27272C4.21657 3.20508 4.42501 3.20508 4.84187 3.20508H6.78562C7.20628 3.20508 7.41661 3.20508 7.61094 3.27388C7.80527 3.34268 7.96874 3.47501 8.2957 3.73969L9.71008 4.88466C10.273 5.34034 10.6 6.02583 10.6 6.75005V7.70508" stroke="#55291B" stroke-linecap="round"/>
<path d="M5.8001 7.40527V9.80527M4.6001 8.60527L7.0001 8.60527" stroke="#55291B" stroke-linecap="round"/>
<path d="M8.66368 10.2687C8.66368 10.2687 9.259 10.3951 9.9346 11.0707C10.6102 11.7463 10.7365 12.3415 10.7365 12.3415M11.3584 9.64682C11.9308 10.2192 11.9493 11.1287 11.3998 11.6782L10.0732 13.0048C9.52371 13.5543 8.61423 13.5357 8.04184 12.9633C7.46944 12.3909 7.45088 11.4815 8.00038 10.932L9.32699 9.60536C9.87649 9.05586 10.786 9.07442 11.3584 9.64682Z" stroke="#55291B"/>
</svg>
