<svg width="14" height="14" viewBox="0 0 14 14" fill="none" xmlns="http://www.w3.org/2000/svg">
<g clip-path="url(#clip0_4592_1577)">
<path d="M8.89728 3.06074L8.5628 3.43239L8.89728 3.06074ZM11.0616 5.00862L10.7271 5.38027L11.0616 5.00862ZM12.3203 6.39593L11.8635 6.59935V6.59935L12.3203 6.39593ZM2.21571 12.2317L2.56926 11.8782L2.56926 11.8782L2.21571 12.2317ZM11.8689 12.2317L11.5154 11.8782L11.5154 11.8782L11.8689 12.2317ZM8.13574 12.3722H5.94889V13.3722H8.13574V12.3722ZM2.0752 8.49854V6.31169H1.0752V8.49854H2.0752ZM12.0094 8.25957V8.49854H13.0094V8.25957H12.0094ZM8.5628 3.43239L10.7271 5.38027L11.3961 4.63698L9.23176 2.6891L8.5628 3.43239ZM13.0094 8.25957C13.0094 7.34447 13.0195 6.73703 12.777 6.19251L11.8635 6.59935C11.9993 6.90431 12.0094 7.25614 12.0094 8.25957H13.0094ZM10.7271 5.38027C11.473 6.05153 11.7277 6.29439 11.8635 6.59935L12.777 6.19251C12.5345 5.648 12.0763 5.24915 11.3961 4.63698L10.7271 5.38027ZM5.96518 2.43799C6.83678 2.43799 7.14326 2.44571 7.41494 2.54996L7.7732 1.61634C7.28831 1.43027 6.76105 1.43799 5.96518 1.43799V2.43799ZM9.23176 2.6891C8.64306 2.15926 8.25803 1.80238 7.7732 1.61634L7.41494 2.54996C7.68669 2.65424 7.91827 2.85232 8.5628 3.43239L9.23176 2.6891ZM5.94889 12.3722C4.90387 12.3722 4.1704 12.3712 3.61595 12.2966C3.07588 12.224 2.78113 12.09 2.56926 11.8782L1.86216 12.5853C2.2908 13.0139 2.83175 13.2002 3.4827 13.2877C4.11927 13.3733 4.93214 13.3722 5.94889 13.3722V12.3722ZM1.0752 8.49854C1.0752 9.51529 1.07413 10.3282 1.15972 10.9647C1.24724 11.6157 1.43351 12.1566 1.86216 12.5853L2.56926 11.8782C2.35739 11.6663 2.22341 11.3715 2.1508 10.8315C2.07626 10.277 2.0752 9.54356 2.0752 8.49854H1.0752ZM8.13574 13.3722C9.1525 13.3722 9.96536 13.3733 10.6019 13.2877C11.2529 13.2002 11.7938 13.0139 12.2225 12.5853L11.5154 11.8782C11.3035 12.09 11.0088 12.224 10.4687 12.2966C9.91424 12.3712 9.18077 12.3722 8.13574 12.3722V13.3722ZM12.0094 8.49854C12.0094 9.54356 12.0084 10.277 11.9338 10.8315C11.8612 11.3715 11.7272 11.6663 11.5154 11.8782L12.2225 12.5853C12.6511 12.1566 12.8374 11.6157 12.9249 10.9647C13.0105 10.3282 13.0094 9.51529 13.0094 8.49854H12.0094ZM2.0752 6.31169C2.0752 5.26666 2.07626 4.53319 2.1508 3.97874C2.22341 3.43868 2.35739 3.14393 2.56926 2.93205L1.86216 2.22495C1.43351 2.65359 1.24724 3.19454 1.15972 3.84549C1.07413 4.48206 1.0752 5.29493 1.0752 6.31169H2.0752ZM5.96518 1.43799C4.94295 1.43799 4.12618 1.43694 3.48707 1.52247C2.83396 1.60988 2.29119 1.79592 1.86216 2.22495L2.56926 2.93205C2.78074 2.72057 3.07639 2.58635 3.61972 2.51363C4.17706 2.43904 4.91477 2.43799 5.96518 2.43799V1.43799Z" fill="#55291B"/>
<path d="M3.76221 8.77197H8.1359" stroke="#55291B" stroke-linecap="round"/>
<path d="M3.76221 10.6855H6.76912" stroke="#55291B" stroke-linecap="round"/>
<path d="M7.58936 2.21143V3.57821C7.58936 4.86682 7.58936 5.51113 7.98968 5.91145C8.39 6.31177 9.0343 6.31177 10.3229 6.31177H12.5098" stroke="#55291B"/>
</g>
<defs>
<clipPath id="clip0_4592_1577">
<rect width="13.1211" height="13.1211" fill="white" transform="translate(0.481934 0.844727)"/>
</clipPath>
</defs>
</svg>
