<svg width="12" height="14" viewBox="0 0 12 14" fill="none" xmlns="http://www.w3.org/2000/svg">
<path d="M4.78439 12.3925C2.72101 11.5063 1.16187 7.7884 1.16187 5.59628C1.16187 3.29089 3.03948 1.40527 5.33507 1.40527H6.03171C8.32729 1.40527 10.2049 3.29089 10.2049 5.59628C10.2049 7.84837 8.55287 11.7196 6.40324 12.4591" stroke="#55291B" stroke-miterlimit="10" stroke-linecap="round"/>
<path d="M1.20836 6.30908L1.16192 7.27521C0.989416 7.27521 0.850098 7.41514 0.850098 7.58837C0.850098 7.96816 1.03586 8.32796 1.35433 8.54118L1.95808 8.95428" stroke="#55291B" stroke-miterlimit="10" stroke-linecap="round"/>
<path d="M10.1584 6.30908L10.2048 7.27521C10.3773 7.27521 10.5167 7.41514 10.5167 7.58837C10.5167 7.96816 10.3309 8.32796 10.0124 8.54118L9.40869 8.95428" stroke="#55291B" stroke-miterlimit="10" stroke-linecap="round"/>
<path d="M2.30957 6.49599L3.35785 5.35662C3.53035 5.17006 3.64313 4.94352 3.68294 4.69032L3.86871 3.62425C3.90851 3.40437 4.18717 3.3444 4.31323 3.51764L4.75112 4.11731C4.98996 4.44379 5.36814 4.63036 5.76622 4.63036H7.54431C8.34047 4.63036 8.99066 5.28333 8.99066 6.08288V6.49599" stroke="#55291B" stroke-miterlimit="10" stroke-linecap="round"/>
<path d="M4.06129 11.9595C4.06129 11.9595 3.55705 11.2133 4.05465 10.3071C4.6584 9.20107 5.10293 8.38818 5.68678 8.38818" stroke="#55291B" stroke-miterlimit="10" stroke-linecap="round"/>
<path d="M7.31229 11.9529C7.31229 11.9529 7.80989 11.2133 7.31229 10.3071C6.70854 9.20107 6.24412 8.38818 5.68018 8.38818" stroke="#55291B" stroke-miterlimit="10" stroke-linecap="round"/>
<mask id="path-7-inside-1_4592_1534" fill="white">
<path d="M6.13791 11.2596C6.13791 11.6061 5.93887 11.7727 5.68676 11.7727C5.43464 11.7727 5.2356 11.6061 5.2356 11.2596C5.2356 10.9131 5.52089 10.52 5.68676 10.52C5.85262 10.52 6.13791 10.9131 6.13791 11.2596Z"/>
</mask>
<path d="M5.13791 11.2596C5.13791 11.2417 5.14637 11.0989 5.28429 10.9548C5.42355 10.8092 5.58976 10.7727 5.68676 10.7727V12.7727C6.03587 12.7727 6.42765 12.6528 6.72946 12.3373C7.02993 12.0233 7.13791 11.624 7.13791 11.2596H5.13791ZM5.68676 10.7727C5.78375 10.7727 5.94995 10.8092 6.0892 10.9548C6.22713 11.0989 6.2356 11.2417 6.2356 11.2596H4.2356C4.2356 11.624 4.34358 12.0233 4.64406 12.3374C4.94587 12.6528 5.33765 12.7727 5.68676 12.7727V10.7727ZM6.2356 11.2596C6.2356 11.3062 6.22693 11.3274 6.22872 11.3222C6.22996 11.3185 6.23363 11.3107 6.23735 11.305C6.24356 11.2954 6.23297 11.3159 6.19134 11.351C6.16993 11.3691 6.12464 11.4043 6.0544 11.4382C5.9873 11.4706 5.85941 11.52 5.68676 11.52V9.52002C5.28776 9.52002 5.00985 9.73103 4.90124 9.82272C4.75947 9.94239 4.64645 10.0828 4.5606 10.2148C4.39716 10.4662 4.2356 10.8386 4.2356 11.2596H6.2356ZM5.68676 11.52C5.5141 11.52 5.38621 11.4706 5.31911 11.4382C5.24887 11.4043 5.20358 11.3691 5.18216 11.351C5.14054 11.3158 5.12994 11.2954 5.13615 11.305C5.13987 11.3107 5.14354 11.3185 5.14478 11.3222C5.14658 11.3274 5.13791 11.3062 5.13791 11.2596H7.13791C7.13791 10.8386 6.97635 10.4662 6.81292 10.2148C6.72707 10.0828 6.61405 9.9424 6.47228 9.82273C6.36367 9.73103 6.08576 9.52002 5.68676 9.52002V11.52Z" fill="#55291B" mask="url(#path-7-inside-1_4592_1534)"/>
<mask id="path-9-inside-2_4592_1534" fill="white">
<path d="M5.68685 13.4052C5.55415 13.4052 5.448 13.2986 5.448 13.1654V11.7062C5.448 11.5729 5.55415 11.4663 5.68685 11.4663C5.81954 11.4663 5.92569 11.5729 5.92569 11.7062V13.1654C5.92569 13.292 5.81954 13.4052 5.68685 13.4052Z"/>
</mask>
<path d="M5.92569 13.1654H6.92569H5.92569ZM5.68685 12.4052C6.11045 12.4052 6.448 12.7504 6.448 13.1654H4.448C4.448 13.8469 4.99786 14.4052 5.68685 14.4052V12.4052ZM6.448 13.1654V11.7062H4.448V13.1654H6.448ZM6.448 11.7062C6.448 12.1212 6.11044 12.4663 5.68685 12.4663V10.4663C4.99786 10.4663 4.448 11.0246 4.448 11.7062H6.448ZM5.68685 12.4663C5.26325 12.4663 4.92569 12.1212 4.92569 11.7062H6.92569C6.92569 11.0246 6.37583 10.4663 5.68685 10.4663V12.4663ZM4.92569 11.7062V13.1654H6.92569V11.7062H4.92569ZM4.92569 13.1654C4.92569 12.7618 5.24541 12.4052 5.68685 12.4052V14.4052C6.39367 14.4052 6.92569 13.8221 6.92569 13.1654H4.92569Z" fill="#55291B" mask="url(#path-9-inside-2_4592_1534)"/>
<path d="M4.76451 7.00195C4.76451 7.28195 4.58537 7.51529 4.11431 7.51529C3.65652 7.51529 3.46411 7.28862 3.46411 7.00195" stroke="#55291B" stroke-miterlimit="10" stroke-linecap="round"/>
<path d="M7.90268 7.00195C7.90268 7.28195 7.72355 7.51529 7.25249 7.51529C6.7947 7.51529 6.60229 7.28862 6.60229 7.00195" stroke="#55291B" stroke-miterlimit="10" stroke-linecap="round"/>
</svg>
