<svg width="13" height="13" viewBox="0 0 13 13" fill="none" xmlns="http://www.w3.org/2000/svg">
<g clip-path="url(#clip0_4592_1525)">
<path d="M1.8501 9.40527C1.8501 8.93933 1.8501 8.70636 1.92622 8.52259C2.02771 8.27756 2.22239 8.08289 2.46741 7.98139C2.65119 7.90527 2.88416 7.90527 3.3501 7.90527H10.3501C10.816 7.90527 11.049 7.90527 11.2328 7.98139C11.4778 8.08289 11.6725 8.27756 11.774 8.52259C11.8501 8.70636 11.8501 8.93933 11.8501 9.40527C11.8501 9.87122 11.8501 10.1042 11.774 10.288C11.6725 10.533 11.4778 10.7277 11.2328 10.8292C11.049 10.9053 10.816 10.9053 10.3501 10.9053H3.3501C2.88416 10.9053 2.65119 10.9053 2.46741 10.8292C2.22239 10.7277 2.02771 10.533 1.92622 10.288C1.8501 10.1042 1.8501 9.87122 1.8501 9.40527Z" stroke="#55291B"/>
<path d="M1.8501 6.40527C1.8501 5.93933 1.8501 5.70636 1.92622 5.52259C2.02771 5.27756 2.22239 5.08289 2.46741 4.98139C2.65119 4.90527 2.88416 4.90527 3.3501 4.90527H10.3501C10.816 4.90527 11.049 4.90527 11.2328 4.98139C11.4778 5.08289 11.6725 5.27756 11.774 5.52259C11.8501 5.70636 11.8501 5.93933 11.8501 6.40527C11.8501 6.87122 11.8501 7.10419 11.774 7.28796C11.6725 7.53299 11.4778 7.72766 11.2328 7.82915C11.049 7.90527 10.816 7.90527 10.3501 7.90527H3.3501C2.88416 7.90527 2.65119 7.90527 2.46741 7.82915C2.22239 7.72766 2.02771 7.53299 1.92622 7.28796C1.8501 7.10419 1.8501 6.87122 1.8501 6.40527Z" stroke="#55291B"/>
<path d="M1.8501 3.40527C1.8501 2.93933 1.8501 2.70636 1.92622 2.52259C2.02771 2.27756 2.22239 2.08289 2.46741 1.98139C2.65119 1.90527 2.88416 1.90527 3.3501 1.90527H10.3501C10.816 1.90527 11.049 1.90527 11.2328 1.98139C11.4778 2.08289 11.6725 2.27756 11.774 2.52259C11.8501 2.70636 11.8501 2.93933 11.8501 3.40527C11.8501 3.87122 11.8501 4.10419 11.774 4.28796C11.6725 4.53299 11.4778 4.72766 11.2328 4.82915C11.049 4.90527 10.816 4.90527 10.3501 4.90527H3.3501C2.88416 4.90527 2.65119 4.90527 2.46741 4.82915C2.22239 4.72766 2.02771 4.53299 1.92622 4.28796C1.8501 4.10419 1.8501 3.87122 1.8501 3.40527Z" stroke="#55291B"/>
<circle cx="3.3501" cy="6.40527" r="0.5" fill="#55291B"/>
<circle cx="3.3501" cy="3.40527" r="0.5" fill="#55291B"/>
<circle cx="3.3501" cy="9.40527" r="0.5" fill="#55291B"/>
</g>
<defs>
<clipPath id="clip0_4592_1525">
<rect width="12" height="12" fill="white" transform="translate(0.850098 0.405273)"/>
</clipPath>
</defs>
</svg>
