<svg width="14" height="14" viewBox="0 0 14 14" fill="none" xmlns="http://www.w3.org/2000/svg">
<g clip-path="url(#clip0_4592_1519)">
<path d="M3.41128 9.64625C2.57411 8.80908 2.15553 8.3905 1.99978 7.84742C1.84403 7.30434 1.97713 6.72754 2.24335 5.57393L2.39688 4.90866C2.62085 3.93812 2.73283 3.45285 3.06513 3.12055C3.39743 2.78825 3.8827 2.67627 4.85324 2.4523L5.51851 2.29877C6.67212 2.03255 7.24892 1.89945 7.792 2.0552C8.33508 2.21095 8.75366 2.62953 9.59083 3.4667L10.5819 4.45775C12.0384 5.91428 12.7667 6.64255 12.7667 7.54753C12.7667 8.4525 12.0384 9.18077 10.5819 10.6373C9.12535 12.0938 8.39708 12.8221 7.49211 12.8221C6.58713 12.8221 5.85887 12.0938 4.40233 10.6373L3.41128 9.64625Z" stroke="#55291B"/>
<circle cx="5.51205" cy="5.71484" r="1.08333" transform="rotate(-45 5.51205 5.71484)" stroke="#55291B"/>
<path d="M7.10145 10.9258L10.8817 7.14535" stroke="#55291B" stroke-linecap="round"/>
</g>
<defs>
<clipPath id="clip0_4592_1519">
<rect width="13" height="13" fill="white" transform="translate(0.850098 0.905273)"/>
</clipPath>
</defs>
</svg>
