<svg width="165" height="41" viewBox="0 0 165 41" fill="none" xmlns="http://www.w3.org/2000/svg">
<rect x="0.399902" y="0.700195" width="164.2" height="40" rx="20" fill="#263558"/>
<path d="M18.3999 17.8002C18.1238 17.8002 17.8999 18.0241 17.8999 18.3002C17.8999 18.5763 18.1238 18.8002 18.3999 18.8002V17.8002ZM19.5999 18.8002C19.876 18.8002 20.0999 18.5763 20.0999 18.3002C20.0999 18.0241 19.876 17.8002 19.5999 17.8002V18.8002ZM18.3999 20.2002C18.1238 20.2002 17.8999 20.4241 17.8999 20.7002C17.8999 20.9763 18.1238 21.2002 18.3999 21.2002V20.2002ZM19.5999 21.2002C19.876 21.2002 20.0999 20.9763 20.0999 20.7002C20.0999 20.4241 19.876 20.2002 19.5999 20.2002V21.2002ZM18.3999 22.6002C18.1238 22.6002 17.8999 22.8241 17.8999 23.1002C17.8999 23.3763 18.1238 23.6002 18.3999 23.6002V22.6002ZM19.5999 23.6002C19.876 23.6002 20.0999 23.3763 20.0999 23.1002C20.0999 22.8241 19.876 22.6002 19.5999 22.6002V23.6002ZM24.2999 18.9002V18.4002H23.2999V18.9002H24.2999ZM23.2999 22.5002V23.0002H24.2999V22.5002H23.2999ZM25.5999 21.2002H26.0999V20.2002H25.5999V21.2002ZM21.9999 20.2002H21.4999V21.2002H21.9999V20.2002ZM18.3999 18.8002H19.5999V17.8002H18.3999V18.8002ZM18.3999 21.2002H19.5999V20.2002H18.3999V21.2002ZM18.3999 23.6002H19.5999V22.6002H18.3999V23.6002ZM20.1999 27.2002H27.3999V26.2002H20.1999V27.2002ZM27.3999 27.2002C28.3388 27.2002 29.0999 26.4391 29.0999 25.5002H28.0999C28.0999 25.8868 27.7865 26.2002 27.3999 26.2002V27.2002ZM29.0999 25.5002V15.9002H28.0999V25.5002H29.0999ZM29.0999 15.9002C29.0999 14.9613 28.3388 14.2002 27.3999 14.2002V15.2002C27.7865 15.2002 28.0999 15.5136 28.0999 15.9002H29.0999ZM27.3999 14.2002H20.1999V15.2002H27.3999V14.2002ZM20.1999 14.2002C19.261 14.2002 18.4999 14.9613 18.4999 15.9002H19.4999C19.4999 15.5136 19.8133 15.2002 20.1999 15.2002V14.2002ZM18.4999 15.9002V25.5002H19.4999V15.9002H18.4999ZM18.4999 25.5002C18.4999 26.4391 19.261 27.2002 20.1999 27.2002V26.2002C19.8133 26.2002 19.4999 25.8868 19.4999 25.5002H18.4999ZM23.2999 18.9002V22.5002H24.2999V18.9002H23.2999ZM25.5999 20.2002H21.9999V21.2002H25.5999V20.2002Z" fill="white"/>
<path d="M46.2861 25.7002C46.1274 25.2802 45.9781 24.8695 45.8381 24.4682C45.6981 24.0575 45.5534 23.6422 45.4041 23.2222H41.0081L40.1261 25.7002H38.7121C39.0854 24.6735 39.4354 23.7262 39.7621 22.8582C40.0888 21.9809 40.4061 21.1502 40.7141 20.3662C41.0314 19.5822 41.3441 18.8355 41.6521 18.1262C41.9601 17.4075 42.2821 16.6982 42.6181 15.9982H43.8641C44.2001 16.6982 44.5221 17.4075 44.8301 18.1262C45.1381 18.8355 45.4461 19.5822 45.7541 20.3662C46.0714 21.1502 46.3934 21.9809 46.7201 22.8582C47.0468 23.7262 47.3968 24.6735 47.7701 25.7002H46.2861ZM45.0121 22.1022C44.7134 21.2902 44.4148 20.5062 44.1161 19.7502C43.8268 18.9849 43.5234 18.2522 43.2061 17.5522C42.8794 18.2522 42.5668 18.9849 42.2681 19.7502C41.9788 20.5062 41.6894 21.2902 41.4001 22.1022H45.0121ZM53.5296 19.9602C53.3709 19.8295 53.1422 19.7035 52.8436 19.5822C52.5449 19.4609 52.2182 19.4002 51.8636 19.4002C51.4902 19.4002 51.1682 19.4702 50.8976 19.6102C50.6362 19.7409 50.4216 19.9275 50.2536 20.1702C50.0856 20.4035 49.9642 20.6835 49.8896 21.0102C49.8149 21.3369 49.7776 21.6869 49.7776 22.0602C49.7776 22.9095 49.9876 23.5675 50.4076 24.0342C50.8276 24.4915 51.3876 24.7202 52.0876 24.7202C52.4422 24.7202 52.7362 24.7062 52.9696 24.6782C53.2122 24.6409 53.3989 24.6035 53.5296 24.5662V19.9602ZM53.5296 15.0602L54.8316 14.8362V25.4902C54.5329 25.5742 54.1502 25.6582 53.6836 25.7422C53.2169 25.8262 52.6802 25.8682 52.0736 25.8682C51.5136 25.8682 51.0096 25.7795 50.5616 25.6022C50.1136 25.4249 49.7309 25.1729 49.4136 24.8462C49.0962 24.5195 48.8489 24.1229 48.6716 23.6562C48.5036 23.1802 48.4196 22.6482 48.4196 22.0602C48.4196 21.5002 48.4896 20.9869 48.6296 20.5202C48.7789 20.0535 48.9936 19.6522 49.2736 19.3162C49.5536 18.9802 49.8942 18.7189 50.2956 18.5322C50.7062 18.3455 51.1729 18.2522 51.6956 18.2522C52.1156 18.2522 52.4842 18.3082 52.8016 18.4202C53.1282 18.5322 53.3709 18.6395 53.5296 18.7422V15.0602ZM61.7737 19.9602C61.615 19.8295 61.3864 19.7035 61.0877 19.5822C60.789 19.4609 60.4624 19.4002 60.1077 19.4002C59.7344 19.4002 59.4124 19.4702 59.1417 19.6102C58.8804 19.7409 58.6657 19.9275 58.4977 20.1702C58.3297 20.4035 58.2084 20.6835 58.1337 21.0102C58.059 21.3369 58.0217 21.6869 58.0217 22.0602C58.0217 22.9095 58.2317 23.5675 58.6517 24.0342C59.0717 24.4915 59.6317 24.7202 60.3317 24.7202C60.6864 24.7202 60.9804 24.7062 61.2137 24.6782C61.4564 24.6409 61.643 24.6035 61.7737 24.5662V19.9602ZM61.7737 15.0602L63.0757 14.8362V25.4902C62.777 25.5742 62.3944 25.6582 61.9277 25.7422C61.461 25.8262 60.9244 25.8682 60.3177 25.8682C59.7577 25.8682 59.2537 25.7795 58.8057 25.6022C58.3577 25.4249 57.975 25.1729 57.6577 24.8462C57.3404 24.5195 57.093 24.1229 56.9157 23.6562C56.7477 23.1802 56.6637 22.6482 56.6637 22.0602C56.6637 21.5002 56.7337 20.9869 56.8737 20.5202C57.023 20.0535 57.2377 19.6522 57.5177 19.3162C57.7977 18.9802 58.1384 18.7189 58.5397 18.5322C58.9504 18.3455 59.417 18.2522 59.9397 18.2522C60.3597 18.2522 60.7284 18.3082 61.0457 18.4202C61.3724 18.5322 61.615 18.6395 61.7737 18.7422V15.0602ZM75.2881 25.7002C75.0827 25.3549 74.8447 24.9675 74.5741 24.5382C74.3127 24.1089 74.0281 23.6655 73.7201 23.2082C73.4121 22.7415 73.0901 22.2702 72.7541 21.7942C72.4274 21.3182 72.1007 20.8609 71.7741 20.4222C71.4474 19.9742 71.1301 19.5542 70.8221 19.1622C70.5141 18.7702 70.2294 18.4249 69.9681 18.1262V25.7002H68.6381V15.9982H69.7161C70.1547 16.4649 70.6214 17.0109 71.1161 17.6362C71.6201 18.2522 72.1147 18.8915 72.6001 19.5542C73.0947 20.2075 73.5567 20.8515 73.9861 21.4862C74.4247 22.1209 74.7934 22.6855 75.0921 23.1802V15.9982H76.4221V25.7002H75.2881ZM78.3336 22.0742C78.3336 21.4302 78.427 20.8702 78.6136 20.3942C78.8003 19.9089 79.0476 19.5075 79.3556 19.1902C79.6636 18.8729 80.0183 18.6349 80.4196 18.4762C80.821 18.3175 81.2316 18.2382 81.6516 18.2382C82.6316 18.2382 83.383 18.5462 83.9056 19.1622C84.4283 19.7689 84.6896 20.6975 84.6896 21.9482C84.6896 22.0042 84.6896 22.0789 84.6896 22.1722C84.6896 22.2562 84.685 22.3355 84.6756 22.4102H79.6916C79.7476 23.1662 79.967 23.7402 80.3496 24.1322C80.7323 24.5242 81.3296 24.7202 82.1416 24.7202C82.599 24.7202 82.9816 24.6829 83.2896 24.6082C83.607 24.5242 83.845 24.4449 84.0036 24.3702L84.1856 25.4622C84.027 25.5462 83.747 25.6349 83.3456 25.7282C82.9536 25.8215 82.5056 25.8682 82.0016 25.8682C81.367 25.8682 80.8163 25.7749 80.3496 25.5882C79.8923 25.3922 79.5143 25.1262 79.2156 24.7902C78.917 24.4542 78.693 24.0575 78.5436 23.6002C78.4036 23.1335 78.3336 22.6249 78.3336 22.0742ZM83.3316 21.3602C83.341 20.7722 83.1916 20.2915 82.8836 19.9182C82.585 19.5355 82.1696 19.3442 81.6376 19.3442C81.339 19.3442 81.073 19.4049 80.8396 19.5262C80.6156 19.6382 80.4243 19.7875 80.2656 19.9742C80.107 20.1609 79.981 20.3755 79.8876 20.6182C79.8036 20.8609 79.7476 21.1082 79.7196 21.3602H83.3316ZM92.5099 25.7002C92.2486 25.0282 91.9686 24.2629 91.6699 23.4042C91.3806 22.5362 91.1146 21.6355 90.8719 20.7022C90.6293 21.6355 90.3633 22.5362 90.0739 23.4042C89.7846 24.2629 89.5093 25.0282 89.2479 25.7002H88.1139C87.6846 24.7389 87.2646 23.6422 86.8539 22.4102C86.4433 21.1782 86.0559 19.8482 85.6919 18.4202H87.0919C87.1853 18.8589 87.2973 19.3349 87.4279 19.8482C87.5586 20.3615 87.6939 20.8749 87.8339 21.3882C87.9833 21.9015 88.1373 22.3962 88.2959 22.8722C88.4546 23.3482 88.6039 23.7635 88.7439 24.1182C88.9026 23.6795 89.0566 23.2175 89.2059 22.7322C89.3646 22.2375 89.5139 21.7429 89.6539 21.2482C89.7939 20.7442 89.9246 20.2542 90.0459 19.7782C90.1766 19.2929 90.2886 18.8402 90.3819 18.4202H91.4599C91.5439 18.8402 91.6466 19.2929 91.7679 19.7782C91.8893 20.2542 92.0199 20.7442 92.1599 21.2482C92.2999 21.7429 92.4446 22.2375 92.5939 22.7322C92.7526 23.2175 92.9113 23.6795 93.0699 24.1182C93.2099 23.7635 93.3546 23.3482 93.5039 22.8722C93.6626 22.3962 93.8166 21.9015 93.9659 21.3882C94.1153 20.8749 94.2553 20.3615 94.3859 19.8482C94.5166 19.3349 94.6286 18.8589 94.7219 18.4202H96.0659C95.7019 19.8482 95.3146 21.1782 94.9039 22.4102C94.4933 23.6422 94.0733 24.7389 93.6439 25.7002H92.5099ZM103.343 15.9002C104.706 15.9002 105.751 16.1615 106.479 16.6842C107.216 17.1975 107.585 17.9675 107.585 18.9942C107.585 19.5542 107.482 20.0349 107.277 20.4362C107.081 20.8282 106.792 21.1502 106.409 21.4022C106.036 21.6449 105.578 21.8222 105.037 21.9342C104.496 22.0462 103.884 22.1022 103.203 22.1022H102.125V25.7002H100.767V16.1382C101.15 16.0449 101.574 15.9842 102.041 15.9562C102.517 15.9189 102.951 15.9002 103.343 15.9002ZM103.455 17.0902C102.876 17.0902 102.433 17.1042 102.125 17.1322V20.9402H103.147C103.614 20.9402 104.034 20.9122 104.407 20.8562C104.78 20.7909 105.093 20.6882 105.345 20.5482C105.606 20.3989 105.807 20.1982 105.947 19.9462C106.087 19.6942 106.157 19.3722 106.157 18.9802C106.157 18.6069 106.082 18.2989 105.933 18.0562C105.793 17.8135 105.597 17.6222 105.345 17.4822C105.102 17.3329 104.818 17.2302 104.491 17.1742C104.164 17.1182 103.819 17.0902 103.455 17.0902ZM111.405 24.7622C111.713 24.7622 111.983 24.7575 112.217 24.7482C112.459 24.7295 112.66 24.7015 112.819 24.6642V22.4942C112.725 22.4475 112.571 22.4102 112.357 22.3822C112.151 22.3449 111.899 22.3262 111.601 22.3262C111.405 22.3262 111.195 22.3402 110.971 22.3682C110.756 22.3962 110.555 22.4569 110.369 22.5502C110.191 22.6342 110.042 22.7555 109.921 22.9142C109.799 23.0635 109.739 23.2642 109.739 23.5162C109.739 23.9829 109.888 24.3095 110.187 24.4962C110.485 24.6735 110.891 24.7622 111.405 24.7622ZM111.293 18.2382C111.815 18.2382 112.254 18.3082 112.609 18.4482C112.973 18.5789 113.262 18.7702 113.477 19.0222C113.701 19.2649 113.859 19.5589 113.953 19.9042C114.046 20.2402 114.093 20.6135 114.093 21.0242V25.5742C113.981 25.5929 113.822 25.6209 113.617 25.6582C113.421 25.6862 113.197 25.7142 112.945 25.7422C112.693 25.7702 112.417 25.7935 112.119 25.8122C111.829 25.8402 111.54 25.8542 111.251 25.8542C110.84 25.8542 110.462 25.8122 110.117 25.7282C109.771 25.6442 109.473 25.5135 109.221 25.3362C108.969 25.1495 108.773 24.9069 108.633 24.6082C108.493 24.3095 108.423 23.9502 108.423 23.5302C108.423 23.1289 108.502 22.7835 108.661 22.4942C108.829 22.2049 109.053 21.9715 109.333 21.7942C109.613 21.6169 109.939 21.4862 110.313 21.4022C110.686 21.3182 111.078 21.2762 111.489 21.2762C111.619 21.2762 111.755 21.2855 111.895 21.3042C112.035 21.3135 112.165 21.3322 112.287 21.3602C112.417 21.3789 112.529 21.3975 112.623 21.4162C112.716 21.4349 112.781 21.4489 112.819 21.4582V21.0942C112.819 20.8795 112.795 20.6695 112.749 20.4642C112.702 20.2495 112.618 20.0629 112.497 19.9042C112.375 19.7362 112.207 19.6055 111.993 19.5122C111.787 19.4095 111.517 19.3582 111.181 19.3582C110.751 19.3582 110.373 19.3909 110.047 19.4562C109.729 19.5122 109.491 19.5729 109.333 19.6382L109.179 18.5602C109.347 18.4855 109.627 18.4155 110.019 18.3502C110.411 18.2755 110.835 18.2382 111.293 18.2382ZM117.473 18.4202H120.231V19.5122H117.473V22.8722C117.473 23.2362 117.501 23.5395 117.557 23.7822C117.613 24.0155 117.697 24.2022 117.809 24.3422C117.921 24.4729 118.061 24.5662 118.229 24.6222C118.397 24.6782 118.593 24.7062 118.817 24.7062C119.209 24.7062 119.522 24.6642 119.755 24.5802C119.998 24.4869 120.166 24.4215 120.259 24.3842L120.511 25.4622C120.381 25.5275 120.152 25.6069 119.825 25.7002C119.499 25.8029 119.125 25.8542 118.705 25.8542C118.211 25.8542 117.8 25.7935 117.473 25.6722C117.156 25.5415 116.899 25.3502 116.703 25.0982C116.507 24.8462 116.367 24.5382 116.283 24.1742C116.209 23.8009 116.171 23.3715 116.171 22.8862V16.3902L117.473 16.1662V18.4202ZM123.19 25.7002H121.888V18.4202H123.19V25.7002ZM122.532 17.1042C122.299 17.1042 122.098 17.0295 121.93 16.8802C121.771 16.7215 121.692 16.5115 121.692 16.2502C121.692 15.9889 121.771 15.7835 121.93 15.6342C122.098 15.4755 122.299 15.3962 122.532 15.3962C122.765 15.3962 122.961 15.4755 123.12 15.6342C123.288 15.7835 123.372 15.9889 123.372 16.2502C123.372 16.5115 123.288 16.7215 123.12 16.8802C122.961 17.0295 122.765 17.1042 122.532 17.1042ZM125.023 22.0742C125.023 21.4302 125.116 20.8702 125.303 20.3942C125.49 19.9089 125.737 19.5075 126.045 19.1902C126.353 18.8729 126.708 18.6349 127.109 18.4762C127.51 18.3175 127.921 18.2382 128.341 18.2382C129.321 18.2382 130.072 18.5462 130.595 19.1622C131.118 19.7689 131.379 20.6975 131.379 21.9482C131.379 22.0042 131.379 22.0789 131.379 22.1722C131.379 22.2562 131.374 22.3355 131.365 22.4102H126.381C126.437 23.1662 126.656 23.7402 127.039 24.1322C127.422 24.5242 128.019 24.7202 128.831 24.7202C129.288 24.7202 129.671 24.6829 129.979 24.6082C130.296 24.5242 130.534 24.4449 130.693 24.3702L130.875 25.4622C130.716 25.5462 130.436 25.6349 130.035 25.7282C129.643 25.8215 129.195 25.8682 128.691 25.8682C128.056 25.8682 127.506 25.7749 127.039 25.5882C126.582 25.3922 126.204 25.1262 125.905 24.7902C125.606 24.4542 125.382 24.0575 125.233 23.6002C125.093 23.1335 125.023 22.6249 125.023 22.0742ZM130.021 21.3602C130.03 20.7722 129.881 20.2915 129.573 19.9182C129.274 19.5355 128.859 19.3442 128.327 19.3442C128.028 19.3442 127.762 19.4049 127.529 19.5262C127.305 19.6382 127.114 19.7875 126.955 19.9742C126.796 20.1609 126.67 20.3755 126.577 20.6182C126.493 20.8609 126.437 21.1082 126.409 21.3602H130.021ZM133.249 18.6302C133.548 18.5555 133.945 18.4762 134.439 18.3922C134.934 18.3082 135.503 18.2662 136.147 18.2662C136.726 18.2662 137.207 18.3502 137.589 18.5182C137.972 18.6769 138.275 18.9055 138.499 19.2042C138.733 19.4935 138.896 19.8435 138.989 20.2542C139.083 20.6649 139.129 21.1175 139.129 21.6122V25.7002H137.827V21.8922C137.827 21.4442 137.795 21.0615 137.729 20.7442C137.673 20.4269 137.575 20.1702 137.435 19.9742C137.295 19.7782 137.109 19.6382 136.875 19.5542C136.642 19.4609 136.353 19.4142 136.007 19.4142C135.867 19.4142 135.723 19.4189 135.573 19.4282C135.424 19.4375 135.279 19.4515 135.139 19.4702C135.009 19.4795 134.887 19.4935 134.775 19.5122C134.673 19.5309 134.598 19.5449 134.551 19.5542V25.7002H133.249V18.6302ZM142.506 18.4202H145.264V19.5122H142.506V22.8722C142.506 23.2362 142.534 23.5395 142.59 23.7822C142.646 24.0155 142.73 24.2022 142.842 24.3422C142.954 24.4729 143.094 24.5662 143.262 24.6222C143.43 24.6782 143.626 24.7062 143.85 24.7062C144.242 24.7062 144.555 24.6642 144.788 24.5802C145.031 24.4869 145.199 24.4215 145.292 24.3842L145.544 25.4622C145.414 25.5275 145.185 25.6069 144.858 25.7002C144.532 25.8029 144.158 25.8542 143.738 25.8542C143.244 25.8542 142.833 25.7935 142.506 25.6722C142.189 25.5415 141.932 25.3502 141.736 25.0982C141.54 24.8462 141.4 24.5382 141.316 24.1742C141.242 23.8009 141.204 23.3715 141.204 22.8862V16.3902L142.506 16.1662V18.4202Z" fill="white"/>
</svg>
