<svg width="22" height="22" viewBox="0 0 22 22" fill="none" xmlns="http://www.w3.org/2000/svg">
<path d="M8.7803 7.71965C8.48741 7.42676 8.01253 7.42676 7.71964 7.71965C7.42675 8.01255 7.42675 8.48742 7.71964 8.78031L9.68932 10.75L7.71966 12.7197C7.42677 13.0125 7.42677 13.4874 7.71966 13.7803C8.01255 14.0732 8.48743 14.0732 8.78032 13.7803L10.75 11.8107L12.7196 13.7803C13.0125 14.0732 13.4874 14.0732 13.7803 13.7803C14.0732 13.4874 14.0732 13.0125 13.7803 12.7196L11.8106 10.75L13.7803 8.78033C14.0732 8.48744 14.0732 8.01257 13.7803 7.71968C13.4874 7.42678 13.0125 7.42678 12.7196 7.71968L10.75 9.68933L8.7803 7.71965Z" fill="#1C274C"/>
<path fill-rule="evenodd" clip-rule="evenodd" d="M10.75 0C4.81294 0 0 4.81294 0 10.75C0 16.6871 4.81294 21.5 10.75 21.5C16.6871 21.5 21.5 16.6871 21.5 10.75C21.5 4.81294 16.6871 0 10.75 0ZM1.5 10.75C1.5 5.64137 5.64137 1.5 10.75 1.5C15.8586 1.5 20 5.64137 20 10.75C20 15.8586 15.8586 20 10.75 20C5.64137 20 1.5 15.8586 1.5 10.75Z" fill="#1C274C"/>
</svg>
