<svg width="13" height="14" viewBox="0 0 13 14" fill="none" xmlns="http://www.w3.org/2000/svg">
<circle cx="6.65693" cy="6.9499" r="1.8" stroke="#263558" stroke-width="1.2"/>
<path d="M7.71615 1.0413C7.49562 0.949951 7.21606 0.949951 6.65693 0.949951C6.0978 0.949951 5.81823 0.949951 5.59771 1.0413C5.30367 1.16309 5.07006 1.3967 4.94827 1.69073C4.89267 1.82496 4.87092 1.98105 4.8624 2.20875C4.84989 2.54336 4.67829 2.85309 4.3883 3.02051C4.09832 3.18793 3.74429 3.18168 3.44825 3.02521C3.2468 2.91873 3.10074 2.85952 2.95669 2.84056C2.64116 2.79902 2.32204 2.88453 2.06955 3.07827C1.88018 3.22358 1.7404 3.46569 1.46083 3.94991C1.18127 4.43413 1.04149 4.67624 1.01033 4.91289C0.968788 5.22843 1.0543 5.54755 1.24804 5.80004C1.33647 5.91529 1.46076 6.01217 1.65365 6.13337C1.93721 6.31154 2.11967 6.61507 2.11965 6.94997C2.11963 7.28483 1.93718 7.58831 1.65364 7.76646C1.46072 7.88768 1.33642 7.98456 1.24798 8.09982C1.05424 8.35232 0.96873 8.67143 1.01027 8.98697C1.04143 9.22362 1.18121 9.46573 1.46077 9.94995C1.74034 10.4342 1.88012 10.6763 2.06949 10.8216C2.32198 11.0153 2.6411 11.1008 2.95664 11.0593C3.10067 11.0403 3.24673 10.9811 3.44816 10.8747C3.74422 10.7182 4.09827 10.7119 4.38827 10.8794C4.67828 11.0468 4.84989 11.3566 4.8624 11.6912C4.87092 11.9189 4.89268 12.075 4.94827 12.2092C5.07006 12.5032 5.30367 12.7368 5.59771 12.8586C5.81823 12.95 6.0978 12.95 6.65693 12.95C7.21606 12.95 7.49562 12.95 7.71615 12.8586C8.01018 12.7368 8.24379 12.5032 8.36558 12.2092C8.42118 12.0749 8.44294 11.9188 8.45145 11.6911C8.46396 11.3565 8.63555 11.0468 8.92552 10.8794C9.21552 10.7119 9.56959 10.7182 9.86566 10.8746C10.0671 10.9811 10.2131 11.0403 10.3572 11.0593C10.6727 11.1008 10.9918 11.0153 11.2443 10.8215C11.4337 10.6762 11.5735 10.4341 11.853 9.94991C12.1326 9.46569 12.2724 9.22358 12.3035 8.98693C12.3451 8.67139 12.2596 8.35227 12.0658 8.09978C11.9774 7.98453 11.8531 7.88764 11.6602 7.76643C11.3766 7.58827 11.1942 7.28477 11.1942 6.9499C11.1942 6.61506 11.3767 6.3116 11.6602 6.13347C11.8531 6.01224 11.9774 5.91535 12.0659 5.80008C12.2596 5.54759 12.3451 5.22847 12.3036 4.91294C12.2724 4.67628 12.1326 4.43417 11.8531 3.94995C11.5735 3.46573 11.4337 3.22362 11.2444 3.07831C10.9919 2.88457 10.6728 2.79906 10.3572 2.8406C10.2132 2.85956 10.0671 2.91877 9.8657 3.02523C9.56964 3.18171 9.21558 3.18796 8.92558 3.02053C8.63558 2.85309 8.46397 2.54335 8.45145 2.20871C8.44293 1.98104 8.42118 1.82495 8.36558 1.69073C8.24379 1.3967 8.01018 1.16309 7.71615 1.0413Z" stroke="#263558" stroke-width="1.2"/>
</svg>
