<svg width="17" height="17" viewBox="0 0 17 17" fill="none" xmlns="http://www.w3.org/2000/svg">
<path d="M2.54907 4.73893C2.54907 3.48185 2.54907 2.85331 2.9396 2.46279C3.33012 2.07227 3.95866 2.07227 5.21574 2.07227C6.47282 2.07227 7.10136 2.07227 7.49188 2.46279C7.88241 2.85331 7.88241 3.48185 7.88241 4.73893C7.88241 5.99601 7.88241 6.62455 7.49188 7.01507C7.10136 7.4056 6.47282 7.4056 5.21574 7.4056C3.95866 7.4056 3.33012 7.4056 2.9396 7.01507C2.54907 6.62455 2.54907 5.99601 2.54907 4.73893Z" stroke="#55291B"/>
<path d="M9.88232 12.0722C9.88232 10.8151 9.88232 10.1866 10.2728 9.79604C10.6634 9.40552 11.2919 9.40552 12.549 9.40552C13.8061 9.40552 14.4346 9.40552 14.8251 9.79604C15.2157 10.1866 15.2157 10.8151 15.2157 12.0722C15.2157 13.3293 15.2157 13.9578 14.8251 14.3483C14.4346 14.7389 13.8061 14.7389 12.549 14.7389C11.2919 14.7389 10.6634 14.7389 10.2728 14.3483C9.88232 13.9578 9.88232 13.3293 9.88232 12.0722Z" stroke="#55291B"/>
<path d="M2.54907 12.0722C2.54907 10.8151 2.54907 10.1866 2.9396 9.79604C3.33012 9.40552 3.95866 9.40552 5.21574 9.40552C6.47282 9.40552 7.10136 9.40552 7.49188 9.79604C7.88241 10.1866 7.88241 10.8151 7.88241 12.0722C7.88241 13.3293 7.88241 13.9578 7.49188 14.3483C7.10136 14.7389 6.47282 14.7389 5.21574 14.7389C3.95866 14.7389 3.33012 14.7389 2.9396 14.3483C2.54907 13.9578 2.54907 13.3293 2.54907 12.0722Z" stroke="#55291B"/>
<path d="M9.88232 4.73893C9.88232 3.48185 9.88232 2.85331 10.2728 2.46279C10.6634 2.07227 11.2919 2.07227 12.549 2.07227C13.8061 2.07227 14.4346 2.07227 14.8251 2.46279C15.2157 2.85331 15.2157 3.48185 15.2157 4.73893C15.2157 5.99601 15.2157 6.62455 14.8251 7.01507C14.4346 7.4056 13.8061 7.4056 12.549 7.4056C11.2919 7.4056 10.6634 7.4056 10.2728 7.01507C9.88232 6.62455 9.88232 5.99601 9.88232 4.73893Z" stroke="#55291B"/>
</svg>
