<svg width="15" height="12" viewBox="0 0 15 12" fill="none" xmlns="http://www.w3.org/2000/svg">
<path d="M0.849976 5.9C0.849976 3.35442 0.849976 2.08162 1.64079 1.29081C2.4316 0.5 3.70439 0.5 6.24998 0.5H8.94998C11.4956 0.5 12.7684 0.5 13.5592 1.29081C14.35 2.08162 14.35 3.35442 14.35 5.9C14.35 8.44558 14.35 9.71838 13.5592 10.5092C12.7684 11.3 11.4956 11.3 8.94998 11.3H6.24998C3.70439 11.3 2.4316 11.3 1.64079 10.5092C0.849976 9.71838 0.849976 8.44558 0.849976 5.9Z" stroke="white"/>
<path d="M3.54993 3.19995L5.00718 4.41433C6.24691 5.44744 6.86678 5.96399 7.59993 5.96399C8.33308 5.96399 8.95294 5.44744 10.1927 4.41433L11.6499 3.19995" stroke="white" stroke-linecap="round"/>
</svg>
