<svg width="4" height="4" viewBox="0 0 10 14" fill="none" xmlns="http://www.w3.org/2000/svg">
<path d="M2.1875 1.11658V0.679077C1.94588 0.679077 1.75 0.874955 1.75 1.11658H2.1875ZM6.85417 1.11658H7.29167C7.29167 0.874955 7.09578 0.679077 6.85417 0.679077V1.11658ZM4.95833 8.69991V8.26241H4.08333V8.69991H4.95833ZM4.08333 11.0332V11.4707H4.95833V11.0332H4.08333ZM5.6875 10.3041H6.125V9.42908H5.6875V10.3041ZM3.35417 9.42908H2.91667V10.3041H3.35417V9.42908ZM8.16667 9.57491V11.6166H9.04167V9.57491H8.16667ZM7.4375 12.3457H1.60417V13.2207H7.4375V12.3457ZM0.875 11.6166V9.57491H0V11.6166H0.875ZM1.60417 12.3457C1.20146 12.3457 0.875 12.0193 0.875 11.6166H0C0 12.5025 0.718212 13.2207 1.60417 13.2207V12.3457ZM8.16667 11.6166C8.16667 12.0193 7.84023 12.3457 7.4375 12.3457V13.2207C8.32347 13.2207 9.04167 12.5025 9.04167 11.6166H8.16667ZM2.1875 1.55408H6.85417V0.679077H2.1875V1.55408ZM6.41667 1.11658V3.44991H7.29167V1.11658H6.41667ZM6.85417 3.01241H2.1875V3.88741H6.85417V3.01241ZM2.625 3.44991V1.11658H1.75V3.44991H2.625ZM4.08333 8.69991V9.86658H4.95833V8.69991H4.08333ZM4.08333 9.86658V11.0332H4.95833V9.86658H4.08333ZM5.6875 9.42908H4.52083V10.3041H5.6875V9.42908ZM4.52083 9.42908H3.35417V10.3041H4.52083V9.42908ZM4.52083 6.51241C4.06508 6.51241 3.64788 6.35211 3.32091 6.08442L2.76664 6.76149C3.24423 7.1525 3.85566 7.38741 4.52083 7.38741V6.51241ZM3.32091 6.08442C2.89537 5.73608 2.625 5.20808 2.625 4.61658H1.75C1.75 5.48149 2.1468 6.25405 2.76664 6.76149L3.32091 6.08442ZM2.96217 5.99313C1.27542 6.31338 0 7.79475 0 9.57491H0.875C0.875 8.2228 1.84388 7.09609 3.12538 6.85279L2.96217 5.99313ZM6.41667 4.61658C6.41667 5.20808 6.14629 5.73608 5.72075 6.08442L6.27503 6.76149C6.89488 6.25405 7.29167 5.48149 7.29167 4.61658H6.41667ZM5.72075 6.08442C5.39379 6.35211 4.97659 6.51241 4.52083 6.51241V7.38741C5.18601 7.38741 5.79746 7.1525 6.27503 6.76149L5.72075 6.08442ZM5.91628 6.85279C7.19781 7.09609 8.16667 8.2228 8.16667 9.57491H9.04167C9.04167 7.79475 7.76627 6.31338 6.0795 5.99313L5.91628 6.85279ZM2.625 4.61658V3.44991H1.75V4.61658H2.625ZM6.41667 3.44991V4.61658H7.29167V3.44991H6.41667Z" stroke="#BEC2C3"/>
</svg>
