<svg width="14" height="14" viewBox="0 0 14 14" fill="white" xmlns="http://www.w3.org/2000/svg">
<path d="M6.77284 4.24996C6.77284 5.07838 6.10126 5.74996 5.27282 5.74996C4.44439 5.74996 3.77281 5.07838 3.77281 4.24996C3.77281 5.07838 3.10124 5.74996 2.27281 5.74996C2.16981 5.74996 2.06924 5.73604 1.97266 5.70994M1.97266 5.70994C1.33984 5.539 0.878332 4.84504 1.02854 4.11462C1.05141 4.00338 1.0983 3.89898 1.14908 3.7974L2.24114 1.61329C2.44441 1.20676 2.85992 0.949951 3.31445 0.949951H10.1815C10.6616 0.949951 11.0954 1.23606 11.2845 1.67732L11.8727 3.04995M1.97266 5.70994V11.75H3.17266M7.85722 7.43452L11.0881 10.6654M7.85722 7.43452L6.24178 9.04996C5.34962 9.94216 5.34962 11.3886 6.24178 12.2808C7.13398 13.173 8.58046 13.173 9.47266 12.2808L11.0881 10.6654M7.85722 7.43452L9.47266 5.81908C10.3649 4.92691 11.8113 4.92691 12.7035 5.81908C13.5957 6.71128 13.5957 8.15776 12.7035 9.04996L11.0881 10.6654" stroke="#263558" stroke-linecap="round" stroke-linejoin="round"/>
</svg>
