<svg width="12" height="14" viewBox="0 0 12 14" fill="none" xmlns="http://www.w3.org/2000/svg">
<path d="M1.85254 1.64683C1.85254 1.36726 1.85254 1.22748 1.89821 1.11722C1.95911 0.970199 2.07591 0.853395 2.22293 0.792498C2.33319 0.746826 2.47297 0.746826 2.75254 0.746826H8.15254C8.4321 0.746826 8.57189 0.746826 8.68215 0.792498C8.82917 0.853395 8.94597 0.970199 9.00687 1.11722C9.05254 1.22748 9.05254 1.36726 9.05254 1.64683C9.05254 1.92639 9.05254 2.06617 9.00687 2.17644C8.94597 2.32345 8.82917 2.44026 8.68215 2.50115C8.57189 2.54683 8.4321 2.54683 8.15254 2.54683H2.75254C2.47297 2.54683 2.33319 2.54683 2.22293 2.50115C2.07591 2.44026 1.95911 2.32345 1.89821 2.17644C1.85254 2.06617 1.85254 1.92639 1.85254 1.64683Z" stroke="#263558"/>
<path d="M0.952148 10.3469H5.75215" stroke="#263558" stroke-linecap="round"/>
<path d="M0.952148 5.54688H9.95215" stroke="#263558" stroke-linecap="round"/>
<path d="M5.75234 12.7469H3.6265C3.28383 12.7469 3.1125 12.7469 2.95008 12.7246C2.46831 12.6585 2.01799 12.4475 1.65877 12.1198C1.53767 12.0093 1.42798 11.8776 1.20861 11.6144C0.849183 11.1831 0.652344 10.6394 0.652344 10.078V6.10037C0.652344 5.37129 0.983759 4.68174 1.55308 4.22629L2.99495 3.07279C3.32047 2.81237 3.48323 2.68217 3.67607 2.61452C3.86892 2.54688 4.07735 2.54688 4.49422 2.54688H6.43797C6.85862 2.54688 7.06895 2.54688 7.26328 2.61567C7.45761 2.68447 7.62109 2.81681 7.94804 3.08149L9.36242 4.22646C9.92531 4.68214 10.2523 5.36763 10.2523 6.09185V7.04687" stroke="#263558" stroke-linecap="round"/>
<path d="M5.45195 6.74683V9.14683M4.25195 7.94683L6.65195 7.94683" stroke="#263558" stroke-linecap="round"/>
<path d="M8.31554 9.61046C8.31554 9.61046 8.91085 9.73686 9.58646 10.4125C10.2621 11.0881 10.3884 11.6833 10.3884 11.6833M11.0102 8.98861C11.5826 9.56101 11.6012 10.4705 11.0517 11.02L9.72506 12.3466C9.17556 12.8961 8.26609 12.8775 7.69369 12.3051C7.1213 11.7327 7.10274 10.8233 7.65224 10.2738L8.97884 8.94716C9.52834 8.39766 10.4378 8.41622 11.0102 8.98861Z" stroke="#263558"/>
</svg>
