<svg width="39" height="35" viewBox="0 0 39 35" fill="none" xmlns="http://www.w3.org/2000/svg">
<path d="M37.742 34.2079C38.2943 34.2079 38.742 33.7602 38.742 33.2079C38.742 32.6557 38.2943 32.2079 37.742 32.2079V34.2079ZM1.258 32.2079C0.705711 32.2079 0.257996 32.6557 0.257996 33.2079C0.257996 33.7602 0.705711 34.2079 1.258 34.2079V32.2079ZM27.5524 2.71168L26.8999 3.46945V3.46945L27.5524 2.71168ZM34.2964 7.0335L33.7977 7.90026V7.90026L34.2964 7.0335ZM35.303 7.90029L34.5129 8.51333V8.51333L35.303 7.90029ZM4.70366 7.0335L5.20237 7.90026H5.20238L4.70366 7.0335ZM3.69707 7.90029L4.48712 8.51333H4.48712L3.69707 7.90029ZM18.5 33.2079C18.5 33.7602 18.9477 34.2079 19.5 34.2079C20.0523 34.2079 20.5 33.7602 20.5 33.2079H18.5ZM20.5 28.4954C20.5 27.9431 20.0523 27.4954 19.5 27.4954C18.9477 27.4954 18.5 27.9431 18.5 28.4954H20.5ZM15.8516 16.4997C15.2993 16.4997 14.8516 16.9474 14.8516 17.4997C14.8516 18.052 15.2993 18.4997 15.8516 18.4997V16.4997ZM23.1484 18.4997C23.7007 18.4997 24.1484 18.052 24.1484 17.4997C24.1484 16.9474 23.7007 16.4997 23.1484 16.4997V18.4997ZM7.64271 14.9291C7.09042 14.9291 6.64271 15.3768 6.64271 15.9291C6.64271 16.4814 7.09042 16.9291 7.64271 16.9291V14.9291ZM10.379 16.9291C10.9313 16.9291 11.379 16.4814 11.379 15.9291C11.379 15.3768 10.9313 14.9291 10.379 14.9291V16.9291ZM7.64271 19.6416C7.09042 19.6416 6.64271 20.0893 6.64271 20.6416C6.64271 21.1939 7.09042 21.6416 7.64271 21.6416V19.6416ZM10.379 21.6416C10.9313 21.6416 11.379 21.1939 11.379 20.6416C11.379 20.0893 10.9313 19.6416 10.379 19.6416V21.6416ZM28.621 14.9291C28.0688 14.9291 27.621 15.3768 27.621 15.9291C27.621 16.4814 28.0688 16.9291 28.621 16.9291V14.9291ZM31.3573 16.9291C31.9096 16.9291 32.3573 16.4814 32.3573 15.9291C32.3573 15.3768 31.9096 14.9291 31.3573 14.9291V16.9291ZM28.621 19.6416C28.0688 19.6416 27.621 20.0893 27.621 20.6416C27.621 21.1939 28.0688 21.6416 28.621 21.6416V19.6416ZM31.3573 21.6416C31.9096 21.6416 32.3573 21.1939 32.3573 20.6416C32.3573 20.0893 31.9096 19.6416 31.3573 19.6416V21.6416ZM7.64271 10.2166C7.09042 10.2166 6.64271 10.6643 6.64271 11.2166C6.64271 11.7688 7.09042 12.2166 7.64271 12.2166V10.2166ZM10.379 12.2166C10.9313 12.2166 11.379 11.7688 11.379 11.2166C11.379 10.6643 10.9313 10.2166 10.379 10.2166V12.2166ZM28.621 10.2166C28.0688 10.2166 27.621 10.6643 27.621 11.2166C27.621 11.7688 28.0688 12.2166 28.621 12.2166V10.2166ZM31.3573 12.2166C31.9096 12.2166 32.3573 11.7688 32.3573 11.2166C32.3573 10.6643 31.9096 10.2166 31.3573 10.2166V12.2166ZM15.8516 21.2122C15.2993 21.2122 14.8516 21.66 14.8516 22.2122C14.8516 22.7645 15.2993 23.2122 15.8516 23.2122V21.2122ZM23.1484 23.2122C23.7007 23.2122 24.1484 22.7645 24.1484 22.2122C24.1484 21.66 23.7007 21.2122 23.1484 21.2122V23.2122ZM18.5 12.7874C18.5 13.3397 18.9477 13.7874 19.5 13.7874C20.0523 13.7874 20.5 13.3397 20.5 12.7874H18.5ZM20.5 6.50403C20.5 5.95174 20.0523 5.50403 19.5 5.50403C18.9477 5.50403 18.5 5.95174 18.5 6.50403H20.5ZM23.1484 10.6453C23.7007 10.6453 24.1484 10.1976 24.1484 9.64532C24.1484 9.09303 23.7007 8.64532 23.1484 8.64532V10.6453ZM15.8516 8.64532C15.2993 8.64532 14.8516 9.09303 14.8516 9.64532C14.8516 10.1976 15.2993 10.6453 15.8516 10.6453V8.64532ZM37.742 32.2079H1.258V34.2079H37.742V32.2079ZM17.6758 2.7915H21.3242V0.791504H17.6758V2.7915ZM27.621 8.07487V33.2083H29.621V8.07487H27.621ZM11.379 33.2083V8.07487H9.37901V33.2083H11.379ZM21.3242 2.7915C23.0685 2.7915 24.29 2.79309 25.2125 2.89989C26.1197 3.00492 26.5848 3.1981 26.8999 3.46945L28.205 1.95391C27.4515 1.30509 26.5223 1.03817 25.4425 0.913161C24.378 0.789922 23.0197 0.791504 21.3242 0.791504V2.7915ZM29.621 8.07487C29.621 6.62654 29.6239 5.42374 29.4755 4.47333C29.3199 3.47696 28.98 2.6213 28.205 1.95391L26.8999 3.46945C27.1935 3.72224 27.3878 4.06718 27.4994 4.78185C27.6182 5.54248 27.621 6.56119 27.621 8.07487H29.621ZM17.6758 0.791504C15.9804 0.791504 14.622 0.789922 13.5575 0.913161C12.4777 1.03817 11.5486 1.30509 10.7951 1.95391L12.1001 3.46945C12.4152 3.1981 12.8803 3.00492 13.7875 2.89989C14.7101 2.79309 15.9315 2.7915 17.6758 2.7915V0.791504ZM11.379 8.07487C11.379 6.56119 11.3819 5.54248 11.5006 4.78185C11.6122 4.06718 11.8066 3.72224 12.1001 3.46945L10.7951 1.95391C10.02 2.6213 9.68012 3.47696 9.52456 4.47333C9.37617 5.42374 9.37901 6.62654 9.37901 8.07487H11.379ZM34.9179 12.002V33.2083H36.9179V12.002H34.9179ZM29.5331 7.50403C30.8321 7.50403 31.7415 7.50493 32.4432 7.5664C33.1346 7.62696 33.5189 7.73985 33.7977 7.90026L34.7951 6.16673C34.1537 5.79768 33.4374 5.64583 32.6177 5.57403C31.8084 5.50313 30.7962 5.50403 29.5331 5.50403V7.50403ZM36.9179 12.002C36.9179 10.923 36.9195 10.0264 36.8341 9.30364C36.7457 8.55531 36.5539 7.88123 36.093 7.28725L34.5129 8.51333C34.6669 8.71174 34.7826 8.98542 34.8479 9.53828C34.9162 10.1167 34.9179 10.8748 34.9179 12.002H36.9179ZM33.7977 7.90026C34.09 8.06849 34.331 8.27891 34.5129 8.51333L36.093 7.28725C35.7426 6.83558 35.2995 6.45693 34.7951 6.16673L33.7977 7.90026ZM2.0822 12.002V33.2083H4.0822V12.002H2.0822ZM9.46691 5.50403C8.20385 5.50403 7.19168 5.50313 6.38234 5.57403C5.56265 5.64583 4.84636 5.79768 4.20494 6.16673L5.20238 7.90026C5.48117 7.73985 5.8655 7.62696 6.55687 7.5664C7.25859 7.50493 8.16794 7.50403 9.46691 7.50403V5.50403ZM4.0822 12.002C4.0822 10.8748 4.08382 10.1167 4.15215 9.53828C4.21746 8.98542 4.33316 8.71174 4.48712 8.51333L2.90701 7.28725C2.44611 7.88123 2.25437 8.55531 2.16596 9.30364C2.08057 10.0264 2.0822 10.923 2.0822 12.002H4.0822ZM4.20494 6.16673C3.70058 6.45693 3.25749 6.83557 2.90701 7.28725L4.48712 8.51333C4.66901 8.27892 4.91 8.06849 5.20237 7.90026L4.20494 6.16673ZM20.5 33.2079V28.4954H18.5V33.2079H20.5ZM15.8516 18.4997H23.1484V16.4997H15.8516V18.4997ZM7.64271 16.9291H10.379V14.9291H7.64271V16.9291ZM7.64271 21.6416H10.379V19.6416H7.64271V21.6416ZM28.621 16.9291H31.3573V14.9291H28.621V16.9291ZM28.621 21.6416H31.3573V19.6416H28.621V21.6416ZM7.64271 12.2166H10.379V10.2166H7.64271V12.2166ZM28.621 12.2166H31.3573V10.2166H28.621V12.2166ZM15.8516 23.2122H23.1484V21.2122H15.8516V23.2122ZM20.5 12.7874V6.50403H18.5V12.7874H20.5ZM23.1484 8.64532H15.8516V10.6453H23.1484V8.64532Z" fill="#263558"/>
</svg>
