<svg width="16" height="18" viewBox="0 0 16 18" fill="none" xmlns="http://www.w3.org/2000/svg">
<path d="M1.5 12.25C1.5 10.1287 1.5 9.06802 2.07114 8.40901C2.64228 7.75 3.56152 7.75 5.4 7.75H10.6C12.4385 7.75 13.3577 7.75 13.9289 8.40901C14.5 9.06802 14.5 10.1287 14.5 12.25C14.5 14.3713 14.5 15.432 13.9289 16.091C13.3577 16.75 12.4385 16.75 10.6 16.75H5.4C3.56152 16.75 2.64228 16.75 2.07114 16.091C1.5 15.432 1.5 14.3713 1.5 12.25Z" stroke="#1C274C" stroke-width="1.2"/>
<path d="M3.19995 7.65V6.05C3.19995 3.39903 5.34898 1.25 7.99995 1.25C10.6509 1.25 12.7999 3.39903 12.7999 6.05V7.65" stroke="#1C274C" stroke-width="1.2" stroke-linecap="round"/>
<path d="M4.80005 12.4502H4.80725M7.99285 12.4502H8.00005M11.1928 12.4502H11.2" stroke="#1C274C" stroke-linecap="round" stroke-linejoin="round"/>
</svg>
