<svg width="12" height="13" viewBox="0 0 12 13" fill="none" xmlns="http://www.w3.org/2000/svg">
<g opacity="0.8">
<path d="M4.93405 11.9872C2.87067 11.1011 1.31152 7.38313 1.31152 5.19101C1.31152 2.88562 3.18913 1 5.48472 1H6.18136C8.47695 1 10.3546 2.88562 10.3546 5.19101C10.3546 7.4431 8.70253 11.3143 6.5529 12.0539" stroke="#263558" stroke-miterlimit="10" stroke-linecap="round"/>
<path d="M1.35827 5.90381L1.31182 6.86994C1.13932 6.86994 1 7.00986 1 7.1831C1 7.56289 1.18577 7.92269 1.50423 8.13591L2.10799 8.54901" stroke="#263558" stroke-miterlimit="10" stroke-linecap="round"/>
<path d="M10.3083 5.90381L10.3547 6.86994C10.5273 6.86994 10.6666 7.00986 10.6666 7.1831C10.6666 7.56289 10.4808 7.92269 10.1623 8.13591L9.55859 8.54901" stroke="#263558" stroke-miterlimit="10" stroke-linecap="round"/>
<path d="M2.45996 6.09071L3.50824 4.95135C3.68074 4.76478 3.79352 4.53824 3.83333 4.28505L4.0191 3.21897C4.05891 2.9991 4.33756 2.93913 4.46362 3.11237L4.90151 3.71203C5.14035 4.03852 5.51853 4.22508 5.91661 4.22508H7.6947C8.49086 4.22508 9.14105 4.87805 9.14105 5.67761V6.09071" stroke="#263558" stroke-miterlimit="10" stroke-linecap="round"/>
<path d="M4.21144 11.5543C4.21144 11.5543 3.7072 10.808 4.2048 9.90185C4.80855 8.79579 5.25308 7.98291 5.83693 7.98291" stroke="#263558" stroke-miterlimit="10" stroke-linecap="round"/>
<path d="M7.4622 11.5476C7.4622 11.5476 7.95979 10.808 7.4622 9.90185C6.85844 8.79579 6.39402 7.98291 5.83008 7.98291" stroke="#263558" stroke-miterlimit="10" stroke-linecap="round"/>
<path d="M4.91465 6.59668C4.91465 6.87668 4.73552 7.11001 4.26446 7.11001C3.80667 7.11001 3.61426 6.88335 3.61426 6.59668" stroke="#263558" stroke-miterlimit="10" stroke-linecap="round"/>
<path d="M8.05234 6.59668C8.05234 6.87668 7.87321 7.11001 7.40215 7.11001C6.94436 7.11001 6.75195 6.88335 6.75195 6.59668" stroke="#263558" stroke-miterlimit="10" stroke-linecap="round"/>
</g>
</svg>
