<svg width="19" height="19" viewBox="0 0 19 19" fill="none" xmlns="http://www.w3.org/2000/svg">
<g clip-path="url(#clip0_2250_18440)">
<path d="M8.9094 18.0183C7.38104 18.0183 6.13647 16.7745 6.13647 15.2454C6.13647 14.9392 6.38493 14.6908 6.69106 14.6908C6.99719 14.6908 7.24564 14.9392 7.24564 15.2454C7.24564 16.1631 7.99249 16.9091 8.9094 16.9091C9.8263 16.9091 10.5732 16.1631 10.5732 15.2454C10.5732 14.9392 10.8216 14.6908 11.1277 14.6908C11.4339 14.6908 11.6823 14.9392 11.6823 15.2454C11.6823 16.7745 10.4379 18.0183 8.9094 18.0183Z" fill="#7063EE"/>
<path d="M15.0095 15.8H2.80863C2.09509 15.8 1.51465 15.2196 1.51465 14.506C1.51465 14.1273 1.67956 13.7688 1.96714 13.5225C1.98569 13.5063 2.0056 13.4915 2.02631 13.4781C3.11179 12.5309 3.73299 11.1681 3.73299 9.72911V7.66607C3.73299 4.81191 6.05558 2.48999 8.90906 2.48999C9.0274 2.48999 9.15535 2.49216 9.27369 2.5122C9.57603 2.56243 9.78021 2.84866 9.72984 3.15032C9.67961 3.45198 9.38823 3.65616 9.09171 3.60579C9.03255 3.59618 8.96756 3.59916 8.90906 3.59916C6.66717 3.59916 4.84216 5.42336 4.84216 7.66607V9.72911C4.84216 11.5157 4.05902 13.2061 2.69558 14.3662C2.68448 14.3751 2.67486 14.3832 2.66295 14.3914C2.64304 14.4165 2.62382 14.455 2.62382 14.506C2.62382 14.6065 2.70817 14.6909 2.80863 14.6909H15.0095C15.1101 14.6909 15.1944 14.6065 15.1944 14.506C15.1944 14.4542 15.1752 14.4165 15.1545 14.3914C15.1434 14.3832 15.1338 14.3751 15.1227 14.3662C13.7584 13.2053 12.9761 11.5157 12.9761 9.72911V8.92323C12.9761 8.61709 13.2246 8.36864 13.5307 8.36864C13.8368 8.36864 14.0853 8.61709 14.0853 8.92323V9.72911C14.0853 11.1689 14.7072 12.5324 15.7941 13.4804C15.814 13.4937 15.8332 13.5078 15.851 13.5233C16.1387 13.7688 16.3036 14.1273 16.3036 14.506C16.3036 15.2196 15.7232 15.8 15.0095 15.8Z" fill="#7063EE"/>
<path d="M14.0855 7.66614C12.0468 7.66614 10.3882 6.00767 10.3882 3.969C10.3882 1.93034 12.0468 0.271729 14.0855 0.271729C16.1241 0.271729 17.7826 1.93034 17.7826 3.969C17.7826 6.00767 16.1241 7.66614 14.0855 7.66614ZM14.0855 1.3809C12.6582 1.3809 11.4974 2.54179 11.4974 3.969C11.4974 5.39608 12.6582 6.55697 14.0855 6.55697C15.5125 6.55697 16.6734 5.39608 16.6734 3.969C16.6734 2.54179 15.5125 1.3809 14.0855 1.3809Z" fill="#7063EE"/>
</g>
<defs>
<clipPath id="clip0_2250_18440">
<rect width="17.7467" height="17.7467" fill="white" transform="translate(0.786865 0.271729)"/>
</clipPath>
</defs>
</svg>
