<svg width="25" height="31" viewBox="0 0 25 31" fill="none" xmlns="http://www.w3.org/2000/svg">
<path fill-rule="evenodd" clip-rule="evenodd" d="M12.5 0C8.75241 0 5.71439 3.06633 5.71439 6.84884C5.71439 10.6313 8.75241 13.6977 12.5 13.6977C16.2476 13.6977 19.2856 10.6313 19.2856 6.84884C19.2856 3.06633 16.2476 0 12.5 0ZM7.85721 6.84884C7.85721 4.26081 9.93586 2.16279 12.5 2.16279C15.0641 2.16279 17.1428 4.26081 17.1428 6.84884C17.1428 9.43687 15.0641 11.5349 12.5 11.5349C9.93586 11.5349 7.85721 9.43687 7.85721 6.84884Z" fill="#263558"/>
<path fill-rule="evenodd" clip-rule="evenodd" d="M12.5 15.8605C9.19498 15.8605 6.14999 16.6187 3.89363 17.8997C1.67086 19.1617 0.000191734 21.0743 0.000191734 23.4302L9.69645e-05 23.5772C-0.00151693 25.2525 -0.00354251 27.3549 1.82361 28.8567C2.72284 29.5958 3.98081 30.1214 5.6804 30.4686C7.38474 30.8168 9.60608 31 12.5 31C15.3939 31 17.6153 30.8168 19.3196 30.4686C21.0192 30.1214 22.2772 29.5958 23.1764 28.8567C25.0035 27.3549 25.0015 25.2525 24.9999 23.5772L24.9998 23.4302C24.9998 21.0743 23.3291 19.1617 21.1064 17.8997C18.85 16.6187 15.805 15.8605 12.5 15.8605ZM2.14302 23.4302C2.14302 22.2027 3.03069 20.8711 4.94418 19.7848C6.82408 18.7175 9.49329 18.0233 12.5 18.0233C15.5067 18.0233 18.1759 18.7175 20.0558 19.7848C21.9693 20.8711 22.857 22.2027 22.857 23.4302C22.857 25.3159 22.7994 26.3774 21.8233 27.1797C21.294 27.6147 20.4091 28.0394 18.8945 28.3488C17.3846 28.6573 15.3203 28.8372 12.5 28.8372C9.67972 28.8372 7.61542 28.6573 6.10551 28.3488C4.59087 28.0394 3.70602 27.6147 3.1767 27.1797C2.20061 26.3774 2.14302 25.3159 2.14302 23.4302Z" fill="#263558"/>
</svg>
