<svg width="40" height="40" viewBox="0 0 35 33" fill="white" xmlns="http://www.w3.org/2000/svg">
<path d="M16.4172 9.75001C16.4172 11.8211 14.6585 13.5 12.4891 13.5C10.3197 13.5 8.56109 11.8211 8.56109 9.75001C8.56109 11.8211 6.80246 13.5 4.63307 13.5C4.36334 13.5 4.09998 13.4652 3.84706 13.4M3.84706 13.4C2.18992 12.9726 0.981378 11.2377 1.37471 9.41167C1.43461 9.13358 1.5574 8.87257 1.69039 8.61863L4.55013 3.15836C5.08242 2.14202 6.17053 1.5 7.3608 1.5H25.3434C26.6005 1.5 27.7367 2.21528 28.2317 3.31842L29.772 6.75001M3.84706 13.4V28.5H6.98948M19.2568 17.7114L27.7175 25.7886M19.2568 17.7114L15.0265 21.75C12.6902 23.9805 12.6902 27.5967 15.0265 29.8272C17.3629 32.0576 21.1508 32.0576 23.4872 29.8272L27.7175 25.7886M19.2568 17.7114L23.4872 13.6728C25.8236 11.4424 29.6114 11.4424 31.9478 13.6728C34.284 15.9033 34.284 19.5195 31.9478 21.75L27.7175 25.7886" stroke="white" stroke-width="6" stroke-linecap="round" stroke-linejoin="round"/>
</svg>
