<svg width="15" height="14" viewBox="0 0 15 14" fill="white" xmlns="http://www.w3.org/2000/svg">
<path d="M5.75552 1.56939L6.28284 2.51427C6.75872 3.36697 6.56769 4.48557 5.81818 5.23509C5.81818 5.23509 5.81818 5.23509 5.81818 5.23509C5.81806 5.2352 4.90915 6.14433 6.55739 7.79258C8.20498 9.44017 9.11407 8.53261 9.11489 8.5318C9.11491 8.53178 9.1149 8.53179 9.11492 8.53176C9.86443 7.78228 10.983 7.59126 11.8357 8.06713L12.7806 8.59446C14.0682 9.31305 14.2202 11.1188 13.0885 12.2505C12.4084 12.9306 11.5753 13.4598 10.6543 13.4947C9.10398 13.5535 6.47108 13.1611 3.82998 10.52C1.18889 7.8789 0.796525 5.24599 0.855299 3.69563C0.890212 2.77468 1.41938 1.94157 2.09944 1.2615C3.23121 0.129729 5.03693 0.281793 5.75552 1.56939Z" stroke="white" stroke-linecap="round"/>
</svg>
