<svg width="31" height="31" viewBox="0 0 23 31" fill="white" xmlns="http://www.w3.org/2000/svg">
<path d="M5.56452 1.23627V0.166504C4.94988 0.166504 4.45161 0.64546 4.45161 1.23627H5.56452ZM17.4355 1.23627H18.5484C18.5484 0.64546 18.0501 0.166504 17.4355 0.166504V1.23627ZM12.6129 19.7789V18.7091H10.3871V19.7789H12.6129ZM10.3871 25.4843V26.5541H12.6129V25.4843H10.3871ZM14.4677 23.7014H15.5806V21.5619H14.4677V23.7014ZM8.53226 21.5619H7.41935V23.7014H8.53226V21.5619ZM20.7742 21.9184V26.9107H23V21.9184H20.7742ZM18.9194 28.6936H4.08065V30.8332H18.9194V28.6936ZM2.22581 26.9107V21.9184H0V26.9107H2.22581ZM4.08065 28.6936C3.05624 28.6936 2.22581 27.8954 2.22581 26.9107H0C0 29.077 1.82697 30.8332 4.08065 30.8332V28.6936ZM20.7742 26.9107C20.7742 27.8954 19.9438 28.6936 18.9194 28.6936V30.8332C21.1731 30.8332 23 29.077 23 26.9107H20.7742ZM5.56452 2.30604H17.4355V0.166504H5.56452V2.30604ZM16.3226 1.23627V6.9417H18.5484V1.23627H16.3226ZM17.4355 5.87193H5.56452V8.01147H17.4355V5.87193ZM6.67742 6.9417V1.23627H4.45161V6.9417H6.67742ZM10.3871 19.7789V22.6316H12.6129V19.7789H10.3871ZM10.3871 22.6316V25.4843H12.6129V22.6316H10.3871ZM14.4677 21.5619H11.5V23.7014H14.4677V21.5619ZM11.5 21.5619H8.53226V23.7014H11.5V21.5619ZM11.5 14.4301C10.3407 14.4301 9.27939 14.0381 8.44766 13.3836L7.03772 15.0391C8.25261 15.9952 9.80794 16.5696 11.5 16.5696V14.4301ZM8.44766 13.3836C7.36518 12.5318 6.67742 11.2407 6.67742 9.79441H4.45161C4.45161 11.9093 5.46099 13.7983 7.03772 15.0391L8.44766 13.3836ZM7.53511 13.1603C3.24439 13.9434 0 17.5656 0 21.9184H2.22581C2.22581 18.6123 4.69041 15.8573 7.95028 15.2624L7.53511 13.1603ZM16.3226 9.79441C16.3226 11.2407 15.6348 12.5318 14.5523 13.3836L15.9623 15.0391C17.5391 13.7983 18.5484 11.9093 18.5484 9.79441H16.3226ZM14.5523 13.3836C13.7206 14.0381 12.6593 14.4301 11.5 14.4301V16.5696C13.1921 16.5696 14.7475 15.9952 15.9623 15.0391L14.5523 13.3836ZM15.0497 15.2624C18.3096 15.8573 20.7742 18.6123 20.7742 21.9184H23C23 17.5656 19.7557 13.9434 15.4649 13.1603L15.0497 15.2624ZM6.67742 9.79441V6.9417H4.45161V9.79441H6.67742ZM16.3226 6.9417V9.79441H18.5484V6.9417H16.3226Z" fill="#263558"/>
</svg>
