<svg width="13" height="14" viewBox="0 0 13 14" fill="none" xmlns="http://www.w3.org/2000/svg">
<path d="M1.3999 3.8002C1.12376 3.8002 0.899902 4.02405 0.899902 4.3002C0.899902 4.57634 1.12376 4.8002 1.3999 4.8002V3.8002ZM2.5999 4.8002C2.87604 4.8002 3.0999 4.57634 3.0999 4.3002C3.0999 4.02405 2.87604 3.8002 2.5999 3.8002V4.8002ZM1.3999 6.2002C1.12376 6.2002 0.899902 6.42405 0.899902 6.7002C0.899902 6.97634 1.12376 7.2002 1.3999 7.2002V6.2002ZM2.5999 7.2002C2.87604 7.2002 3.0999 6.97634 3.0999 6.7002C3.0999 6.42405 2.87604 6.2002 2.5999 6.2002V7.2002ZM1.3999 8.6002C1.12376 8.6002 0.899902 8.82405 0.899902 9.1002C0.899902 9.37634 1.12376 9.6002 1.3999 9.6002V8.6002ZM2.5999 9.6002C2.87604 9.6002 3.0999 9.37634 3.0999 9.1002C3.0999 8.82405 2.87604 8.6002 2.5999 8.6002V9.6002ZM7.2999 4.9002V4.4002H6.2999V4.9002H7.2999ZM6.2999 8.5002V9.0002H7.2999V8.5002H6.2999ZM8.5999 7.2002H9.0999V6.2002H8.5999V7.2002ZM4.9999 6.2002H4.4999V7.2002H4.9999V6.2002ZM1.3999 4.8002H2.5999V3.8002H1.3999V4.8002ZM1.3999 7.2002H2.5999V6.2002H1.3999V7.2002ZM1.3999 9.6002H2.5999V8.6002H1.3999V9.6002ZM3.1999 13.2002H10.3999V12.2002H3.1999V13.2002ZM10.3999 13.2002C11.3388 13.2002 12.0999 12.4391 12.0999 11.5002H11.0999C11.0999 11.8868 10.7865 12.2002 10.3999 12.2002V13.2002ZM12.0999 11.5002V1.9002H11.0999V11.5002H12.0999ZM12.0999 1.9002C12.0999 0.961316 11.3388 0.200195 10.3999 0.200195V1.2002C10.7865 1.2002 11.0999 1.51359 11.0999 1.9002H12.0999ZM10.3999 0.200195H3.1999V1.2002H10.3999V0.200195ZM3.1999 0.200195C2.26102 0.200195 1.4999 0.961311 1.4999 1.9002H2.4999C2.4999 1.5136 2.8133 1.2002 3.1999 1.2002V0.200195ZM1.4999 1.9002V11.5002H2.4999V1.9002H1.4999ZM1.4999 11.5002C1.4999 12.4391 2.26102 13.2002 3.1999 13.2002V12.2002C2.8133 12.2002 2.4999 11.8868 2.4999 11.5002H1.4999ZM6.2999 4.9002V8.5002H7.2999V4.9002H6.2999ZM8.5999 6.2002H4.9999V7.2002H8.5999V6.2002Z" fill="white"/>
</svg>
