<svg width="192" height="31" viewBox="0 0 192 31" fill="none" xmlns="http://www.w3.org/2000/svg">
<path fill-rule="evenodd" clip-rule="evenodd" d="M5.58099 3.7462C7.72943 2.07042 10.1099 1.04777 12.8427 0.626671C14.0115 0.446203 16.8044 0.514954 17.8529 0.755577C18.8497 0.979015 19.924 1.2712 20.0958 1.36573C20.1732 1.40011 20.5857 1.58058 21.0068 1.75245C21.4365 1.93292 22.0208 2.22511 22.3216 2.40558C22.6138 2.58605 22.8716 2.73214 22.8974 2.73214C22.9232 2.73214 23.2755 2.97276 23.688 3.26495C24.5388 3.85792 26.4036 5.68839 26.9622 6.47042C28.3974 8.48136 29.1365 10.1314 29.6607 12.4603C29.8411 13.2595 29.8583 13.5603 29.8583 15.4939C29.8583 17.5478 29.8497 17.6853 29.6177 18.6735C29.4888 19.2407 29.3255 19.8595 29.2568 20.0485C28.913 21.0025 28.8357 21.2087 28.5951 21.7243C28.0021 22.9704 27.1771 24.2853 26.4294 25.1532C25.4841 26.2532 24.1263 27.422 22.8115 28.2728C22.0466 28.7626 20.6716 29.4243 19.8466 29.6821C16.306 30.8251 12.6708 30.7306 9.39662 29.4157C8.83802 29.1837 8.23646 28.9259 8.07318 28.8314C7.68646 28.6165 6.76693 28.0665 6.65521 27.9806C6.63476 27.9642 6.54029 27.8953 6.40427 27.796C6.25457 27.6867 6.05452 27.5407 5.8474 27.3876C5.00521 26.7689 3.57006 25.3509 3.06302 24.6204C2.86537 24.3368 2.57318 23.9243 2.41849 23.7095C2.12631 23.297 1.16381 21.3978 0.85443 20.6329C0.570836 19.9025 0.175524 18.2267 0.0723989 17.2985C-0.0822886 15.9064 0.0208364 13.5517 0.287243 12.3142C0.416149 11.747 0.545055 11.2228 0.588024 11.154C0.630993 11.0767 0.691149 10.8876 0.725524 10.7243C0.759899 10.561 0.820055 10.372 0.863024 10.2946C0.905993 10.2259 1.07787 9.83058 1.24974 9.40948C1.62787 8.49855 2.29818 7.35558 2.97709 6.45323C3.5099 5.73136 4.95365 4.24464 5.58099 3.7462ZM21.1615 4.92355C19.881 4.1673 19.0044 3.83214 17.5263 3.49698C16.8904 3.35089 16.3576 3.30792 15.163 3.28214C14.3122 3.27355 13.5388 3.27355 13.4443 3.29933C13.4097 3.30562 13.3463 3.31767 13.2659 3.33295C13.1267 3.35941 12.9365 3.39555 12.7568 3.42823C11.4419 3.66886 10.0669 4.1587 9.06146 4.73448C8.96693 4.79464 8.72631 4.93214 8.52865 5.04386C7.98724 5.35324 8.03881 5.50792 8.65756 5.46495C9.92084 5.37042 12.1724 5.61964 13.1865 5.9548C13.3755 6.01495 13.6591 6.0923 13.8052 6.12667C13.9599 6.16105 14.106 6.2212 14.1318 6.26417C14.1661 6.30714 14.2435 6.34152 14.3122 6.34152C14.4411 6.34152 14.8451 6.51339 15.7646 6.95167C16.3576 7.24386 16.3833 7.26105 17.3115 7.8798C18.3255 8.5587 20.0185 10.0712 20.0185 10.2946C20.0185 10.3376 19.8036 10.4493 19.5372 10.5525C18.9958 10.7501 18.2482 11.111 17.6724 11.4548C17.3286 11.6525 17.2599 11.661 17.1052 11.5665C17.0021 11.5064 16.9247 11.429 16.9247 11.3946C16.9247 11.2915 15.524 10.097 14.8451 9.63292C12.9974 8.36964 10.5826 7.63058 8.27084 7.63058C7.24818 7.63058 5.86459 7.80245 5.39193 7.98292C5.16849 8.07745 4.36927 9.18605 4.25756 9.58136C4.18881 9.81339 4.24037 9.83058 5.41771 9.95089C6.25131 10.0368 8.27084 10.4665 8.38256 10.5696C8.41693 10.6126 7.96146 11.3603 7.81537 11.4978C7.71224 11.5923 7.04193 12.7696 6.91302 13.0618C6.75834 13.44 6.62943 13.4571 5.79584 13.2681C5.51224 13.1993 4.77318 13.1134 4.15443 13.079L3.02006 13.0189L2.90834 13.2251C2.83099 13.3626 2.78802 13.9384 2.76224 14.9954L2.72787 16.5509L3.39818 16.697C3.77631 16.7743 4.17162 16.8689 4.29193 16.9118C4.41224 16.9548 4.73881 17.0493 5.0224 17.1267C5.62396 17.2814 6.61224 17.6595 7.12787 17.9345C8.77787 18.8025 8.88959 18.8712 9.92943 19.636C10.2646 19.8853 10.574 20.0915 10.6169 20.0915C10.6599 20.0915 10.9091 19.6532 11.1583 19.1204C11.7599 17.8829 12.1294 17.2556 12.2583 17.2556C12.4044 17.2556 13.1693 18.1321 13.8052 19.0431C14.3466 19.8165 14.3638 19.8509 14.2521 20.1173C14.1919 20.272 14.1146 20.4353 14.0802 20.4782C13.8997 20.7275 13.3154 22.4032 13.3154 22.6782C13.3154 23.486 13.8826 24.0446 14.699 24.0446C15.1372 24.0446 15.481 23.8642 15.756 23.5032C16.0826 23.0821 16.0568 22.4978 15.6872 21.5095C14.8365 19.2321 13.1693 17.0493 11.1927 15.6056C10.849 15.3564 10.5654 15.0985 10.5654 15.0298C10.5654 14.8923 11.1755 13.6978 11.2701 13.6634C11.313 13.6462 11.3388 13.5946 11.3388 13.5431C11.3388 13.4485 12.1294 12.3571 12.1982 12.3571C12.2669 12.3571 13.3154 13.122 13.5044 13.2939C13.5818 13.3712 13.7708 13.5259 13.9341 13.6462C14.5099 14.0759 15.5411 15.1329 16.3404 16.1212C16.9763 16.9118 18.4716 19.4728 18.4716 19.7821C18.4716 19.8423 18.5318 19.9454 18.6005 20.0056C18.7122 20.1001 18.7724 20.0915 18.9701 19.9368C19.099 19.8337 19.4083 19.6103 19.6661 19.4384L20.1302 19.1204L20.0786 18.4243C20.0185 17.6595 19.8294 16.7056 19.5802 15.9407C19.4857 15.6657 19.4341 15.4079 19.4599 15.365C19.5115 15.279 20.388 14.815 20.9638 14.5657C22.2615 14.0071 22.3904 13.9985 22.5622 14.4626C23.224 16.2759 23.456 17.4446 23.5161 19.2235C23.5763 20.8306 23.3701 22.154 22.7513 24.0704C22.4849 24.9126 22.4763 25.0673 22.7083 24.9298C23.181 24.6634 24.7794 22.9017 25.3036 22.0681C25.888 21.14 26.2661 20.2634 26.0771 20.2634C25.9826 20.2634 25.0802 20.5212 24.6247 20.6845C24.3411 20.7876 24.0919 20.865 24.0661 20.865C24.0318 20.865 24.0232 20.461 24.0404 19.9712C24.0576 19.49 24.0318 18.6821 23.9802 18.2009C23.9029 17.5048 23.9029 17.2985 23.9888 17.247C24.1263 17.161 25.5443 16.7915 26.4552 16.5939L27.1685 16.4478L27.1427 14.8837C27.1169 13.6634 27.0826 13.2939 26.9794 13.1735C26.8591 13.036 26.7302 13.0275 25.4411 13.0704C23.9802 13.1306 23.4474 13.2165 21.9521 13.6634C20.5255 14.0931 18.738 15.0556 17.5779 16.0267C17.3888 16.1814 17.2083 16.3103 17.1826 16.3103C17.1482 16.3103 16.9076 16.0267 16.6411 15.6829C16.3747 15.3478 15.9279 14.8321 15.6443 14.5485C15.3521 14.265 15.1201 13.99 15.1201 13.9384C15.1201 13.8868 15.2661 13.7321 15.4466 13.5946C15.5175 13.538 15.5912 13.4798 15.6577 13.4274C15.7525 13.3528 15.8324 13.2898 15.8677 13.2595C16.3747 12.8298 17.4919 12.1165 18.3857 11.6439C20.1646 10.7157 22.0896 10.1314 23.9716 9.95089C25.5357 9.7962 25.6904 9.77042 25.6904 9.6673C25.6904 9.54698 25.0458 8.46417 24.8997 8.34386C24.7279 8.19777 23.3271 7.83683 22.5107 7.71652C21.6685 7.5962 19.8466 7.63917 18.9185 7.80245L18.2997 7.90558L17.5865 7.43292C17.1997 7.17511 16.5724 6.80558 16.1943 6.59933C15.8161 6.40167 15.4982 6.2298 15.481 6.21261C15.438 6.16964 16.581 5.85167 17.2685 5.70558C18.1708 5.52511 18.9958 5.46495 20.474 5.47355C21.9607 5.48214 22.0294 5.43058 21.1615 4.92355ZM8.41693 22.8415C7.59193 22.0939 5.70131 21.0196 4.4724 20.5985C3.69896 20.3321 3.65599 20.3665 3.99115 20.9595C4.11146 21.1657 4.23177 21.3978 4.26615 21.4665C4.63568 22.2571 6.42318 24.4314 6.57787 24.2767C6.64662 24.2165 6.62084 24.1048 6.28568 22.6868C6.16537 22.197 6.14818 21.9821 6.21693 21.9821C6.45756 21.9821 8.10756 23.211 8.80365 23.9157C9.70599 24.8267 10.2302 25.497 10.7802 26.4423C11.1411 27.0525 11.2529 27.19 11.4505 27.2071C11.7599 27.2415 11.7513 27.0868 11.4076 26.4681C10.7029 25.1876 9.77474 24.0704 8.41693 22.8415ZM7.77251 12.529C8.23657 11.6267 9.4397 10.1228 10.4108 9.22904C10.8061 8.86811 11.1842 8.57592 11.2616 8.57592C11.6483 8.57592 13.7881 9.46967 13.9944 9.72748C14.0717 9.81342 14.0459 9.87358 13.8913 9.9767C12.9717 10.5783 11.5022 12.2111 10.7717 13.4314C9.96392 14.7806 9.19048 17.0751 9.19048 18.1064C9.19048 18.2439 9.1561 18.39 9.10454 18.4158C9.06157 18.4415 9.0186 18.433 9.0186 18.3986C9.0186 18.3556 8.91548 18.2783 8.78657 18.2267C8.64907 18.1665 8.29673 17.9861 7.98735 17.8142C7.67798 17.6423 7.14517 17.3845 6.80142 17.2384L6.17407 16.972L6.22563 16.6197C6.28579 16.1986 6.57798 15.1673 6.74126 14.8064C6.80142 14.6603 6.87876 14.454 6.91314 14.3337C6.97329 14.1447 7.29126 13.4744 7.77251 12.529Z" fill="#21618C"/>
<path d="M39.9744 20.8106C39.9081 20.8603 39.8584 22.402 39.8584 24.2089V27.5078L40.4054 27.4581L40.9359 27.4083L40.9857 25.1207C41.0022 23.8774 41.0851 22.8496 41.168 22.8496C41.3338 22.8496 41.4664 23.1812 42.2455 25.4854C42.5605 26.4303 42.892 27.2757 42.9749 27.3586C43.0578 27.4415 43.3065 27.4912 43.5054 27.4581C43.9032 27.4083 43.8867 27.4415 44.8316 24.6068C45.6439 22.1699 45.8262 22.286 45.8262 25.187V27.5078L46.3733 27.4581L46.9037 27.4083V24.0929V20.7775L45.9588 20.7277L45.0305 20.678L44.9145 21.225C44.8481 21.5234 44.7321 21.8716 44.6658 22.0207C44.5995 22.1534 44.3177 22.9325 44.0524 23.7614C43.8038 24.5736 43.5054 25.2367 43.4225 25.2202C43.323 25.2202 43.091 24.6897 42.8755 24.0597C42.66 23.4464 42.2953 22.4352 42.0797 21.8052L41.6487 20.6946H40.8696C40.4386 20.6946 40.0242 20.7443 39.9744 20.8106Z" fill="#21618C"/>
<path d="M48.578 21.0592C48.4454 21.5566 48.4454 26.8944 48.578 27.226C48.6443 27.3917 48.8764 27.4912 49.2411 27.4912H49.8047V24.0929V20.6945H49.2411C48.8101 20.6945 48.6609 20.7774 48.578 21.0592Z" fill="#21618C"/>
<path d="M51.2964 24.0929V27.4912H51.8766H52.4402L52.4899 25.303C52.5231 23.7448 52.606 23.0983 52.7386 23.0651C52.8546 23.0154 53.0204 23.1646 53.1199 23.3801C53.2028 23.5956 53.783 24.5736 54.4129 25.5849C55.4904 27.3255 55.5899 27.4083 56.1535 27.4581L56.7669 27.5078V24.1095V20.6946H56.2696H55.7722V22.9325C55.7722 24.6068 55.7225 25.1704 55.5733 25.1704C55.4573 25.1704 55.0594 24.6731 54.6947 24.0929C54.33 23.4961 53.783 22.6341 53.5012 22.1699C53.2028 21.7058 52.9541 21.2582 52.9541 21.1753C52.9541 20.9432 52.3573 20.6946 51.8103 20.6946H51.2964V24.0929Z" fill="#21618C"/>
<path d="M58.425 24.0929V27.5078L59.055 27.4581L59.6683 27.4083V24.0929V20.7775L59.055 20.7277L58.425 20.678V24.0929Z" fill="#21618C"/>
<path d="M61.956 21.026C61.3095 21.4072 61.0774 21.8217 61.0774 22.5842C61.0774 23.3965 61.8068 24.0762 62.934 24.3414C63.4148 24.4575 64.0779 24.673 64.3928 24.8222C64.8902 25.0542 64.973 25.1703 64.973 25.6676C64.973 26.1152 64.8736 26.281 64.5586 26.4633C63.7463 26.8943 62.0886 26.3307 62.072 25.6179C62.072 25.4024 61.9394 25.336 61.4918 25.336C60.9779 25.336 60.9116 25.3858 60.9116 25.7505C60.9116 26.0157 61.1437 26.4136 61.5084 26.7948L62.1052 27.4082H63.68C65.2383 27.4082 65.2549 27.4082 65.719 26.8777C66.3158 26.2146 66.4982 25.3692 66.1832 24.7393C66.0008 24.3248 65.7688 24.1591 64.7078 23.6617C64.5752 23.5954 64.0281 23.4628 63.4977 23.3468C62.7517 23.1976 62.5196 23.065 62.4036 22.75C61.956 21.5896 63.5971 21.026 64.5918 22.0206C64.9399 22.3853 65.2383 22.5179 65.6527 22.5179H66.2163L65.8848 21.8548C65.7024 21.4901 65.3377 21.0923 65.0559 20.9431C64.3431 20.5784 62.6191 20.6115 61.956 21.026Z" fill="#21618C"/>
<path d="M66.9954 20.8106C66.9291 20.8603 66.8794 21.0758 66.8794 21.2747C66.8794 21.6063 66.9954 21.656 67.8077 21.7389C68.3216 21.7886 68.7858 21.8881 68.8521 21.9378C68.9018 22.0041 68.9515 23.1811 68.9681 24.557C68.9681 25.9495 68.9847 27.1762 69.0013 27.2757C69.0179 27.4083 69.2831 27.4912 69.6146 27.4912H70.1948V24.6731V21.8715L71.1563 21.8218C72.0846 21.7721 72.1012 21.7721 72.151 21.225L72.2007 20.6945H69.6478C68.2553 20.6945 67.0452 20.7443 66.9954 20.8106Z" fill="#21618C"/>
<path d="M73.4273 20.8935C73.3776 21.0095 73.361 22.5346 73.3776 24.2586L73.4273 27.4083L73.9743 27.4581C74.5711 27.5244 74.5545 27.5575 74.5711 25.9993L74.5877 24.9217L75.7481 24.872C76.7759 24.8223 76.9251 24.8554 77.1903 25.2036C77.3561 25.4191 77.4887 25.7838 77.4887 26.0158C77.4887 26.2645 77.5384 26.6955 77.5882 26.9773C77.6876 27.4415 77.7539 27.4912 78.3507 27.4912C78.7652 27.4912 78.9641 27.4249 78.8978 27.3089C78.8315 27.2094 78.7154 26.6458 78.6491 26.049C78.5497 25.3196 78.4005 24.8554 78.1684 24.6068C77.8368 24.2586 77.8203 24.2089 78.0855 23.9934C78.8812 23.3303 78.8978 22.0041 78.1186 21.2416C77.6545 20.794 77.5716 20.7774 75.5658 20.7277C73.9412 20.678 73.4936 20.7111 73.4273 20.8935ZM77.1903 21.971C77.5882 22.3191 77.5716 23.2143 77.1737 23.579C76.9251 23.7945 76.6101 23.8442 75.7315 23.8111L74.5877 23.7613L74.538 22.949C74.5048 22.5015 74.5214 22.0373 74.5711 21.9213C74.7037 21.5731 76.7925 21.6063 77.1903 21.971Z" fill="#21618C"/>
<path d="M79.3118 20.7774C79.3118 20.8272 79.5438 21.225 79.8091 21.656C80.0909 22.1036 80.3064 22.5512 80.3064 22.6672C80.3064 22.7667 80.3727 22.8496 80.4556 22.8496C80.5385 22.8496 80.6711 23.0154 80.7374 23.2143C80.8037 23.4298 81.0192 23.8608 81.2347 24.1758C81.5663 24.6565 81.6326 24.9549 81.6326 26.1153V27.4912H82.2957H82.9588V26.0158C82.9588 24.9217 83.0251 24.4907 83.2074 24.3415C83.34 24.2255 83.4561 24.0763 83.4561 23.9934C83.4561 23.9105 83.8374 23.2309 84.2849 22.5015C84.7491 21.7721 85.1138 21.0592 85.1138 20.9266C85.1138 20.7774 84.9315 20.6945 84.5668 20.6945C84.0694 20.6945 83.97 20.794 83.2406 22.0207C82.793 22.7501 82.3786 23.3469 82.2957 23.3469C82.2128 23.3469 81.7984 22.7501 81.3508 22.0207C80.5882 20.7443 80.5385 20.6945 79.9417 20.6945C79.5936 20.6945 79.3118 20.7277 79.3118 20.7774Z" fill="#21618C"/>
<path d="M90.2529 21.0096C89.4903 21.4074 88.7775 22.5678 88.6615 23.6122C88.4957 24.8886 88.8272 25.7838 89.7887 26.7287L90.6176 27.5244L91.894 27.4747C93.0047 27.4084 93.2699 27.3421 93.817 26.9276C94.1651 26.6624 94.5298 26.2314 94.6293 25.9662C94.7287 25.7175 94.8613 25.502 94.9277 25.502C94.994 25.502 95.0603 24.9549 95.0603 24.2919C95.0603 23.2806 94.9774 22.9657 94.563 22.2529C93.8999 21.0759 93.2368 20.6946 91.894 20.6946C91.1812 20.6946 90.6341 20.7941 90.2529 21.0096ZM92.9384 21.8882C93.5517 22.3855 93.7341 22.9159 93.7341 24.1261C93.7341 25.2368 93.7009 25.3694 93.2202 25.9164C92.7726 26.4137 92.6068 26.4966 91.9769 26.4966C91.5625 26.4966 91.0486 26.3806 90.7999 26.2148C89.6395 25.4523 89.6229 22.7667 90.7668 21.9545C91.2309 21.6395 92.5571 21.6063 92.9384 21.8882Z" fill="#21618C"/>
<path d="M96.387 24.0929V27.4912H97.0666H97.7463L97.6966 26.165C97.6634 25.4522 97.6966 24.8057 97.7629 24.7394C97.8126 24.6731 98.4757 24.6399 99.2051 24.6565L100.548 24.6897L100.498 24.1426L100.448 23.5956L99.288 23.5624C98.658 23.5458 98.0281 23.5293 97.9286 23.5293C97.7795 23.5127 97.7131 23.2309 97.7131 22.7004C97.7131 21.9047 97.7131 21.8881 98.3099 21.7721C98.6415 21.7223 99.3377 21.6892 99.8516 21.7058L100.78 21.7555L100.83 21.225L100.879 20.6945H98.6415H96.387V24.0929Z" fill="#21618C"/>
<path d="M104.742 20.91C104.708 21.0261 104.692 22.5346 104.708 24.2586L104.758 27.4083H105.338H105.919L105.968 25.9495L106.018 24.5073H107.493H108.985V25.9993V27.4912H109.566H110.146V24.0929V20.6945H109.566H109.002L108.952 21.971L108.902 23.264L107.46 23.3137L106.001 23.3635V22.286C106.001 21.7058 105.952 21.109 105.902 20.9598C105.786 20.6448 104.874 20.5951 104.742 20.91Z" fill="#21618C"/>
<path d="M111.87 20.9101C111.837 21.0261 111.82 22.5346 111.837 24.2587L111.886 27.4083L114.24 27.4581L116.594 27.5078L116.71 27.0934C116.76 26.8613 116.76 26.5961 116.694 26.5132C116.627 26.3971 115.898 26.3308 114.87 26.3308C113.826 26.3308 113.113 26.2645 113.047 26.1485C112.98 26.049 112.98 25.6512 113.047 25.2533L113.146 24.5239L114.754 24.4742L116.362 24.4244L116.412 23.9603L116.462 23.5127H114.804C113.876 23.5127 113.13 23.463 113.113 23.3801C113.113 23.3138 113.08 22.9491 113.063 22.5678C113.014 21.7389 113.096 21.6892 115.169 21.6892H116.611V21.1919V20.6946H114.29C112.549 20.6946 111.936 20.7443 111.87 20.9101Z" fill="#21618C"/>
<path d="M119.81 20.8935C119.727 21.0095 119.445 21.7058 119.18 22.4352C118.932 23.1646 118.633 23.9768 118.517 24.2586C118.186 25.0212 117.589 26.6955 117.489 27.1099C117.406 27.4415 117.473 27.4912 117.97 27.4912C118.484 27.4912 118.567 27.4249 118.882 26.6623L119.23 25.8335H120.49C121.717 25.8335 121.766 25.8501 121.932 26.2811C122.396 27.4249 122.446 27.4912 123.026 27.4912C123.325 27.4912 123.573 27.4249 123.573 27.3586C123.573 27.2094 122.181 23.3137 121.915 22.7667C121.833 22.5843 121.683 22.1368 121.567 21.7721C121.302 20.8603 121.136 20.6945 120.506 20.6945C120.208 20.6945 119.893 20.794 119.81 20.8935ZM120.805 22.949C120.888 23.2143 121.053 23.6784 121.203 23.9768C121.567 24.7891 121.402 25.0046 120.423 25.0046C119.445 25.0046 119.412 24.9217 119.959 23.3801C120.357 22.2694 120.556 22.1699 120.805 22.949Z" fill="#21618C"/>
<path d="M124.568 24.0929V27.5078L126.856 27.4581L129.127 27.4083L129.177 26.9608C129.243 26.4137 129.044 26.3474 127.171 26.2977L125.878 26.2479L125.845 23.5127L125.811 20.7775L125.198 20.7277L124.568 20.678V24.0929Z" fill="#21618C"/>
<path d="M128.845 21.0758C128.729 21.6726 128.845 21.7886 129.458 21.7223C129.773 21.6892 130.221 21.7058 130.453 21.7555L130.867 21.8549V24.6731V27.4912H131.447H132.028V24.756C132.028 21.656 132.011 21.6892 133.437 21.6892C134.183 21.6892 134.199 21.6726 134.149 21.225L134.1 20.7774L131.514 20.7277L128.911 20.6945L128.845 21.0758Z" fill="#21618C"/>
<path d="M135.293 20.794C135.227 20.8603 135.177 22.402 135.177 24.2089V27.5078L135.807 27.4581L136.42 27.4083L136.47 25.9661C136.52 24.2918 136.553 24.2753 138.161 24.4079C138.658 24.4576 139.172 24.4908 139.288 24.5073C139.437 24.5073 139.487 24.9218 139.487 25.9993V27.4912H140.051C140.366 27.4912 140.647 27.4249 140.681 27.3255C140.714 27.2426 140.714 25.7009 140.681 23.9271L140.631 20.678L140.1 20.7277L139.57 20.7775L139.487 22.0207L139.404 23.264L137.962 23.3138L136.52 23.3635L136.47 22.0705L136.42 20.7775L135.923 20.7277C135.641 20.6946 135.359 20.7277 135.293 20.794Z" fill="#21618C"/>
<path d="M147.727 20.8106C147.66 20.8603 147.611 22.402 147.611 24.2089V27.5078L150.064 27.4581L152.501 27.4083V26.911V26.4137L150.677 26.3308L148.854 26.2479V25.4191V24.5902L150.512 24.5073C152.169 24.4244 152.169 24.4244 152.219 23.9769L152.269 23.5293L150.561 23.4795L148.854 23.4298L148.837 22.6341C148.821 22.0207 148.87 21.855 149.086 21.8384C149.467 21.8052 150.362 21.7555 151.473 21.7224C152.401 21.6892 152.418 21.6892 152.418 21.1919V20.6946H150.13C148.87 20.6946 147.776 20.7443 147.727 20.8106Z" fill="#21618C"/>
<path d="M153.247 21.1587C153.247 21.6229 153.28 21.656 154.291 21.7886L155.319 21.9378L155.336 23.5127C155.336 24.3747 155.352 25.6346 155.369 26.2811L155.402 27.4912H155.982H156.562V24.6731V21.8715L157.573 21.7555C158.518 21.656 158.568 21.6229 158.518 21.2084L158.469 20.7774L155.866 20.7277L153.247 20.678V21.1587Z" fill="#21618C"/>
<path d="M159.678 22.1368C159.678 22.9491 159.678 24.4079 159.678 25.4191C159.695 26.4137 159.712 27.2923 159.712 27.3586C159.712 27.4415 159.977 27.4912 160.292 27.4912H160.872V26.0822C160.872 24.8555 160.905 24.6565 161.204 24.5073C161.535 24.325 162.331 24.3084 163.325 24.4576L163.856 24.5405V26.0324V27.5078L164.486 27.4581L165.099 27.4083V24.0929V20.7775L164.486 20.7277L163.856 20.678V22.0042V23.3303L162.43 23.3801C161.651 23.4132 160.971 23.3967 160.938 23.3635C160.905 23.3303 160.872 22.7004 160.872 21.9876V20.6946H160.292H159.712L159.678 22.1368Z" fill="#21618C"/>
<path d="M166.74 20.9101C166.707 21.0261 166.691 22.5346 166.707 24.2587L166.757 27.4083L167.387 27.4581L168 27.5078V24.1095V20.6946H167.42C167.088 20.6946 166.79 20.794 166.74 20.9101Z" fill="#21618C"/>
<path d="M170.901 21.0094C169.807 21.6891 169.327 22.6505 169.327 24.1591C169.327 25.336 169.774 26.3141 170.587 26.9275C171.15 27.3585 171.333 27.4082 172.543 27.4082C173.836 27.4082 173.902 27.3916 174.499 26.8446C174.83 26.5462 175.228 26.0323 175.377 25.7173C175.709 25.0377 175.742 23.3634 175.46 22.6008C175.228 22.004 174.548 21.2415 173.935 20.9265C173.272 20.5784 171.515 20.6281 170.901 21.0094ZM173.587 21.9377C174.747 22.75 174.747 25.4355 173.57 26.2478C173.388 26.3804 172.874 26.4965 172.46 26.4965C171.813 26.4965 171.581 26.4136 171.183 26.0157C170.918 25.7505 170.703 25.4355 170.686 25.3029C170.669 25.1869 170.62 24.8885 170.553 24.6398C170.371 23.8441 170.636 22.7334 171.15 22.1864C171.548 21.7719 171.73 21.6891 172.427 21.6891C172.874 21.6891 173.388 21.8051 173.587 21.9377Z" fill="#21618C"/>
<path d="M177.035 21.2249C176.985 21.5233 176.952 23.0318 176.985 24.5901L177.035 27.4082H177.615H178.195L178.278 26.1649L178.361 24.9216L179.555 24.8885C180.831 24.8553 181.627 24.5569 181.925 24.0264C182.174 23.5291 182.124 22.0703 181.826 21.6062C181.411 20.9762 180.45 20.6944 178.693 20.6944H177.134L177.035 21.2249ZM180.566 21.9543C180.831 22.1366 180.931 22.3687 180.931 22.8163C180.931 23.7778 180.765 23.8938 179.488 23.9104L178.361 23.927L178.311 22.7997L178.262 21.6891H179.223C179.837 21.6891 180.334 21.7885 180.566 21.9543Z" fill="#21618C"/>
<path d="M183.417 24.0929V27.4912H183.997H184.578V24.0929V20.6945H183.997H183.417V24.0929Z" fill="#21618C"/>
<path d="M187.959 20.9764C187.893 21.1421 187.827 21.3079 187.81 21.3576C187.711 21.7555 187.329 22.7999 187.23 22.9325C187.164 23.0154 186.981 23.5293 186.832 24.0431C186.666 24.5736 186.467 25.0378 186.385 25.1041C186.302 25.1538 186.235 25.3196 186.235 25.4688C186.235 25.618 186.136 25.9495 186.003 26.1816C185.887 26.4137 185.738 26.795 185.672 27.0436C185.572 27.4581 185.605 27.4912 186.119 27.4912C186.699 27.4912 186.749 27.4249 187.213 26.2811C187.379 25.8501 187.429 25.8335 188.722 25.8335C189.849 25.8335 190.065 25.8832 190.148 26.1153C190.197 26.2811 190.313 26.5463 190.396 26.6955C190.479 26.8613 190.545 27.1099 190.545 27.2426C190.545 27.4249 190.728 27.4912 191.192 27.4912H191.855L191.673 26.9442C191.59 26.6623 191.407 26.1816 191.291 25.9164C191.175 25.6346 190.993 25.1207 190.877 24.756C190.777 24.3913 190.628 23.9437 190.545 23.7613C189.998 22.5015 189.75 21.8715 189.65 21.4405C189.501 20.8437 189.302 20.6945 188.622 20.6945C188.274 20.6945 188.042 20.794 187.959 20.9764ZM189.02 22.8827C189.153 23.1811 189.335 23.7448 189.468 24.1426C189.683 24.8223 189.667 24.8389 189.302 24.9383C189.103 24.988 188.689 25.0046 188.374 24.9715C187.876 24.9217 187.81 24.872 187.86 24.4742C187.876 24.2255 188.009 23.8276 188.142 23.5624C188.274 23.3137 188.39 22.9822 188.39 22.833C188.39 22.5678 188.54 22.3523 188.705 22.3523C188.772 22.3523 188.904 22.6009 189.02 22.8827Z" fill="#21618C"/>
<path d="M143.201 23.7449C143.151 23.8775 143.135 24.1262 143.168 24.2919C143.218 24.5406 143.4 24.5903 144.295 24.5903H145.373V24.093C145.373 23.5957 145.373 23.5957 144.328 23.546C143.533 23.5128 143.267 23.546 143.201 23.7449Z" fill="#21618C"/>
<path d="M41.9306 7.04944C41.1514 7.28152 40.6707 7.66279 40.2728 8.39219C40.0407 8.8232 39.9744 9.51945 39.9247 12.4868L39.8584 16.0675L40.9525 16.0509L42.0466 16.0343V12.9509C42.0466 9.71837 42.1626 9.03871 42.7428 8.67401C43.2402 8.35904 44.6658 8.40877 45.0471 8.75689C45.3289 9.02213 45.362 9.32052 45.362 12.4868C45.362 14.3766 45.4118 15.9514 45.4947 16.0011C45.561 16.0343 46.0417 16.0177 46.5556 15.9846L47.5171 15.9183L47.5502 12.3376L47.6 8.74031L48.462 8.52481C49.5064 8.27615 50.0368 8.44192 50.501 9.1879C50.7994 9.68522 50.8325 10.0333 50.8325 12.9178V16.1172H52.4571C55.6565 16.1172 57.1816 15.0397 56.6843 13.1333C56.4522 12.2215 55.557 11.6413 54.2143 11.5087L53.0705 11.3927L53.0373 10.6467C52.9544 9.27079 52.6229 8.19327 52.1256 7.67937C51.1972 6.73447 48.462 6.5687 46.9203 7.34783C46.6551 7.48044 46.3733 7.46387 45.7931 7.26494C44.7321 6.90024 42.7926 6.80078 41.9306 7.04944ZM54.3801 12.9675C54.7282 13.1001 54.8111 13.2327 54.8111 13.6803C54.8111 14.3268 54.3303 14.6915 53.5512 14.5921C53.1036 14.5423 53.0705 14.4926 53.0207 13.6638C52.971 12.8017 52.971 12.8017 53.4683 12.8017C53.7336 12.8017 54.148 12.868 54.3801 12.9675Z" fill="#21618C"/>
<path d="M60.6783 4.44681C59.1863 5.15963 58.7056 6.0548 58.7056 8.20985C58.7056 9.95045 58.9708 10.5638 60.0317 11.3098C60.5456 11.6745 60.9766 11.8071 61.9381 11.9066L63.1814 12.0226L63.2146 14.0782L63.2312 16.1172H64.2921H65.3365L65.3696 13.2825C65.3696 11.7242 65.3365 10.4478 65.2867 10.4478C62.7007 10.398 61.9879 10.3317 61.5569 10.0333C60.9601 9.65206 60.7777 9.17132 60.7777 8.0275C60.7777 7.19863 60.8275 7.08259 61.4408 6.46923C62.0044 5.90561 62.2034 5.80615 62.8167 5.80615C63.198 5.80615 63.9274 5.92219 64.4247 6.0548C64.922 6.18742 65.3199 6.27031 65.3365 6.25373C65.6514 5.54091 65.7509 5.24252 65.7509 5.01044C65.7509 4.5297 64.922 4.28104 63.0985 4.19815C61.6232 4.14842 61.2585 4.18158 60.6783 4.44681Z" fill="#21618C"/>
<path d="M75.0002 4.40106C73.6243 4.81549 72.7623 5.39569 72.1655 6.3406C70.8062 8.47906 71.7511 11.4132 74.0719 12.2421C75.1328 12.6068 75.5307 12.6068 76.6414 12.1924C77.1387 12.01 77.5697 11.8608 77.5863 11.8608C77.6194 11.8608 77.8184 11.5624 78.0504 11.1977C78.4483 10.5844 78.4649 10.4186 78.4649 8.18067C78.4649 6.87107 78.5312 5.71066 78.6141 5.59462C78.6969 5.462 78.9953 5.39569 79.3932 5.42885L80.0397 5.47858L80.1226 7.63362C80.1889 9.45712 80.2552 9.85497 80.537 10.2362C81.0343 10.8828 81.6643 11.1977 82.4931 11.1977C82.9076 11.1977 83.2888 11.264 83.3386 11.3303C83.3717 11.3967 83.322 11.6785 83.1894 11.9437C82.9407 12.5073 82.5097 14.0822 82.3108 15.1928L82.1616 15.9554L83.1562 16.0714C84.4161 16.2041 86.3225 16.2041 86.654 16.0714C86.8364 16.0051 86.9193 15.7565 86.9193 15.2426V14.5132H85.9246C84.499 14.5132 84.4824 14.3474 85.5599 11.4132C85.8417 10.6673 86.1899 9.42396 86.3556 8.66141C86.6374 7.33523 86.6374 7.25234 86.3391 6.48979C85.9578 5.51173 85.4605 4.98126 84.4492 4.5171C83.753 4.18555 83.3717 4.1524 79.8739 4.13582C76.5751 4.10267 75.9285 4.13582 75.0002 4.40106ZM83.5375 5.76039C84.0845 6.02563 84.2835 6.63899 84.2503 7.98174C84.2337 8.91007 84.1509 9.27477 83.9022 9.54C83.5209 9.93786 82.9905 9.97101 82.576 9.58973C82.3274 9.35765 82.2776 9.05926 82.2776 7.46785C82.2776 6.45664 82.3274 5.57804 82.3771 5.52831C82.4766 5.41227 83.0568 5.52831 83.5375 5.76039ZM76.3098 7.94859C76.3098 10.2362 76.2932 10.3689 75.9451 10.6009C75.0334 11.2475 74.1051 10.6673 73.8232 9.25819C73.4088 7.25234 74.3206 5.57804 75.8622 5.56146H76.3098V7.94859Z" fill="#21618C"/>
<path d="M88.8484 5.73196C88.8484 7.29022 88.865 7.37311 89.3457 7.95331C89.7436 8.43405 90.0419 8.59982 90.7713 8.76559C91.2687 8.88163 91.7163 9.03083 91.766 9.11372C91.8489 9.22976 91.3018 11.0201 91.0034 11.5837C90.8874 11.7992 90.5558 13.7222 90.274 15.6617C90.2243 15.9767 90.3238 16.043 90.904 16.1259C91.2852 16.1756 92.2965 16.2088 93.1585 16.1756L94.7333 16.1259L94.783 15.3302L94.8328 14.551H93.8547C93.2579 14.551 92.7938 14.4682 92.6943 14.3355C92.5285 14.1366 92.8269 12.4623 93.1585 11.65C93.3077 11.3019 94.0039 8.94794 94.3023 7.87042L94.4515 7.25706H93.059C91.0532 7.25706 91.0034 7.22391 91.0034 5.51645V4.10739H89.9259H88.8484V5.73196Z" fill="#21618C"/>
<path d="M98.3931 3.93987C98.3931 4.10564 98.9402 5.43182 99.222 5.94572C99.4541 6.36015 99.4541 6.37673 98.7247 6.74143C97.1001 7.57029 96.7023 8.97935 96.7686 13.5215L96.8183 16.4225H97.8129L98.8076 16.4391L98.907 12.7921C98.9733 10.7863 99.0231 9.07882 99.0396 9.01251C99.0894 8.71412 100.084 7.90183 100.399 7.90183C100.896 7.90183 101.642 8.38257 101.891 8.87989C102.04 9.17828 102.14 10.4216 102.206 12.875L102.289 16.4391L103.333 16.4888L104.394 16.5386L104.328 12.8418C104.278 9.22801 104.261 9.12855 103.83 8.31626C103.317 7.33821 102.985 7.00666 102.156 6.65854C101.791 6.50934 101.46 6.22753 101.377 5.99545C101.294 5.76337 101.062 5.24947 100.88 4.85162C100.697 4.43719 100.548 4.02276 100.548 3.93987C100.548 3.82383 100.117 3.75752 99.4707 3.75752C98.8241 3.75752 98.3931 3.82383 98.3931 3.93987Z" fill="#21618C"/>
<path d="M109.556 6.09903V8.07172L107.948 8.12145L106.323 8.17118V8.91716V9.66313L107.931 9.71287L109.556 9.7626L109.589 12.9454L109.638 16.1283L111.213 16.178C113.004 16.2443 114.462 15.8962 115.026 15.2994C115.49 14.8021 115.639 13.5919 115.291 12.8791C114.96 12.1663 114.297 11.7519 113.252 11.6358C111.644 11.4535 111.694 11.4866 111.744 10.608L111.793 9.82891L113.368 9.74602L114.943 9.66313L114.993 8.884L115.043 8.10487L113.418 8.05514L111.793 8.00541L111.76 7.42521C111.744 7.11024 111.727 6.23165 111.727 5.46909L111.711 4.10976H110.633H109.556V6.09903ZM113.335 13.1609C114.147 13.7246 113.451 14.8021 112.324 14.686C111.843 14.6363 111.793 14.5866 111.744 13.9898C111.711 13.6417 111.727 13.2604 111.777 13.1278C111.893 12.8128 112.871 12.8294 113.335 13.1609Z" fill="#21618C"/>
<path d="M120.313 4.56144C118.953 4.8764 118.34 5.34057 117.743 6.4844C117.445 7.0646 117.412 7.44588 117.412 10.1977C117.428 13.0158 117.445 13.3308 117.776 13.9442C118.522 15.3532 119.451 15.7013 122.683 15.7677L124.623 15.8174V14.9554V14.1099L122.617 14.0933L120.611 14.0768L120.114 13.5629C119.6 13.0656 119.6 13.0324 119.517 10.9271C119.384 7.13091 119.782 6.3352 121.805 6.31862C122.401 6.31862 123.181 6.38493 123.562 6.45124L124.225 6.58386L124.44 5.90419C124.556 5.52292 124.606 5.15822 124.556 5.10849C124.092 4.6609 121.407 4.31278 120.313 4.56144Z" fill="#21618C"/>
<path d="M128.597 9.35704C128.53 9.40678 128.481 9.78805 128.481 10.1693C128.481 11.0811 128.547 11.0977 131.299 11.0313L133.371 10.9816L133.421 10.103L133.47 9.241H131.083C129.774 9.241 128.646 9.29074 128.597 9.35704Z" fill="#21618C"/>
<path d="M137.329 6.09635V8.1685H138.406C139.55 8.1685 139.683 8.28454 139.252 8.91448C138.207 10.4562 137.578 12.3791 137.412 14.5673C137.296 16.3245 137.312 16.3577 138.738 16.1919L139.6 16.0924L139.633 14.617C139.65 13.6224 139.782 12.7936 140.031 12.031L140.396 10.9037L141.125 10.854C142.484 10.7545 142.965 11.6497 142.965 14.3021C142.965 15.7775 143.015 16.109 143.23 16.1919C143.612 16.3411 147.408 16.3079 147.474 16.1587C147.507 16.0924 147.491 15.7111 147.441 15.2967L147.358 14.5507H146.281H145.203L145.104 13.2246C144.938 11.2021 144.689 10.6385 143.562 9.71018C143.429 9.59414 142.899 9.44495 142.401 9.39522C141.291 9.2626 141.258 9.16314 142.053 7.82038L142.617 6.84232H141.225C140.396 6.84232 139.782 6.77601 139.716 6.65997C139.666 6.56051 139.6 5.94715 139.583 5.28406L139.567 4.10708L138.456 4.05735L137.329 4.00761V6.09635Z" fill="#21618C"/>
<path d="M150.166 4.92059C150.166 6.99274 150.597 7.73872 152.006 8.08684C152.504 8.21946 152.57 8.31892 152.62 8.84939L152.67 9.44618L151.045 9.49591L149.42 9.54564V10.3745V11.2034L151.045 11.2531L152.653 11.3028V14.0049C152.653 15.4803 152.686 16.7402 152.719 16.7733C152.752 16.8065 153.25 16.8065 153.797 16.7899L154.808 16.7236V14.0049C154.808 11.9493 154.858 11.2862 155.024 11.2697C155.123 11.2697 155.886 11.2697 156.681 11.2862L158.14 11.3028L158.09 10.4242L158.041 9.54564L156.433 9.49591L154.808 9.44618V8.05369V6.64462H153.847C152.537 6.64462 152.321 6.37939 152.321 4.73824V3.49495H151.244H150.166V4.92059Z" fill="#21618C"/>
<path d="M162.02 4.18377C160.512 4.63136 159.683 6.48801 160.246 8.19546C160.396 8.65963 160.711 9.35587 160.926 9.72057C161.142 10.0853 161.423 10.6489 161.573 10.9639C161.705 11.2788 161.904 11.6933 162.004 11.8756C162.12 12.0745 162.236 13.0692 162.269 14.2462L162.335 16.2852L163.413 16.2354L164.49 16.1857L164.424 14.0141C164.391 12.721 164.291 11.743 164.192 11.6104C164.076 11.4778 163.943 11.1296 163.877 10.8312C163.777 10.3837 163.81 10.3008 164.076 10.3008C165.236 10.3008 166.828 9.1901 167.093 8.21204C167.209 7.7313 167.242 7.7313 168.535 7.68157L169.845 7.63184L169.811 7.01848C169.795 6.68693 169.778 6.35539 169.778 6.2725C169.762 6.20619 169.198 6.15646 168.518 6.15646C167.375 6.15646 167.259 6.12331 167.126 5.77519C166.927 5.27787 166.214 4.58162 165.551 4.26666C164.921 3.96827 162.915 3.91854 162.02 4.18377ZM164.772 5.95754C165.336 6.50458 165.352 7.41633 164.822 8.12915C164.49 8.59332 163.263 9.07406 162.948 8.87513C162.451 8.57674 162.086 6.57089 162.435 6.057C162.899 5.36075 164.125 5.31102 164.772 5.95754Z" fill="#21618C"/>
<path d="M174.625 4.52V5.56437L173.73 5.99537C173.017 6.3435 172.768 6.59216 172.487 7.15578C172.089 8.00122 172.039 9.19478 172.37 9.99049C172.619 10.5873 173.332 11.4327 173.581 11.4327C173.663 11.4327 173.813 11.5156 173.912 11.6151C174.045 11.7477 173.929 11.9466 173.415 12.3279C172.47 13.0573 171.923 14.2177 171.84 15.6599L171.774 16.8203H172.851H173.929L173.995 15.6599C174.078 14.4 174.559 13.2231 175.106 12.9247C176.366 12.2616 177.344 13.3722 177.576 15.6931L177.692 16.8203H178.769H179.847L179.797 15.577C179.731 13.9525 179.283 13.0241 178.239 12.3445C177.808 12.0626 177.46 11.7808 177.46 11.7145C177.443 11.6482 177.708 11.3664 178.023 11.0846C178.338 10.8028 178.753 10.3055 178.968 9.97391C179.466 9.12847 179.548 9.09532 180.725 9.22794L181.753 9.3274V8.46538V7.61994H180.593C179.565 7.61994 179.416 7.58679 179.25 7.23867C178.935 6.64189 178.289 6.12799 177.46 5.8296L176.697 5.53121L176.647 4.50342L176.598 3.47563H175.62H174.625V4.52ZM176.614 7.37129C177.427 7.78572 177.476 8.9627 176.73 10.0568C176.415 10.5541 176.283 10.6038 175.702 10.5707C175.172 10.5375 174.99 10.4215 174.675 9.95733C174.26 9.34398 174.161 8.33277 174.476 7.76914C174.807 7.1392 175.802 6.95685 176.614 7.37129Z" fill="#21618C"/>
<path d="M185.754 4.08992C184.909 4.40489 184.461 4.6867 184.097 5.10114C183.715 5.51557 183.682 5.69792 183.682 7.05725C183.682 8.59893 183.765 8.81444 184.925 10.6214C185.008 10.754 185.307 11.2844 185.572 11.8149C185.837 12.3288 186.252 13.0914 186.517 13.5224C187.064 14.4507 186.964 14.5667 185.572 14.5336L184.594 14.517V15.379V16.2576H187.429C190.711 16.2576 190.529 16.4565 189.252 14.2352C187.843 11.7652 187.412 10.9363 187.412 10.6545C187.412 10.4556 187.644 10.3064 188.241 10.1738C189.219 9.94169 189.899 9.44437 190.363 8.63209C191.258 7.02409 190.86 5.39953 189.318 4.40489C188.954 4.17281 188.456 4.07335 187.412 4.04019C186.633 4.02361 185.887 4.04019 185.754 4.08992ZM188.44 5.97973C188.788 6.41074 188.821 7.25618 188.539 7.90269C188.357 8.30054 187.213 8.96363 186.716 8.96363C186.02 8.96363 185.456 6.99094 185.937 6.12892C186.318 5.39953 187.893 5.31664 188.44 5.97973Z" fill="#21618C"/>
</svg>
