<svg width="16" height="17" viewBox="0 0 16 17" fill="none" xmlns="http://www.w3.org/2000/svg">
<path d="M1.66675 4.73844C1.66675 3.48137 1.66675 2.85283 2.05727 2.4623C2.4478 2.07178 3.07634 2.07178 4.33341 2.07178C5.59049 2.07178 6.21903 2.07178 6.60956 2.4623C7.00008 2.85283 7.00008 3.48137 7.00008 4.73844C7.00008 5.99552 7.00008 6.62406 6.60956 7.01459C6.21903 7.40511 5.59049 7.40511 4.33341 7.40511C3.07634 7.40511 2.4478 7.40511 2.05727 7.01459C1.66675 6.62406 1.66675 5.99552 1.66675 4.73844Z" stroke="white"/>
<path d="M9 12.0719C9 10.8149 9 10.1863 9.39052 9.7958C9.78105 9.40527 10.4096 9.40527 11.6667 9.40527C12.9237 9.40527 13.5523 9.40527 13.9428 9.7958C14.3333 10.1863 14.3333 10.8149 14.3333 12.0719C14.3333 13.329 14.3333 13.9576 13.9428 14.3481C13.5523 14.7386 12.9237 14.7386 11.6667 14.7386C10.4096 14.7386 9.78105 14.7386 9.39052 14.3481C9 13.9576 9 13.329 9 12.0719Z" stroke="white"/>
<path d="M1.66675 12.0719C1.66675 10.8149 1.66675 10.1863 2.05727 9.7958C2.4478 9.40527 3.07634 9.40527 4.33341 9.40527C5.59049 9.40527 6.21903 9.40527 6.60956 9.7958C7.00008 10.1863 7.00008 10.8149 7.00008 12.0719C7.00008 13.329 7.00008 13.9576 6.60956 14.3481C6.21903 14.7386 5.59049 14.7386 4.33341 14.7386C3.07634 14.7386 2.4478 14.7386 2.05727 14.3481C1.66675 13.9576 1.66675 13.329 1.66675 12.0719Z" stroke="white"/>
<path d="M9 4.73844C9 3.48137 9 2.85283 9.39052 2.4623C9.78105 2.07178 10.4096 2.07178 11.6667 2.07178C12.9237 2.07178 13.5523 2.07178 13.9428 2.4623C14.3333 2.85283 14.3333 3.48137 14.3333 4.73844C14.3333 5.99552 14.3333 6.62406 13.9428 7.01459C13.5523 7.40511 12.9237 7.40511 11.6667 7.40511C10.4096 7.40511 9.78105 7.40511 9.39052 7.01459C9 6.62406 9 5.99552 9 4.73844Z" stroke="white"/>
</svg>
