<svg width="15" height="15" viewBox="0 0 15 15" fill="none" xmlns="http://www.w3.org/2000/svg">
<path d="M12.9842 13.0723L1.65039 13.0723" stroke="white" stroke-width="0.850037" stroke-linecap="round"/>
<path d="M10.1501 13.0721V4.00505C10.1501 2.93648 10.1501 2.4022 9.81811 2.07024C9.48615 1.73828 8.95186 1.73828 7.8833 1.73828H6.74992C5.68136 1.73828 5.14707 1.73828 4.81511 2.07024C4.48315 2.4022 4.48315 2.93648 4.48315 4.00505V13.0721" stroke="white" stroke-width="0.850037"/>
<path d="M12.4168 13.0722V5.4219C12.4168 4.626 12.4168 4.22805 12.2258 3.94219C12.1431 3.81843 12.0368 3.71218 11.9131 3.62949C11.6272 3.43848 11.2292 3.43848 10.4333 3.43848" stroke="white" stroke-width="0.850037"/>
<path d="M2.2168 13.0722V5.4219C2.2168 4.626 2.2168 4.22805 2.40781 3.94219C2.4905 3.81843 2.59675 3.71218 2.72051 3.62949C3.00637 3.43848 3.40432 3.43848 4.20022 3.43848" stroke="white" stroke-width="0.850037"/>
<path d="M7.31689 13.0721V11.3721" stroke="white" stroke-width="0.850037" stroke-linecap="round"/>
<path d="M6.18311 7.40527H8.44987" stroke="white" stroke-width="0.850037" stroke-linecap="round"/>
<path d="M3.63306 6.83838H4.48309" stroke="white" stroke-width="0.850037" stroke-linecap="round"/>
<path d="M3.63306 8.53857H4.48309" stroke="white" stroke-width="0.850037" stroke-linecap="round"/>
<path d="M10.1506 6.83838H11.0007" stroke="white" stroke-width="0.850037" stroke-linecap="round"/>
<path d="M10.1506 8.53857H11.0007" stroke="white" stroke-width="0.850037" stroke-linecap="round"/>
<path d="M3.63306 5.13867H4.48309" stroke="white" stroke-width="0.850037" stroke-linecap="round"/>
<path d="M10.1506 5.13867H11.0007" stroke="white" stroke-width="0.850037" stroke-linecap="round"/>
<path d="M6.18311 9.10547H8.44987" stroke="white" stroke-width="0.850037" stroke-linecap="round"/>
<circle cx="7.31649" cy="4.57186" r="1.13338" stroke="white" stroke-width="0.850037"/>
</svg>
