<svg width="11" height="13" viewBox="0 0 11 13" fill="none" xmlns="http://www.w3.org/2000/svg">
<path d="M8.07873 1.11377H3.04637C2.43313 1.11377 2.12652 1.11377 1.87923 1.19982C1.41029 1.36298 1.04213 1.74199 0.883633 2.22473C0.800049 2.47931 0.800049 2.79496 0.800049 3.42626V10.8368C0.800049 11.2909 1.32128 11.5319 1.651 11.2302C1.84472 11.0529 2.13663 11.0529 2.33035 11.2302L2.58599 11.4641C2.92549 11.7748 3.43711 11.7748 3.77661 11.4641C4.11612 11.1534 4.62773 11.1534 4.96724 11.4641C5.30674 11.7748 5.81835 11.7748 6.15786 11.4641C6.49737 11.1534 7.00898 11.1534 7.34849 11.4641C7.68799 11.7748 8.1996 11.7748 8.53911 11.4641L8.79475 11.2302C8.98847 11.0529 9.28038 11.0529 9.4741 11.2302C9.80382 11.5319 10.325 11.2909 10.325 10.8368V3.42626C10.325 2.79496 10.325 2.47931 10.2415 2.22473C10.083 1.74199 9.7148 1.36298 9.24587 1.19982C8.99858 1.11377 8.69196 1.11377 8.07873 1.11377Z" stroke="white"/>
</svg>
